<svg xmlns="http://www.w3.org/2000/svg" xmlns:xlink="http://www.w3.org/1999/xlink" width="321" zoomAndPan="magnify" viewBox="0 0 240.75 141.750002" height="189" preserveAspectRatio="xMidYMid meet" version="1.0"><defs><g/><clipPath id="id1"><path d="M 0.0859375 0 L 240.414062 0 L 240.414062 141.5 L 0.0859375 141.5 Z M 0.0859375 0 " clip-rule="nonzero"/></clipPath><clipPath id="id2"><path d="M 14.25 13.929688 L 128.167969 13.929688 L 128.167969 127.097656 L 14.25 127.097656 Z M 14.25 13.929688 " clip-rule="nonzero"/></clipPath><clipPath id="id3"><path d="M 18.777344 18.335938 L 123.703125 18.335938 L 123.703125 123.257812 L 18.777344 123.257812 Z M 18.777344 18.335938 " clip-rule="nonzero"/></clipPath><clipPath id="id4"><path d="M 18.777344 93 L 80 93 L 80 123.257812 L 18.777344 123.257812 Z M 18.777344 93 " clip-rule="nonzero"/></clipPath><clipPath id="id5"><path d="M 83 106 L 123.703125 106 L 123.703125 122 L 83 122 Z M 83 106 " clip-rule="nonzero"/></clipPath></defs><g clip-path="url(#id1)"><path fill="rgb(11.369324%, 10.978699%, 8.628845%)" d="M 0.0859375 0 L 240.664062 0 L 240.664062 141.648438 L 0.0859375 141.648438 Z M 0.0859375 0 " fill-opacity="1" fill-rule="nonzero"/><path fill="rgb(100%, 100%, 100%)" d="M 0.0859375 0 L 240.664062 0 L 240.664062 141.648438 L 0.0859375 141.648438 Z M 0.0859375 0 " fill-opacity="1" fill-rule="nonzero"/><path fill="rgb(11.369324%, 10.978699%, 8.628845%)" d="M 0.0859375 0 L 240.664062 0 L 240.664062 141.648438 L 0.0859375 141.648438 Z M 0.0859375 0 " fill-opacity="1" fill-rule="nonzero"/></g><g fill="rgb(100%, 100%, 100%)" fill-opacity="1"><g transform="translate(136.010373, 102.557464)"><g><path d="M 4.859375 -1.65625 C 5.140625 -1.65625 5.410156 -1.695312 5.671875 -1.78125 C 5.941406 -1.863281 6.140625 -1.945312 6.265625 -2.03125 L 6.4375 -2.15625 L 7.21875 -0.59375 C 7.195312 -0.570312 7.160156 -0.546875 7.109375 -0.515625 C 7.066406 -0.484375 6.960938 -0.421875 6.796875 -0.328125 C 6.628906 -0.242188 6.453125 -0.171875 6.265625 -0.109375 C 6.078125 -0.046875 5.828125 0.0078125 5.515625 0.0625 C 5.210938 0.113281 4.898438 0.140625 4.578125 0.140625 C 3.835938 0.140625 3.128906 -0.0390625 2.453125 -0.40625 C 1.785156 -0.769531 1.242188 -1.273438 0.828125 -1.921875 C 0.421875 -2.566406 0.21875 -3.257812 0.21875 -4 C 0.21875 -4.570312 0.335938 -5.117188 0.578125 -5.640625 C 0.828125 -6.160156 1.148438 -6.601562 1.546875 -6.96875 C 1.941406 -7.34375 2.40625 -7.640625 2.9375 -7.859375 C 3.476562 -8.078125 4.023438 -8.1875 4.578125 -8.1875 C 5.097656 -8.1875 5.578125 -8.125 6.015625 -8 C 6.453125 -7.875 6.765625 -7.753906 6.953125 -7.640625 L 7.21875 -7.453125 L 6.4375 -5.890625 C 6.394531 -5.929688 6.328125 -5.976562 6.234375 -6.03125 C 6.148438 -6.082031 5.96875 -6.15625 5.6875 -6.25 C 5.414062 -6.34375 5.140625 -6.390625 4.859375 -6.390625 C 4.421875 -6.390625 4.023438 -6.316406 3.671875 -6.171875 C 3.328125 -6.023438 3.050781 -5.832031 2.84375 -5.59375 C 2.632812 -5.363281 2.476562 -5.113281 2.375 -4.84375 C 2.269531 -4.582031 2.21875 -4.3125 2.21875 -4.03125 C 2.21875 -3.414062 2.445312 -2.863281 2.90625 -2.375 C 3.363281 -1.894531 4.015625 -1.65625 4.859375 -1.65625 Z M 4.859375 -1.65625 "/></g></g></g><g fill="rgb(100%, 100%, 100%)" fill-opacity="1"><g transform="translate(143.346808, 102.557464)"><g><path d="M 1.046875 -0.59375 C 0.492188 -1.082031 0.21875 -1.710938 0.21875 -2.484375 C 0.21875 -3.265625 0.503906 -3.898438 1.078125 -4.390625 C 1.660156 -4.890625 2.378906 -5.140625 3.234375 -5.140625 C 4.078125 -5.140625 4.785156 -4.890625 5.359375 -4.390625 C 5.929688 -3.890625 6.21875 -3.253906 6.21875 -2.484375 C 6.21875 -1.722656 5.9375 -1.09375 5.375 -0.59375 C 4.8125 -0.101562 4.097656 0.140625 3.234375 0.140625 C 2.335938 0.140625 1.609375 -0.101562 1.046875 -0.59375 Z M 2.390625 -3.34375 C 2.171875 -3.125 2.0625 -2.84375 2.0625 -2.5 C 2.0625 -2.15625 2.164062 -1.875 2.375 -1.65625 C 2.59375 -1.4375 2.878906 -1.328125 3.234375 -1.328125 C 3.566406 -1.328125 3.84375 -1.4375 4.0625 -1.65625 C 4.28125 -1.875 4.390625 -2.15625 4.390625 -2.5 C 4.390625 -2.84375 4.273438 -3.125 4.046875 -3.34375 C 3.828125 -3.5625 3.554688 -3.671875 3.234375 -3.671875 C 2.898438 -3.671875 2.617188 -3.5625 2.390625 -3.34375 Z M 2.390625 -3.34375 "/></g></g></g><g fill="rgb(100%, 100%, 100%)" fill-opacity="1"><g transform="translate(149.786893, 102.557464)"><g><path d="M 0.875 -5 L 0.875 -6.0625 C 0.882812 -6.8125 1.0625 -7.410156 1.40625 -7.859375 C 1.75 -8.304688 2.226562 -8.53125 2.84375 -8.53125 C 3.101562 -8.53125 3.347656 -8.492188 3.578125 -8.421875 C 3.816406 -8.347656 3.988281 -8.269531 4.09375 -8.1875 L 4.265625 -8.078125 L 3.65625 -6.859375 C 3.5 -6.953125 3.328125 -7 3.140625 -7 C 2.921875 -7 2.773438 -6.925781 2.703125 -6.78125 C 2.640625 -6.632812 2.609375 -6.378906 2.609375 -6.015625 L 2.609375 -5 L 3.75 -5 L 3.75 -3.6875 L 2.609375 -3.6875 L 2.609375 0 L 0.875 0 L 0.875 -3.6875 L 0.15625 -3.6875 L 0.15625 -5 Z M 0.875 -5 "/></g></g><g transform="translate(153.440496, 102.557464)"><g><path d="M 2.21875 -5 L 2.21875 -2.625 C 2.21875 -2.125 2.289062 -1.769531 2.4375 -1.5625 C 2.582031 -1.351562 2.832031 -1.25 3.1875 -1.25 C 3.550781 -1.25 3.804688 -1.351562 3.953125 -1.5625 C 4.109375 -1.769531 4.1875 -2.125 4.1875 -2.625 L 4.1875 -5 L 5.90625 -5 L 5.90625 -2.203125 C 5.90625 -1.367188 5.6875 -0.769531 5.25 -0.40625 C 4.820312 -0.0390625 4.132812 0.140625 3.1875 0.140625 C 2.25 0.140625 1.5625 -0.0390625 1.125 -0.40625 C 0.695312 -0.769531 0.484375 -1.367188 0.484375 -2.203125 L 0.484375 -5 Z M 2.21875 -5 "/></g></g></g><g fill="rgb(100%, 100%, 100%)" fill-opacity="1"><g transform="translate(159.831876, 102.557464)"><g><path d="M 0.578125 0 L 0.578125 -5 L 2.3125 -5 L 2.3125 -4.46875 L 2.328125 -4.46875 C 2.773438 -4.914062 3.253906 -5.140625 3.765625 -5.140625 C 4.015625 -5.140625 4.257812 -5.109375 4.5 -5.046875 C 4.738281 -4.984375 4.96875 -4.882812 5.1875 -4.75 C 5.414062 -4.613281 5.597656 -4.421875 5.734375 -4.171875 C 5.878906 -3.921875 5.953125 -3.628906 5.953125 -3.296875 L 5.953125 0 L 4.234375 0 L 4.234375 -2.828125 C 4.234375 -3.085938 4.148438 -3.3125 3.984375 -3.5 C 3.816406 -3.695312 3.597656 -3.796875 3.328125 -3.796875 C 3.066406 -3.796875 2.832031 -3.695312 2.625 -3.5 C 2.414062 -3.300781 2.3125 -3.078125 2.3125 -2.828125 L 2.3125 0 Z M 0.578125 0 "/></g></g></g><g fill="rgb(100%, 100%, 100%)" fill-opacity="1"><g transform="translate(166.271962, 102.557464)"><g><path d="M 0.921875 -0.625 C 0.453125 -1.132812 0.21875 -1.757812 0.21875 -2.5 C 0.21875 -3.238281 0.453125 -3.863281 0.921875 -4.375 C 1.390625 -4.882812 1.984375 -5.140625 2.703125 -5.140625 C 3.367188 -5.140625 3.914062 -4.9375 4.34375 -4.53125 L 4.34375 -8.390625 L 6.078125 -8.390625 L 6.078125 0 L 4.375 0 L 4.375 -0.5625 L 4.34375 -0.5625 C 3.914062 -0.09375 3.367188 0.140625 2.703125 0.140625 C 1.984375 0.140625 1.390625 -0.113281 0.921875 -0.625 Z M 2.390625 -3.34375 C 2.171875 -3.125 2.0625 -2.84375 2.0625 -2.5 C 2.0625 -2.15625 2.164062 -1.875 2.375 -1.65625 C 2.59375 -1.4375 2.878906 -1.328125 3.234375 -1.328125 C 3.566406 -1.328125 3.84375 -1.4375 4.0625 -1.65625 C 4.28125 -1.875 4.390625 -2.15625 4.390625 -2.5 C 4.390625 -2.84375 4.273438 -3.125 4.046875 -3.34375 C 3.828125 -3.5625 3.554688 -3.671875 3.234375 -3.671875 C 2.898438 -3.671875 2.617188 -3.5625 2.390625 -3.34375 Z M 2.390625 -3.34375 "/></g></g></g><g fill="rgb(100%, 100%, 100%)" fill-opacity="1"><g transform="translate(172.9264, 102.557464)"><g><path d="M 0.921875 -0.625 C 0.453125 -1.132812 0.21875 -1.757812 0.21875 -2.5 C 0.21875 -3.238281 0.453125 -3.863281 0.921875 -4.375 C 1.390625 -4.882812 1.984375 -5.140625 2.703125 -5.140625 C 3.367188 -5.140625 3.914062 -4.9375 4.34375 -4.53125 L 4.34375 -5 L 6.078125 -5 L 6.078125 0 L 4.375 0 L 4.375 -0.5625 L 4.34375 -0.5625 C 3.914062 -0.09375 3.367188 0.140625 2.703125 0.140625 C 1.984375 0.140625 1.390625 -0.113281 0.921875 -0.625 Z M 2.390625 -3.34375 C 2.171875 -3.125 2.0625 -2.84375 2.0625 -2.5 C 2.0625 -2.15625 2.164062 -1.875 2.375 -1.65625 C 2.59375 -1.4375 2.878906 -1.328125 3.234375 -1.328125 C 3.566406 -1.328125 3.84375 -1.4375 4.0625 -1.65625 C 4.28125 -1.875 4.390625 -2.15625 4.390625 -2.5 C 4.390625 -2.84375 4.273438 -3.125 4.046875 -3.34375 C 3.828125 -3.5625 3.554688 -3.671875 3.234375 -3.671875 C 2.898438 -3.671875 2.617188 -3.5625 2.390625 -3.34375 Z M 2.390625 -3.34375 "/></g></g></g><g fill="rgb(100%, 100%, 100%)" fill-opacity="1"><g transform="translate(179.580838, 102.557464)"><g><path d="M 0.921875 -0.625 C 0.453125 -1.132812 0.21875 -1.757812 0.21875 -2.5 C 0.21875 -3.238281 0.453125 -3.863281 0.921875 -4.375 C 1.390625 -4.882812 1.984375 -5.140625 2.703125 -5.140625 C 3.367188 -5.140625 3.914062 -4.9375 4.34375 -4.53125 L 4.34375 -8.390625 L 6.078125 -8.390625 L 6.078125 0 L 4.375 0 L 4.375 -0.5625 L 4.34375 -0.5625 C 3.914062 -0.09375 3.367188 0.140625 2.703125 0.140625 C 1.984375 0.140625 1.390625 -0.113281 0.921875 -0.625 Z M 2.390625 -3.34375 C 2.171875 -3.125 2.0625 -2.84375 2.0625 -2.5 C 2.0625 -2.15625 2.164062 -1.875 2.375 -1.65625 C 2.59375 -1.4375 2.878906 -1.328125 3.234375 -1.328125 C 3.566406 -1.328125 3.84375 -1.4375 4.0625 -1.65625 C 4.28125 -1.875 4.390625 -2.15625 4.390625 -2.5 C 4.390625 -2.84375 4.273438 -3.125 4.046875 -3.34375 C 3.828125 -3.5625 3.554688 -3.671875 3.234375 -3.671875 C 2.898438 -3.671875 2.617188 -3.5625 2.390625 -3.34375 Z M 2.390625 -3.34375 "/></g></g></g><g fill="rgb(100%, 100%, 100%)" fill-opacity="1"><g transform="translate(186.235276, 102.557464)"><g><path d="M 1.046875 -0.59375 C 0.492188 -1.082031 0.21875 -1.710938 0.21875 -2.484375 C 0.21875 -3.265625 0.503906 -3.898438 1.078125 -4.390625 C 1.660156 -4.890625 2.378906 -5.140625 3.234375 -5.140625 C 4.078125 -5.140625 4.785156 -4.890625 5.359375 -4.390625 C 5.929688 -3.890625 6.21875 -3.253906 6.21875 -2.484375 C 6.21875 -1.722656 5.9375 -1.09375 5.375 -0.59375 C 4.8125 -0.101562 4.097656 0.140625 3.234375 0.140625 C 2.335938 0.140625 1.609375 -0.101562 1.046875 -0.59375 Z M 2.390625 -3.34375 C 2.171875 -3.125 2.0625 -2.84375 2.0625 -2.5 C 2.0625 -2.15625 2.164062 -1.875 2.375 -1.65625 C 2.59375 -1.4375 2.878906 -1.328125 3.234375 -1.328125 C 3.566406 -1.328125 3.84375 -1.4375 4.0625 -1.65625 C 4.28125 -1.875 4.390625 -2.15625 4.390625 -2.5 C 4.390625 -2.84375 4.273438 -3.125 4.046875 -3.34375 C 3.828125 -3.5625 3.554688 -3.671875 3.234375 -3.671875 C 2.898438 -3.671875 2.617188 -3.5625 2.390625 -3.34375 Z M 2.390625 -3.34375 "/></g></g></g><g fill="rgb(100%, 100%, 100%)" fill-opacity="1"><g transform="translate(192.675362, 102.557464)"><g><path d="M 0.578125 0 L 0.578125 -5 L 2.3125 -5 L 2.3125 -4.28125 L 2.328125 -4.28125 C 2.335938 -4.300781 2.359375 -4.332031 2.390625 -4.375 C 2.421875 -4.414062 2.484375 -4.484375 2.578125 -4.578125 C 2.679688 -4.679688 2.785156 -4.769531 2.890625 -4.84375 C 3.003906 -4.925781 3.148438 -4.992188 3.328125 -5.046875 C 3.503906 -5.109375 3.679688 -5.140625 3.859375 -5.140625 C 4.046875 -5.140625 4.226562 -5.113281 4.40625 -5.0625 C 4.59375 -5.007812 4.726562 -4.957031 4.8125 -4.90625 L 4.953125 -4.84375 L 4.234375 -3.375 C 4.015625 -3.550781 3.710938 -3.640625 3.328125 -3.640625 C 3.117188 -3.640625 2.941406 -3.59375 2.796875 -3.5 C 2.648438 -3.414062 2.546875 -3.304688 2.484375 -3.171875 C 2.421875 -3.046875 2.375 -2.9375 2.34375 -2.84375 C 2.320312 -2.75 2.3125 -2.675781 2.3125 -2.625 L 2.3125 0 Z M 0.578125 0 "/></g></g></g><g fill="rgb(100%, 100%, 100%)" fill-opacity="1"><g transform="translate(197.527345, 102.557464)"><g><path d="M 5.640625 -2.265625 L 2.015625 -2.265625 C 2.015625 -1.910156 2.128906 -1.648438 2.359375 -1.484375 C 2.585938 -1.316406 2.832031 -1.234375 3.09375 -1.234375 C 3.375 -1.234375 3.59375 -1.269531 3.75 -1.34375 C 3.914062 -1.414062 4.101562 -1.5625 4.3125 -1.78125 L 5.5625 -1.15625 C 5.039062 -0.289062 4.175781 0.140625 2.96875 0.140625 C 2.21875 0.140625 1.570312 -0.113281 1.03125 -0.625 C 0.488281 -1.144531 0.21875 -1.769531 0.21875 -2.5 C 0.21875 -3.226562 0.488281 -3.847656 1.03125 -4.359375 C 1.570312 -4.878906 2.21875 -5.140625 2.96875 -5.140625 C 3.757812 -5.140625 4.40625 -4.910156 4.90625 -4.453125 C 5.40625 -3.992188 5.65625 -3.34375 5.65625 -2.5 C 5.65625 -2.382812 5.648438 -2.304688 5.640625 -2.265625 Z M 2.0625 -3.21875 L 3.96875 -3.21875 C 3.925781 -3.476562 3.820312 -3.675781 3.65625 -3.8125 C 3.488281 -3.957031 3.273438 -4.03125 3.015625 -4.03125 C 2.734375 -4.03125 2.507812 -3.953125 2.34375 -3.796875 C 2.175781 -3.648438 2.082031 -3.457031 2.0625 -3.21875 Z M 2.0625 -3.21875 "/></g></g></g><g fill="rgb(100%, 100%, 100%)" fill-opacity="1"><g transform="translate(203.402342, 102.557464)"><g><path d="M 2.765625 -5.140625 C 3.046875 -5.140625 3.328125 -5.109375 3.609375 -5.046875 C 3.890625 -4.984375 4.097656 -4.921875 4.234375 -4.859375 L 4.4375 -4.765625 L 3.875 -3.625 C 3.476562 -3.832031 3.109375 -3.9375 2.765625 -3.9375 C 2.566406 -3.9375 2.425781 -3.914062 2.34375 -3.875 C 2.257812 -3.832031 2.21875 -3.753906 2.21875 -3.640625 C 2.21875 -3.609375 2.222656 -3.578125 2.234375 -3.546875 C 2.242188 -3.523438 2.253906 -3.503906 2.265625 -3.484375 C 2.285156 -3.460938 2.300781 -3.441406 2.3125 -3.421875 C 2.332031 -3.410156 2.363281 -3.394531 2.40625 -3.375 C 2.445312 -3.351562 2.476562 -3.335938 2.5 -3.328125 C 2.519531 -3.316406 2.554688 -3.300781 2.609375 -3.28125 C 2.660156 -3.257812 2.695312 -3.242188 2.71875 -3.234375 C 2.75 -3.234375 2.796875 -3.222656 2.859375 -3.203125 C 2.921875 -3.179688 2.96875 -3.164062 3 -3.15625 C 3.207031 -3.101562 3.382812 -3.039062 3.53125 -2.96875 C 3.675781 -2.894531 3.832031 -2.796875 4 -2.671875 C 4.164062 -2.546875 4.296875 -2.390625 4.390625 -2.203125 C 4.484375 -2.015625 4.53125 -1.800781 4.53125 -1.5625 C 4.53125 -0.425781 3.738281 0.140625 2.15625 0.140625 C 1.800781 0.140625 1.460938 0.0859375 1.140625 -0.015625 C 0.816406 -0.128906 0.582031 -0.238281 0.4375 -0.34375 L 0.21875 -0.53125 L 0.921875 -1.703125 C 0.972656 -1.660156 1.039062 -1.609375 1.125 -1.546875 C 1.207031 -1.484375 1.359375 -1.394531 1.578125 -1.28125 C 1.804688 -1.175781 2.003906 -1.125 2.171875 -1.125 C 2.523438 -1.125 2.703125 -1.242188 2.703125 -1.484375 C 2.703125 -1.597656 2.65625 -1.6875 2.5625 -1.75 C 2.46875 -1.8125 2.3125 -1.878906 2.09375 -1.953125 C 1.882812 -2.035156 1.71875 -2.109375 1.59375 -2.171875 C 1.28125 -2.335938 1.03125 -2.519531 0.84375 -2.71875 C 0.664062 -2.925781 0.578125 -3.203125 0.578125 -3.546875 C 0.578125 -4.046875 0.769531 -4.4375 1.15625 -4.71875 C 1.550781 -5 2.085938 -5.140625 2.765625 -5.140625 Z M 2.765625 -5.140625 "/></g></g></g><g fill="rgb(0.389099%, 95.689392%, 84.309387%)" fill-opacity="1"><g transform="translate(136.010373, 115.850108)"><g><path d="M 2.21875 -2.234375 L 0.78125 -2.234375 L 0.78125 -1.515625 L 2.0625 -1.515625 L 2.0625 -1.125 L 0.78125 -1.125 L 0.78125 -0.390625 L 2.265625 -0.390625 L 2.265625 0 L 0.34375 0 L 0.34375 -2.625 L 2.21875 -2.625 Z M 2.21875 -2.234375 "/></g></g></g><g fill="rgb(0.389099%, 95.689392%, 84.309387%)" fill-opacity="1"><g transform="translate(138.468648, 115.850108)"><g><path d="M 0.765625 0 L 0.34375 0 L 0.34375 -2.78125 L 0.765625 -2.78125 Z M 0.765625 0 "/></g></g></g><g fill="rgb(0.389099%, 95.689392%, 84.309387%)" fill-opacity="1"><g transform="translate(139.574124, 115.850108)"><g><path d="M 0.34375 -2.75 C 0.394531 -2.800781 0.457031 -2.828125 0.53125 -2.828125 C 0.601562 -2.828125 0.660156 -2.800781 0.703125 -2.75 C 0.753906 -2.707031 0.78125 -2.644531 0.78125 -2.5625 C 0.78125 -2.488281 0.753906 -2.425781 0.703125 -2.375 C 0.660156 -2.332031 0.601562 -2.3125 0.53125 -2.3125 C 0.457031 -2.3125 0.394531 -2.332031 0.34375 -2.375 C 0.300781 -2.425781 0.28125 -2.488281 0.28125 -2.5625 C 0.28125 -2.644531 0.300781 -2.707031 0.34375 -2.75 Z M 0.75 0 L 0.3125 0 L 0.3125 -2 L 0.75 -2 Z M 0.75 0 "/></g></g></g><g fill="rgb(0.389099%, 95.689392%, 84.309387%)" fill-opacity="1"><g transform="translate(140.638375, 115.850108)"><g><path d="M 1.15625 -1 L 0.234375 -1 L 0.234375 -1.296875 L 1.15625 -1.296875 Z M 1.15625 -1 "/></g></g></g><g fill="rgb(0.389099%, 95.689392%, 84.309387%)" fill-opacity="1"><g transform="translate(142.017407, 115.850108)"><g><path d="M 1.140625 -2.015625 C 1.484375 -2.015625 1.726562 -1.910156 1.875 -1.703125 C 2.03125 -1.492188 2.097656 -1.203125 2.078125 -0.828125 L 0.5625 -0.828125 C 0.601562 -0.671875 0.675781 -0.546875 0.78125 -0.453125 C 0.894531 -0.367188 1.03125 -0.328125 1.1875 -0.328125 C 1.40625 -0.328125 1.59375 -0.40625 1.75 -0.5625 L 1.96875 -0.328125 C 1.769531 -0.0976562 1.5 0.015625 1.15625 0.015625 C 0.84375 0.015625 0.59375 -0.078125 0.40625 -0.265625 C 0.21875 -0.453125 0.125 -0.691406 0.125 -0.984375 C 0.125 -1.285156 0.21875 -1.53125 0.40625 -1.71875 C 0.59375 -1.90625 0.835938 -2.003906 1.140625 -2.015625 Z M 0.5625 -1.140625 L 1.703125 -1.140625 C 1.691406 -1.304688 1.632812 -1.4375 1.53125 -1.53125 C 1.4375 -1.625 1.304688 -1.671875 1.140625 -1.671875 C 0.984375 -1.671875 0.851562 -1.625 0.75 -1.53125 C 0.644531 -1.4375 0.582031 -1.304688 0.5625 -1.140625 Z M 0.5625 -1.140625 "/></g></g></g><g fill="rgb(0.389099%, 95.689392%, 84.309387%)" fill-opacity="1"><g transform="translate(144.220858, 115.850108)"><g><path d="M 1.84375 -1.703125 L 0.703125 -0.359375 L 1.875 -0.34375 L 1.875 0 L 0.171875 0 L 0.171875 -0.296875 L 1.3125 -1.640625 L 0.203125 -1.640625 L 0.203125 -2 L 1.84375 -1.984375 Z M 1.84375 -1.703125 "/></g></g></g><g fill="rgb(0.389099%, 95.689392%, 84.309387%)" fill-opacity="1"><g transform="translate(146.233194, 115.850108)"><g><path d="M 1.140625 -2.015625 C 1.484375 -2.015625 1.726562 -1.910156 1.875 -1.703125 C 2.03125 -1.492188 2.097656 -1.203125 2.078125 -0.828125 L 0.5625 -0.828125 C 0.601562 -0.671875 0.675781 -0.546875 0.78125 -0.453125 C 0.894531 -0.367188 1.03125 -0.328125 1.1875 -0.328125 C 1.40625 -0.328125 1.59375 -0.40625 1.75 -0.5625 L 1.96875 -0.328125 C 1.769531 -0.0976562 1.5 0.015625 1.15625 0.015625 C 0.84375 0.015625 0.59375 -0.078125 0.40625 -0.265625 C 0.21875 -0.453125 0.125 -0.691406 0.125 -0.984375 C 0.125 -1.285156 0.21875 -1.53125 0.40625 -1.71875 C 0.59375 -1.90625 0.835938 -2.003906 1.140625 -2.015625 Z M 0.5625 -1.140625 L 1.703125 -1.140625 C 1.691406 -1.304688 1.632812 -1.4375 1.53125 -1.53125 C 1.4375 -1.625 1.304688 -1.671875 1.140625 -1.671875 C 0.984375 -1.671875 0.851562 -1.625 0.75 -1.53125 C 0.644531 -1.4375 0.582031 -1.304688 0.5625 -1.140625 Z M 0.5625 -1.140625 "/></g></g></g><g fill="rgb(0.389099%, 95.689392%, 84.309387%)" fill-opacity="1"><g transform="translate(148.436645, 115.850108)"><g><path d="M 0.75 -2 L 0.75 -1.59375 C 0.882812 -1.875 1.113281 -2.015625 1.4375 -2.015625 L 1.4375 -1.59375 C 1.238281 -1.601562 1.078125 -1.554688 0.953125 -1.453125 C 0.835938 -1.359375 0.769531 -1.222656 0.75 -1.046875 L 0.75 0 L 0.3125 0 L 0.3125 -2 Z M 0.75 -2 "/></g></g></g><g fill="rgb(0.389099%, 95.689392%, 84.309387%)" fill-opacity="1"><g transform="translate(149.91311, 115.850108)"><g/></g></g><g fill="rgb(0.389099%, 95.689392%, 84.309387%)" fill-opacity="1"><g transform="translate(150.879928, 115.850108)"><g><path d="M 2.015625 0 L 1.53125 -0.796875 C 1.507812 -0.796875 1.46875 -0.796875 1.40625 -0.796875 L 0.78125 -0.796875 L 0.78125 0 L 0.34375 0 L 0.34375 -2.625 L 1.40625 -2.625 C 1.738281 -2.625 2 -2.546875 2.1875 -2.390625 C 2.375 -2.234375 2.46875 -2.015625 2.46875 -1.734375 C 2.46875 -1.515625 2.421875 -1.332031 2.328125 -1.1875 C 2.234375 -1.050781 2.097656 -0.945312 1.921875 -0.875 L 2.515625 0 Z M 0.78125 -1.1875 L 1.40625 -1.1875 C 1.832031 -1.1875 2.046875 -1.363281 2.046875 -1.71875 C 2.046875 -2.0625 1.832031 -2.234375 1.40625 -2.234375 L 0.78125 -2.234375 Z M 0.78125 -1.1875 "/></g></g></g><g fill="rgb(0.389099%, 95.689392%, 84.309387%)" fill-opacity="1"><g transform="translate(153.589276, 115.850108)"><g><path d="M 1.515625 0 L 1.515625 -0.25 C 1.367188 -0.0703125 1.148438 0.015625 0.859375 0.015625 C 0.640625 0.015625 0.46875 -0.0390625 0.34375 -0.15625 C 0.21875 -0.269531 0.15625 -0.414062 0.15625 -0.59375 C 0.15625 -0.78125 0.21875 -0.925781 0.34375 -1.03125 C 0.476562 -1.144531 0.664062 -1.203125 0.90625 -1.203125 L 1.515625 -1.203125 L 1.515625 -1.265625 C 1.515625 -1.390625 1.472656 -1.484375 1.390625 -1.546875 C 1.304688 -1.617188 1.1875 -1.65625 1.03125 -1.65625 C 0.84375 -1.65625 0.648438 -1.585938 0.453125 -1.453125 L 0.265625 -1.765625 C 0.421875 -1.847656 0.554688 -1.910156 0.671875 -1.953125 C 0.796875 -1.992188 0.945312 -2.015625 1.125 -2.015625 C 1.382812 -2.015625 1.582031 -1.953125 1.71875 -1.828125 C 1.863281 -1.703125 1.9375 -1.53125 1.9375 -1.3125 L 1.9375 0 Z M 0.9375 -0.328125 C 1.09375 -0.328125 1.222656 -0.359375 1.328125 -0.421875 C 1.441406 -0.492188 1.503906 -0.585938 1.515625 -0.703125 L 1.515625 -0.890625 L 0.96875 -0.890625 C 0.820312 -0.890625 0.71875 -0.867188 0.65625 -0.828125 C 0.59375 -0.785156 0.5625 -0.71875 0.5625 -0.625 C 0.5625 -0.53125 0.59375 -0.457031 0.65625 -0.40625 C 0.726562 -0.351562 0.820312 -0.328125 0.9375 -0.328125 Z M 0.9375 -0.328125 "/></g></g></g><g fill="rgb(0.389099%, 95.689392%, 84.309387%)" fill-opacity="1"><g transform="translate(155.785237, 115.850108)"><g><path d="M 2.921875 -2.015625 C 3.148438 -2.015625 3.328125 -1.941406 3.453125 -1.796875 C 3.585938 -1.660156 3.65625 -1.472656 3.65625 -1.234375 L 3.65625 0 L 3.21875 0 L 3.21875 -1.125 C 3.21875 -1.269531 3.175781 -1.382812 3.09375 -1.46875 C 3.007812 -1.5625 2.894531 -1.609375 2.75 -1.609375 C 2.582031 -1.597656 2.445312 -1.535156 2.34375 -1.421875 C 2.25 -1.304688 2.203125 -1.160156 2.203125 -0.984375 L 2.203125 0 L 1.765625 0 L 1.765625 -1.125 C 1.765625 -1.269531 1.722656 -1.382812 1.640625 -1.46875 C 1.554688 -1.5625 1.441406 -1.609375 1.296875 -1.609375 C 1.128906 -1.597656 0.992188 -1.535156 0.890625 -1.421875 C 0.796875 -1.304688 0.75 -1.160156 0.75 -0.984375 L 0.75 0 L 0.3125 0 L 0.3125 -2 L 0.75 -2 L 0.75 -1.609375 C 0.875 -1.878906 1.113281 -2.015625 1.46875 -2.015625 C 1.644531 -2.015625 1.789062 -1.972656 1.90625 -1.890625 C 2.03125 -1.804688 2.113281 -1.6875 2.15625 -1.53125 C 2.28125 -1.851562 2.535156 -2.015625 2.921875 -2.015625 Z M 2.921875 -2.015625 "/></g></g></g><g fill="rgb(0.389099%, 95.689392%, 84.309387%)" fill-opacity="1"><g transform="translate(159.693743, 115.850108)"><g><path d="M 0.34375 -2.75 C 0.394531 -2.800781 0.457031 -2.828125 0.53125 -2.828125 C 0.601562 -2.828125 0.660156 -2.800781 0.703125 -2.75 C 0.753906 -2.707031 0.78125 -2.644531 0.78125 -2.5625 C 0.78125 -2.488281 0.753906 -2.425781 0.703125 -2.375 C 0.660156 -2.332031 0.601562 -2.3125 0.53125 -2.3125 C 0.457031 -2.3125 0.394531 -2.332031 0.34375 -2.375 C 0.300781 -2.425781 0.28125 -2.488281 0.28125 -2.5625 C 0.28125 -2.644531 0.300781 -2.707031 0.34375 -2.75 Z M 0.75 0 L 0.3125 0 L 0.3125 -2 L 0.75 -2 Z M 0.75 0 "/></g></g></g><g fill="rgb(0.389099%, 95.689392%, 84.309387%)" fill-opacity="1"><g transform="translate(160.757994, 115.850108)"><g><path d="M 0.75 -2 L 0.75 -1.59375 C 0.882812 -1.875 1.113281 -2.015625 1.4375 -2.015625 L 1.4375 -1.59375 C 1.238281 -1.601562 1.078125 -1.554688 0.953125 -1.453125 C 0.835938 -1.359375 0.769531 -1.222656 0.75 -1.046875 L 0.75 0 L 0.3125 0 L 0.3125 -2 Z M 0.75 -2 "/></g></g></g><g fill="rgb(0.389099%, 95.689392%, 84.309387%)" fill-opacity="1"><g transform="translate(162.234459, 115.850108)"><g><path d="M 1.140625 -2.015625 C 1.484375 -2.015625 1.726562 -1.910156 1.875 -1.703125 C 2.03125 -1.492188 2.097656 -1.203125 2.078125 -0.828125 L 0.5625 -0.828125 C 0.601562 -0.671875 0.675781 -0.546875 0.78125 -0.453125 C 0.894531 -0.367188 1.03125 -0.328125 1.1875 -0.328125 C 1.40625 -0.328125 1.59375 -0.40625 1.75 -0.5625 L 1.96875 -0.328125 C 1.769531 -0.0976562 1.5 0.015625 1.15625 0.015625 C 0.84375 0.015625 0.59375 -0.078125 0.40625 -0.265625 C 0.21875 -0.453125 0.125 -0.691406 0.125 -0.984375 C 0.125 -1.285156 0.21875 -1.53125 0.40625 -1.71875 C 0.59375 -1.90625 0.835938 -2.003906 1.140625 -2.015625 Z M 0.5625 -1.140625 L 1.703125 -1.140625 C 1.691406 -1.304688 1.632812 -1.4375 1.53125 -1.53125 C 1.4375 -1.625 1.304688 -1.671875 1.140625 -1.671875 C 0.984375 -1.671875 0.851562 -1.625 0.75 -1.53125 C 0.644531 -1.4375 0.582031 -1.304688 0.5625 -1.140625 Z M 0.5625 -1.140625 "/></g></g></g><g fill="rgb(0.389099%, 95.689392%, 84.309387%)" fill-opacity="1"><g transform="translate(164.43791, 115.850108)"><g><path d="M 1.84375 -1.703125 L 0.703125 -0.359375 L 1.875 -0.34375 L 1.875 0 L 0.171875 0 L 0.171875 -0.296875 L 1.3125 -1.640625 L 0.203125 -1.640625 L 0.203125 -2 L 1.84375 -1.984375 Z M 1.84375 -1.703125 "/></g></g></g><g fill="rgb(0.389099%, 95.689392%, 84.309387%)" fill-opacity="1"><g transform="translate(136.010373, 121.096307)"><g><path d="M 2.21875 -2.234375 L 0.78125 -2.234375 L 0.78125 -1.515625 L 2.0625 -1.515625 L 2.0625 -1.125 L 0.78125 -1.125 L 0.78125 -0.390625 L 2.265625 -0.390625 L 2.265625 0 L 0.34375 0 L 0.34375 -2.625 L 2.21875 -2.625 Z M 2.21875 -2.234375 "/></g></g></g><g fill="rgb(0.389099%, 95.689392%, 84.309387%)" fill-opacity="1"><g transform="translate(138.468648, 121.096307)"><g><path d="M 0.921875 -2.015625 C 1.191406 -2.015625 1.421875 -1.945312 1.609375 -1.8125 L 1.453125 -1.5 C 1.265625 -1.613281 1.070312 -1.671875 0.875 -1.671875 C 0.6875 -1.671875 0.59375 -1.601562 0.59375 -1.46875 C 0.59375 -1.40625 0.628906 -1.351562 0.703125 -1.3125 C 0.773438 -1.269531 0.863281 -1.234375 0.96875 -1.203125 C 1.070312 -1.171875 1.171875 -1.132812 1.265625 -1.09375 C 1.367188 -1.0625 1.457031 -1 1.53125 -0.90625 C 1.601562 -0.820312 1.640625 -0.710938 1.640625 -0.578125 C 1.640625 -0.378906 1.566406 -0.226562 1.421875 -0.125 C 1.273438 -0.03125 1.09375 0.015625 0.875 0.015625 C 0.726562 0.015625 0.582031 -0.00390625 0.4375 -0.046875 C 0.289062 -0.0976562 0.171875 -0.171875 0.078125 -0.265625 L 0.234375 -0.5625 C 0.316406 -0.488281 0.421875 -0.429688 0.546875 -0.390625 C 0.671875 -0.347656 0.789062 -0.328125 0.90625 -0.328125 C 1 -0.328125 1.070312 -0.34375 1.125 -0.375 C 1.1875 -0.40625 1.21875 -0.457031 1.21875 -0.53125 C 1.21875 -0.613281 1.179688 -0.675781 1.109375 -0.71875 C 1.046875 -0.757812 0.960938 -0.789062 0.859375 -0.8125 C 0.753906 -0.84375 0.648438 -0.878906 0.546875 -0.921875 C 0.441406 -0.960938 0.351562 -1.023438 0.28125 -1.109375 C 0.21875 -1.191406 0.1875 -1.300781 0.1875 -1.4375 C 0.1875 -1.625 0.253906 -1.765625 0.390625 -1.859375 C 0.535156 -1.960938 0.710938 -2.015625 0.921875 -2.015625 Z M 0.921875 -2.015625 "/></g></g></g><g fill="rgb(0.389099%, 95.689392%, 84.309387%)" fill-opacity="1"><g transform="translate(140.22991, 121.096307)"><g><path d="M 1.34375 -0.453125 L 1.453125 -0.125 C 1.285156 -0.03125 1.117188 0.015625 0.953125 0.015625 C 0.796875 0.015625 0.660156 -0.03125 0.546875 -0.125 C 0.441406 -0.226562 0.390625 -0.375 0.390625 -0.5625 L 0.390625 -1.59375 L 0.109375 -1.59375 L 0.109375 -1.921875 L 0.390625 -1.921875 L 0.390625 -2.46875 L 0.828125 -2.46875 L 0.828125 -1.921875 L 1.40625 -1.921875 L 1.40625 -1.59375 L 0.828125 -1.59375 L 0.828125 -0.640625 C 0.828125 -0.535156 0.84375 -0.460938 0.875 -0.421875 C 0.914062 -0.390625 0.96875 -0.375 1.03125 -0.375 C 1.113281 -0.375 1.21875 -0.398438 1.34375 -0.453125 Z M 1.34375 -0.453125 "/></g></g></g><g fill="rgb(0.389099%, 95.689392%, 84.309387%)" fill-opacity="1"><g transform="translate(141.755092, 121.096307)"><g><path d="M 1.140625 -2.015625 C 1.484375 -2.015625 1.726562 -1.910156 1.875 -1.703125 C 2.03125 -1.492188 2.097656 -1.203125 2.078125 -0.828125 L 0.5625 -0.828125 C 0.601562 -0.671875 0.675781 -0.546875 0.78125 -0.453125 C 0.894531 -0.367188 1.03125 -0.328125 1.1875 -0.328125 C 1.40625 -0.328125 1.59375 -0.40625 1.75 -0.5625 L 1.96875 -0.328125 C 1.769531 -0.0976562 1.5 0.015625 1.15625 0.015625 C 0.84375 0.015625 0.59375 -0.078125 0.40625 -0.265625 C 0.21875 -0.453125 0.125 -0.691406 0.125 -0.984375 C 0.125 -1.285156 0.21875 -1.53125 0.40625 -1.71875 C 0.59375 -1.90625 0.835938 -2.003906 1.140625 -2.015625 Z M 0.5625 -1.140625 L 1.703125 -1.140625 C 1.691406 -1.304688 1.632812 -1.4375 1.53125 -1.53125 C 1.4375 -1.625 1.304688 -1.671875 1.140625 -1.671875 C 0.984375 -1.671875 0.851562 -1.625 0.75 -1.53125 C 0.644531 -1.4375 0.582031 -1.304688 0.5625 -1.140625 Z M 0.5625 -1.140625 "/></g></g></g><g fill="rgb(0.389099%, 95.689392%, 84.309387%)" fill-opacity="1"><g transform="translate(143.958543, 121.096307)"><g><path d="M 1.46875 -2.015625 C 1.75 -2.015625 1.976562 -1.914062 2.15625 -1.71875 C 2.332031 -1.53125 2.421875 -1.285156 2.421875 -0.984375 C 2.421875 -0.691406 2.332031 -0.453125 2.15625 -0.265625 C 1.988281 -0.078125 1.757812 0.015625 1.46875 0.015625 C 1.15625 0.015625 0.921875 -0.101562 0.765625 -0.34375 L 0.765625 0 L 0.34375 0 L 0.34375 -2.78125 L 0.765625 -2.78125 L 0.765625 -1.65625 C 0.921875 -1.894531 1.15625 -2.015625 1.46875 -2.015625 Z M 0.9375 -0.53125 C 1.050781 -0.414062 1.195312 -0.359375 1.375 -0.359375 C 1.550781 -0.359375 1.695312 -0.414062 1.8125 -0.53125 C 1.925781 -0.65625 1.984375 -0.8125 1.984375 -1 C 1.984375 -1.1875 1.925781 -1.34375 1.8125 -1.46875 C 1.695312 -1.59375 1.550781 -1.65625 1.375 -1.65625 C 1.195312 -1.65625 1.050781 -1.59375 0.9375 -1.46875 C 0.820312 -1.34375 0.765625 -1.1875 0.765625 -1 C 0.765625 -0.8125 0.820312 -0.65625 0.9375 -0.53125 Z M 0.9375 -0.53125 "/></g></g></g><g fill="rgb(0.389099%, 95.689392%, 84.309387%)" fill-opacity="1"><g transform="translate(146.506761, 121.096307)"><g><path d="M 1.515625 0 L 1.515625 -0.25 C 1.367188 -0.0703125 1.148438 0.015625 0.859375 0.015625 C 0.640625 0.015625 0.46875 -0.0390625 0.34375 -0.15625 C 0.21875 -0.269531 0.15625 -0.414062 0.15625 -0.59375 C 0.15625 -0.78125 0.21875 -0.925781 0.34375 -1.03125 C 0.476562 -1.144531 0.664062 -1.203125 0.90625 -1.203125 L 1.515625 -1.203125 L 1.515625 -1.265625 C 1.515625 -1.390625 1.472656 -1.484375 1.390625 -1.546875 C 1.304688 -1.617188 1.1875 -1.65625 1.03125 -1.65625 C 0.84375 -1.65625 0.648438 -1.585938 0.453125 -1.453125 L 0.265625 -1.765625 C 0.421875 -1.847656 0.554688 -1.910156 0.671875 -1.953125 C 0.796875 -1.992188 0.945312 -2.015625 1.125 -2.015625 C 1.382812 -2.015625 1.582031 -1.953125 1.71875 -1.828125 C 1.863281 -1.703125 1.9375 -1.53125 1.9375 -1.3125 L 1.9375 0 Z M 0.9375 -0.328125 C 1.09375 -0.328125 1.222656 -0.359375 1.328125 -0.421875 C 1.441406 -0.492188 1.503906 -0.585938 1.515625 -0.703125 L 1.515625 -0.890625 L 0.96875 -0.890625 C 0.820312 -0.890625 0.71875 -0.867188 0.65625 -0.828125 C 0.59375 -0.785156 0.5625 -0.71875 0.5625 -0.625 C 0.5625 -0.53125 0.59375 -0.457031 0.65625 -0.40625 C 0.726562 -0.351562 0.820312 -0.328125 0.9375 -0.328125 Z M 0.9375 -0.328125 "/></g></g></g><g fill="rgb(0.389099%, 95.689392%, 84.309387%)" fill-opacity="1"><g transform="translate(148.702722, 121.096307)"><g><path d="M 1.484375 -2.015625 C 1.710938 -2.015625 1.894531 -1.941406 2.03125 -1.796875 C 2.164062 -1.660156 2.234375 -1.472656 2.234375 -1.234375 L 2.234375 0 L 1.796875 0 L 1.796875 -1.125 C 1.796875 -1.269531 1.753906 -1.382812 1.671875 -1.46875 C 1.585938 -1.5625 1.46875 -1.609375 1.3125 -1.609375 C 1.15625 -1.597656 1.023438 -1.539062 0.921875 -1.4375 C 0.816406 -1.34375 0.757812 -1.21875 0.75 -1.0625 L 0.75 0 L 0.3125 0 L 0.3125 -2 L 0.75 -2 L 0.75 -1.609375 C 0.882812 -1.878906 1.128906 -2.015625 1.484375 -2.015625 Z M 1.484375 -2.015625 "/></g></g></g><g fill="rgb(0.389099%, 95.689392%, 84.309387%)" fill-opacity="1"><g transform="translate(151.186876, 121.096307)"><g/></g></g><g fill="rgb(0.389099%, 95.689392%, 84.309387%)" fill-opacity="1"><g transform="translate(152.153693, 121.096307)"><g/></g></g><g fill="rgb(0.389099%, 95.689392%, 84.309387%)" fill-opacity="1"><g transform="translate(153.11907, 121.096307)"><g><path d="M 0.34375 -2.625 L 1.484375 -2.625 C 1.753906 -2.625 1.96875 -2.566406 2.125 -2.453125 C 2.28125 -2.335938 2.359375 -2.175781 2.359375 -1.96875 C 2.359375 -1.820312 2.316406 -1.695312 2.234375 -1.59375 C 2.160156 -1.488281 2.050781 -1.421875 1.90625 -1.390625 C 2.082031 -1.359375 2.21875 -1.28125 2.3125 -1.15625 C 2.414062 -1.039062 2.46875 -0.894531 2.46875 -0.71875 C 2.46875 -0.488281 2.378906 -0.3125 2.203125 -0.1875 C 2.035156 -0.0625 1.804688 0 1.515625 0 L 0.34375 0 Z M 0.78125 -2.234375 L 0.78125 -1.53125 L 1.46875 -1.53125 C 1.601562 -1.53125 1.707031 -1.5625 1.78125 -1.625 C 1.863281 -1.6875 1.90625 -1.773438 1.90625 -1.890625 C 1.90625 -2.003906 1.863281 -2.085938 1.78125 -2.140625 C 1.707031 -2.203125 1.601562 -2.234375 1.46875 -2.234375 Z M 0.78125 -1.140625 L 0.78125 -0.390625 L 1.46875 -0.390625 C 1.632812 -0.390625 1.765625 -0.421875 1.859375 -0.484375 C 1.960938 -0.554688 2.015625 -0.65625 2.015625 -0.78125 C 2.015625 -0.894531 1.960938 -0.984375 1.859375 -1.046875 C 1.765625 -1.109375 1.632812 -1.140625 1.46875 -1.140625 Z M 0.78125 -1.140625 "/></g></g></g><g fill="rgb(0.389099%, 95.689392%, 84.309387%)" fill-opacity="1"><g transform="translate(155.764709, 121.096307)"><g><path d="M 1.140625 -2.015625 C 1.484375 -2.015625 1.726562 -1.910156 1.875 -1.703125 C 2.03125 -1.492188 2.097656 -1.203125 2.078125 -0.828125 L 0.5625 -0.828125 C 0.601562 -0.671875 0.675781 -0.546875 0.78125 -0.453125 C 0.894531 -0.367188 1.03125 -0.328125 1.1875 -0.328125 C 1.40625 -0.328125 1.59375 -0.40625 1.75 -0.5625 L 1.96875 -0.328125 C 1.769531 -0.0976562 1.5 0.015625 1.15625 0.015625 C 0.84375 0.015625 0.59375 -0.078125 0.40625 -0.265625 C 0.21875 -0.453125 0.125 -0.691406 0.125 -0.984375 C 0.125 -1.285156 0.21875 -1.53125 0.40625 -1.71875 C 0.59375 -1.90625 0.835938 -2.003906 1.140625 -2.015625 Z M 0.5625 -1.140625 L 1.703125 -1.140625 C 1.691406 -1.304688 1.632812 -1.4375 1.53125 -1.53125 C 1.4375 -1.625 1.304688 -1.671875 1.140625 -1.671875 C 0.984375 -1.671875 0.851562 -1.625 0.75 -1.53125 C 0.644531 -1.4375 0.582031 -1.304688 0.5625 -1.140625 Z M 0.5625 -1.140625 "/></g></g></g><g fill="rgb(0.389099%, 95.689392%, 84.309387%)" fill-opacity="1"><g transform="translate(157.96816, 121.096307)"><g><path d="M 0.75 -2 L 0.75 -1.59375 C 0.882812 -1.875 1.113281 -2.015625 1.4375 -2.015625 L 1.4375 -1.59375 C 1.238281 -1.601562 1.078125 -1.554688 0.953125 -1.453125 C 0.835938 -1.359375 0.769531 -1.222656 0.75 -1.046875 L 0.75 0 L 0.3125 0 L 0.3125 -2 Z M 0.75 -2 "/></g></g></g><g fill="rgb(0.389099%, 95.689392%, 84.309387%)" fill-opacity="1"><g transform="translate(159.444626, 121.096307)"><g><path d="M 0.75 -2 L 0.75 -1.59375 C 0.882812 -1.875 1.113281 -2.015625 1.4375 -2.015625 L 1.4375 -1.59375 C 1.238281 -1.601562 1.078125 -1.554688 0.953125 -1.453125 C 0.835938 -1.359375 0.769531 -1.222656 0.75 -1.046875 L 0.75 0 L 0.3125 0 L 0.3125 -2 Z M 0.75 -2 "/></g></g></g><g fill="rgb(0.389099%, 95.689392%, 84.309387%)" fill-opacity="1"><g transform="translate(160.921091, 121.096307)"><g><path d="M 0.34375 -2.75 C 0.394531 -2.800781 0.457031 -2.828125 0.53125 -2.828125 C 0.601562 -2.828125 0.660156 -2.800781 0.703125 -2.75 C 0.753906 -2.707031 0.78125 -2.644531 0.78125 -2.5625 C 0.78125 -2.488281 0.753906 -2.425781 0.703125 -2.375 C 0.660156 -2.332031 0.601562 -2.3125 0.53125 -2.3125 C 0.457031 -2.3125 0.394531 -2.332031 0.34375 -2.375 C 0.300781 -2.425781 0.28125 -2.488281 0.28125 -2.5625 C 0.28125 -2.644531 0.300781 -2.707031 0.34375 -2.75 Z M 0.75 0 L 0.3125 0 L 0.3125 -2 L 0.75 -2 Z M 0.75 0 "/></g></g></g><g fill="rgb(0.389099%, 95.689392%, 84.309387%)" fill-opacity="1"><g transform="translate(161.985342, 121.096307)"><g><path d="M 1.171875 -2.015625 C 1.484375 -2.015625 1.734375 -1.921875 1.921875 -1.734375 C 2.117188 -1.546875 2.21875 -1.300781 2.21875 -1 C 2.21875 -0.695312 2.117188 -0.453125 1.921875 -0.265625 C 1.734375 -0.078125 1.484375 0.015625 1.171875 0.015625 C 0.859375 0.015625 0.601562 -0.078125 0.40625 -0.265625 C 0.21875 -0.453125 0.125 -0.695312 0.125 -1 C 0.125 -1.300781 0.21875 -1.546875 0.40625 -1.734375 C 0.601562 -1.921875 0.859375 -2.015625 1.171875 -2.015625 Z M 1.171875 -1.640625 C 0.992188 -1.640625 0.847656 -1.578125 0.734375 -1.453125 C 0.617188 -1.335938 0.5625 -1.1875 0.5625 -1 C 0.5625 -0.800781 0.617188 -0.640625 0.734375 -0.515625 C 0.847656 -0.398438 0.992188 -0.34375 1.171875 -0.34375 C 1.347656 -0.34375 1.492188 -0.398438 1.609375 -0.515625 C 1.722656 -0.640625 1.78125 -0.800781 1.78125 -1 C 1.78125 -1.1875 1.722656 -1.335938 1.609375 -1.453125 C 1.492188 -1.578125 1.347656 -1.640625 1.171875 -1.640625 Z M 1.171875 -1.640625 "/></g></g></g><g fill="rgb(0.389099%, 95.689392%, 84.309387%)" fill-opacity="1"><g transform="translate(164.327452, 121.096307)"><g><path d="M 0.921875 -2.015625 C 1.191406 -2.015625 1.421875 -1.945312 1.609375 -1.8125 L 1.453125 -1.5 C 1.265625 -1.613281 1.070312 -1.671875 0.875 -1.671875 C 0.6875 -1.671875 0.59375 -1.601562 0.59375 -1.46875 C 0.59375 -1.40625 0.628906 -1.351562 0.703125 -1.3125 C 0.773438 -1.269531 0.863281 -1.234375 0.96875 -1.203125 C 1.070312 -1.171875 1.171875 -1.132812 1.265625 -1.09375 C 1.367188 -1.0625 1.457031 -1 1.53125 -0.90625 C 1.601562 -0.820312 1.640625 -0.710938 1.640625 -0.578125 C 1.640625 -0.378906 1.566406 -0.226562 1.421875 -0.125 C 1.273438 -0.03125 1.09375 0.015625 0.875 0.015625 C 0.726562 0.015625 0.582031 -0.00390625 0.4375 -0.046875 C 0.289062 -0.0976562 0.171875 -0.171875 0.078125 -0.265625 L 0.234375 -0.5625 C 0.316406 -0.488281 0.421875 -0.429688 0.546875 -0.390625 C 0.671875 -0.347656 0.789062 -0.328125 0.90625 -0.328125 C 1 -0.328125 1.070312 -0.34375 1.125 -0.375 C 1.1875 -0.40625 1.21875 -0.457031 1.21875 -0.53125 C 1.21875 -0.613281 1.179688 -0.675781 1.109375 -0.71875 C 1.046875 -0.757812 0.960938 -0.789062 0.859375 -0.8125 C 0.753906 -0.84375 0.648438 -0.878906 0.546875 -0.921875 C 0.441406 -0.960938 0.351562 -1.023438 0.28125 -1.109375 C 0.21875 -1.191406 0.1875 -1.300781 0.1875 -1.4375 C 0.1875 -1.625 0.253906 -1.765625 0.390625 -1.859375 C 0.535156 -1.960938 0.710938 -2.015625 0.921875 -2.015625 Z M 0.921875 -2.015625 "/></g></g></g><g fill="rgb(0.389099%, 95.689392%, 84.309387%)" fill-opacity="1"><g transform="translate(136.010373, 126.342506)"><g><path d="M 1.5 -2.640625 C 1.6875 -2.640625 1.867188 -2.601562 2.046875 -2.53125 C 2.222656 -2.457031 2.375 -2.359375 2.5 -2.234375 L 2.25 -1.90625 C 2.15625 -2.007812 2.039062 -2.09375 1.90625 -2.15625 C 1.78125 -2.21875 1.648438 -2.25 1.515625 -2.25 C 1.253906 -2.25 1.03125 -2.15625 0.84375 -1.96875 C 0.664062 -1.789062 0.578125 -1.570312 0.578125 -1.3125 C 0.578125 -1.0625 0.664062 -0.84375 0.84375 -0.65625 C 1.03125 -0.476562 1.253906 -0.390625 1.515625 -0.390625 C 1.785156 -0.390625 2.03125 -0.492188 2.25 -0.703125 L 2.515625 -0.40625 C 2.378906 -0.28125 2.21875 -0.175781 2.03125 -0.09375 C 1.851562 -0.0195312 1.675781 0.015625 1.5 0.015625 C 1.113281 0.015625 0.785156 -0.109375 0.515625 -0.359375 C 0.253906 -0.617188 0.125 -0.9375 0.125 -1.3125 C 0.125 -1.6875 0.253906 -2 0.515625 -2.25 C 0.785156 -2.507812 1.113281 -2.640625 1.5 -2.640625 Z M 1.5 -2.640625 "/></g></g></g><g fill="rgb(0.389099%, 95.689392%, 84.309387%)" fill-opacity="1"><g transform="translate(138.622288, 126.342506)"><g><path d="M 0.75 -2 L 0.75 -1.59375 C 0.882812 -1.875 1.113281 -2.015625 1.4375 -2.015625 L 1.4375 -1.59375 C 1.238281 -1.601562 1.078125 -1.554688 0.953125 -1.453125 C 0.835938 -1.359375 0.769531 -1.222656 0.75 -1.046875 L 0.75 0 L 0.3125 0 L 0.3125 -2 Z M 0.75 -2 "/></g></g></g><g fill="rgb(0.389099%, 95.689392%, 84.309387%)" fill-opacity="1"><g transform="translate(140.098753, 126.342506)"><g><path d="M 0.34375 -2.75 C 0.394531 -2.800781 0.457031 -2.828125 0.53125 -2.828125 C 0.601562 -2.828125 0.660156 -2.800781 0.703125 -2.75 C 0.753906 -2.707031 0.78125 -2.644531 0.78125 -2.5625 C 0.78125 -2.488281 0.753906 -2.425781 0.703125 -2.375 C 0.660156 -2.332031 0.601562 -2.3125 0.53125 -2.3125 C 0.457031 -2.3125 0.394531 -2.332031 0.34375 -2.375 C 0.300781 -2.425781 0.28125 -2.488281 0.28125 -2.5625 C 0.28125 -2.644531 0.300781 -2.707031 0.34375 -2.75 Z M 0.75 0 L 0.3125 0 L 0.3125 -2 L 0.75 -2 Z M 0.75 0 "/></g></g></g><g fill="rgb(0.389099%, 95.689392%, 84.309387%)" fill-opacity="1"><g transform="translate(141.163004, 126.342506)"><g><path d="M 0.921875 -2.015625 C 1.191406 -2.015625 1.421875 -1.945312 1.609375 -1.8125 L 1.453125 -1.5 C 1.265625 -1.613281 1.070312 -1.671875 0.875 -1.671875 C 0.6875 -1.671875 0.59375 -1.601562 0.59375 -1.46875 C 0.59375 -1.40625 0.628906 -1.351562 0.703125 -1.3125 C 0.773438 -1.269531 0.863281 -1.234375 0.96875 -1.203125 C 1.070312 -1.171875 1.171875 -1.132812 1.265625 -1.09375 C 1.367188 -1.0625 1.457031 -1 1.53125 -0.90625 C 1.601562 -0.820312 1.640625 -0.710938 1.640625 -0.578125 C 1.640625 -0.378906 1.566406 -0.226562 1.421875 -0.125 C 1.273438 -0.03125 1.09375 0.015625 0.875 0.015625 C 0.726562 0.015625 0.582031 -0.00390625 0.4375 -0.046875 C 0.289062 -0.0976562 0.171875 -0.171875 0.078125 -0.265625 L 0.234375 -0.5625 C 0.316406 -0.488281 0.421875 -0.429688 0.546875 -0.390625 C 0.671875 -0.347656 0.789062 -0.328125 0.90625 -0.328125 C 1 -0.328125 1.070312 -0.34375 1.125 -0.375 C 1.1875 -0.40625 1.21875 -0.457031 1.21875 -0.53125 C 1.21875 -0.613281 1.179688 -0.675781 1.109375 -0.71875 C 1.046875 -0.757812 0.960938 -0.789062 0.859375 -0.8125 C 0.753906 -0.84375 0.648438 -0.878906 0.546875 -0.921875 C 0.441406 -0.960938 0.351562 -1.023438 0.28125 -1.109375 C 0.21875 -1.191406 0.1875 -1.300781 0.1875 -1.4375 C 0.1875 -1.625 0.253906 -1.765625 0.390625 -1.859375 C 0.535156 -1.960938 0.710938 -2.015625 0.921875 -2.015625 Z M 0.921875 -2.015625 "/></g></g></g><g fill="rgb(0.389099%, 95.689392%, 84.309387%)" fill-opacity="1"><g transform="translate(142.924266, 126.342506)"><g><path d="M 1.34375 -0.453125 L 1.453125 -0.125 C 1.285156 -0.03125 1.117188 0.015625 0.953125 0.015625 C 0.796875 0.015625 0.660156 -0.03125 0.546875 -0.125 C 0.441406 -0.226562 0.390625 -0.375 0.390625 -0.5625 L 0.390625 -1.59375 L 0.109375 -1.59375 L 0.109375 -1.921875 L 0.390625 -1.921875 L 0.390625 -2.46875 L 0.828125 -2.46875 L 0.828125 -1.921875 L 1.40625 -1.921875 L 1.40625 -1.59375 L 0.828125 -1.59375 L 0.828125 -0.640625 C 0.828125 -0.535156 0.84375 -0.460938 0.875 -0.421875 C 0.914062 -0.390625 0.96875 -0.375 1.03125 -0.375 C 1.113281 -0.375 1.21875 -0.398438 1.34375 -0.453125 Z M 1.34375 -0.453125 "/></g></g></g><g fill="rgb(0.389099%, 95.689392%, 84.309387%)" fill-opacity="1"><g transform="translate(144.449448, 126.342506)"><g><path d="M 1.171875 -2.015625 C 1.484375 -2.015625 1.734375 -1.921875 1.921875 -1.734375 C 2.117188 -1.546875 2.21875 -1.300781 2.21875 -1 C 2.21875 -0.695312 2.117188 -0.453125 1.921875 -0.265625 C 1.734375 -0.078125 1.484375 0.015625 1.171875 0.015625 C 0.859375 0.015625 0.601562 -0.078125 0.40625 -0.265625 C 0.21875 -0.453125 0.125 -0.695312 0.125 -1 C 0.125 -1.300781 0.21875 -1.546875 0.40625 -1.734375 C 0.601562 -1.921875 0.859375 -2.015625 1.171875 -2.015625 Z M 1.171875 -1.640625 C 0.992188 -1.640625 0.847656 -1.578125 0.734375 -1.453125 C 0.617188 -1.335938 0.5625 -1.1875 0.5625 -1 C 0.5625 -0.800781 0.617188 -0.640625 0.734375 -0.515625 C 0.847656 -0.398438 0.992188 -0.34375 1.171875 -0.34375 C 1.347656 -0.34375 1.492188 -0.398438 1.609375 -0.515625 C 1.722656 -0.640625 1.78125 -0.800781 1.78125 -1 C 1.78125 -1.1875 1.722656 -1.335938 1.609375 -1.453125 C 1.492188 -1.578125 1.347656 -1.640625 1.171875 -1.640625 Z M 1.171875 -1.640625 "/></g></g></g><g fill="rgb(0.389099%, 95.689392%, 84.309387%)" fill-opacity="1"><g transform="translate(146.791558, 126.342506)"><g><path d="M 1.46875 -2.015625 C 1.75 -2.015625 1.976562 -1.914062 2.15625 -1.71875 C 2.332031 -1.53125 2.421875 -1.285156 2.421875 -0.984375 C 2.421875 -0.691406 2.332031 -0.453125 2.15625 -0.265625 C 1.988281 -0.078125 1.757812 0.015625 1.46875 0.015625 C 1.15625 0.015625 0.921875 -0.101562 0.765625 -0.34375 L 0.765625 0 L 0.34375 0 L 0.34375 -2.78125 L 0.765625 -2.78125 L 0.765625 -1.65625 C 0.921875 -1.894531 1.15625 -2.015625 1.46875 -2.015625 Z M 0.9375 -0.53125 C 1.050781 -0.414062 1.195312 -0.359375 1.375 -0.359375 C 1.550781 -0.359375 1.695312 -0.414062 1.8125 -0.53125 C 1.925781 -0.65625 1.984375 -0.8125 1.984375 -1 C 1.984375 -1.1875 1.925781 -1.34375 1.8125 -1.46875 C 1.695312 -1.59375 1.550781 -1.65625 1.375 -1.65625 C 1.195312 -1.65625 1.050781 -1.59375 0.9375 -1.46875 C 0.820312 -1.34375 0.765625 -1.1875 0.765625 -1 C 0.765625 -0.8125 0.820312 -0.65625 0.9375 -0.53125 Z M 0.9375 -0.53125 "/></g></g></g><g fill="rgb(0.389099%, 95.689392%, 84.309387%)" fill-opacity="1"><g transform="translate(149.339776, 126.342506)"><g><path d="M 1.515625 0 L 1.515625 -0.25 C 1.367188 -0.0703125 1.148438 0.015625 0.859375 0.015625 C 0.640625 0.015625 0.46875 -0.0390625 0.34375 -0.15625 C 0.21875 -0.269531 0.15625 -0.414062 0.15625 -0.59375 C 0.15625 -0.78125 0.21875 -0.925781 0.34375 -1.03125 C 0.476562 -1.144531 0.664062 -1.203125 0.90625 -1.203125 L 1.515625 -1.203125 L 1.515625 -1.265625 C 1.515625 -1.390625 1.472656 -1.484375 1.390625 -1.546875 C 1.304688 -1.617188 1.1875 -1.65625 1.03125 -1.65625 C 0.84375 -1.65625 0.648438 -1.585938 0.453125 -1.453125 L 0.265625 -1.765625 C 0.421875 -1.847656 0.554688 -1.910156 0.671875 -1.953125 C 0.796875 -1.992188 0.945312 -2.015625 1.125 -2.015625 C 1.382812 -2.015625 1.582031 -1.953125 1.71875 -1.828125 C 1.863281 -1.703125 1.9375 -1.53125 1.9375 -1.3125 L 1.9375 0 Z M 0.9375 -0.328125 C 1.09375 -0.328125 1.222656 -0.359375 1.328125 -0.421875 C 1.441406 -0.492188 1.503906 -0.585938 1.515625 -0.703125 L 1.515625 -0.890625 L 0.96875 -0.890625 C 0.820312 -0.890625 0.71875 -0.867188 0.65625 -0.828125 C 0.59375 -0.785156 0.5625 -0.71875 0.5625 -0.625 C 0.5625 -0.53125 0.59375 -0.457031 0.65625 -0.40625 C 0.726562 -0.351562 0.820312 -0.328125 0.9375 -0.328125 Z M 0.9375 -0.328125 "/></g></g></g><g fill="rgb(0.389099%, 95.689392%, 84.309387%)" fill-opacity="1"><g transform="translate(151.535737, 126.342506)"><g><path d="M 0.765625 0 L 0.34375 0 L 0.34375 -2.78125 L 0.765625 -2.78125 Z M 0.765625 0 "/></g></g></g><g fill="rgb(0.389099%, 95.689392%, 84.309387%)" fill-opacity="1"><g transform="translate(152.638949, 126.342506)"><g/></g></g><g fill="rgb(0.389099%, 95.689392%, 84.309387%)" fill-opacity="1"><g transform="translate(153.605766, 126.342506)"><g/></g></g><g fill="rgb(0.389099%, 95.689392%, 84.309387%)" fill-opacity="1"><g transform="translate(154.571143, 126.342506)"><g><path d="M 2.015625 0 L 1.53125 -0.796875 C 1.507812 -0.796875 1.46875 -0.796875 1.40625 -0.796875 L 0.78125 -0.796875 L 0.78125 0 L 0.34375 0 L 0.34375 -2.625 L 1.40625 -2.625 C 1.738281 -2.625 2 -2.546875 2.1875 -2.390625 C 2.375 -2.234375 2.46875 -2.015625 2.46875 -1.734375 C 2.46875 -1.515625 2.421875 -1.332031 2.328125 -1.1875 C 2.234375 -1.050781 2.097656 -0.945312 1.921875 -0.875 L 2.515625 0 Z M 0.78125 -1.1875 L 1.40625 -1.1875 C 1.832031 -1.1875 2.046875 -1.363281 2.046875 -1.71875 C 2.046875 -2.0625 1.832031 -2.234375 1.40625 -2.234375 L 0.78125 -2.234375 Z M 0.78125 -1.1875 "/></g></g></g><g fill="rgb(0.389099%, 95.689392%, 84.309387%)" fill-opacity="1"><g transform="translate(157.280491, 126.342506)"><g><path d="M 0.34375 -2.75 C 0.394531 -2.800781 0.457031 -2.828125 0.53125 -2.828125 C 0.601562 -2.828125 0.660156 -2.800781 0.703125 -2.75 C 0.753906 -2.707031 0.78125 -2.644531 0.78125 -2.5625 C 0.78125 -2.488281 0.753906 -2.425781 0.703125 -2.375 C 0.660156 -2.332031 0.601562 -2.3125 0.53125 -2.3125 C 0.457031 -2.3125 0.394531 -2.332031 0.34375 -2.375 C 0.300781 -2.425781 0.28125 -2.488281 0.28125 -2.5625 C 0.28125 -2.644531 0.300781 -2.707031 0.34375 -2.75 Z M 0.75 0 L 0.3125 0 L 0.3125 -2 L 0.75 -2 Z M 0.75 0 "/></g></g></g><g fill="rgb(0.389099%, 95.689392%, 84.309387%)" fill-opacity="1"><g transform="translate(158.344741, 126.342506)"><g><path d="M 1.09375 -2.421875 C 1.019531 -2.421875 0.957031 -2.398438 0.90625 -2.359375 C 0.851562 -2.316406 0.828125 -2.25 0.828125 -2.15625 L 0.828125 -1.921875 L 1.34375 -1.921875 L 1.34375 -1.59375 L 0.828125 -1.59375 L 0.828125 0 L 0.40625 0 L 0.40625 -1.59375 L 0.140625 -1.59375 L 0.140625 -1.921875 L 0.40625 -1.921875 L 0.40625 -2.109375 C 0.40625 -2.328125 0.472656 -2.492188 0.609375 -2.609375 C 0.742188 -2.734375 0.90625 -2.796875 1.09375 -2.796875 C 1.257812 -2.796875 1.40625 -2.75 1.53125 -2.65625 L 1.375 -2.328125 C 1.289062 -2.390625 1.195312 -2.421875 1.09375 -2.421875 Z M 1.09375 -2.421875 "/></g></g></g><g fill="rgb(0.389099%, 95.689392%, 84.309387%)" fill-opacity="1"><g transform="translate(159.630092, 126.342506)"><g><path d="M 1.09375 -2.421875 C 1.019531 -2.421875 0.957031 -2.398438 0.90625 -2.359375 C 0.851562 -2.316406 0.828125 -2.25 0.828125 -2.15625 L 0.828125 -1.921875 L 1.34375 -1.921875 L 1.34375 -1.59375 L 0.828125 -1.59375 L 0.828125 0 L 0.40625 0 L 0.40625 -1.59375 L 0.140625 -1.59375 L 0.140625 -1.921875 L 0.40625 -1.921875 L 0.40625 -2.109375 C 0.40625 -2.328125 0.472656 -2.492188 0.609375 -2.609375 C 0.742188 -2.734375 0.90625 -2.796875 1.09375 -2.796875 C 1.257812 -2.796875 1.40625 -2.75 1.53125 -2.65625 L 1.375 -2.328125 C 1.289062 -2.390625 1.195312 -2.421875 1.09375 -2.421875 Z M 1.09375 -2.421875 "/></g></g></g><g fill="rgb(0.389099%, 95.689392%, 84.309387%)" fill-opacity="1"><g transform="translate(160.915442, 126.342506)"><g><path d="M 1.171875 -2.015625 C 1.484375 -2.015625 1.734375 -1.921875 1.921875 -1.734375 C 2.117188 -1.546875 2.21875 -1.300781 2.21875 -1 C 2.21875 -0.695312 2.117188 -0.453125 1.921875 -0.265625 C 1.734375 -0.078125 1.484375 0.015625 1.171875 0.015625 C 0.859375 0.015625 0.601562 -0.078125 0.40625 -0.265625 C 0.21875 -0.453125 0.125 -0.695312 0.125 -1 C 0.125 -1.300781 0.21875 -1.546875 0.40625 -1.734375 C 0.601562 -1.921875 0.859375 -2.015625 1.171875 -2.015625 Z M 1.171875 -1.640625 C 0.992188 -1.640625 0.847656 -1.578125 0.734375 -1.453125 C 0.617188 -1.335938 0.5625 -1.1875 0.5625 -1 C 0.5625 -0.800781 0.617188 -0.640625 0.734375 -0.515625 C 0.847656 -0.398438 0.992188 -0.34375 1.171875 -0.34375 C 1.347656 -0.34375 1.492188 -0.398438 1.609375 -0.515625 C 1.722656 -0.640625 1.78125 -0.800781 1.78125 -1 C 1.78125 -1.1875 1.722656 -1.335938 1.609375 -1.453125 C 1.492188 -1.578125 1.347656 -1.640625 1.171875 -1.640625 Z M 1.171875 -1.640625 "/></g></g></g><g clip-path="url(#id2)"><path fill="rgb(0.389099%, 95.689392%, 84.309387%)" d="M 14.25 13.929688 L 128.167969 13.929688 L 128.167969 127.097656 L 14.25 127.097656 Z M 14.25 13.929688 " fill-opacity="1" fill-rule="nonzero"/></g><g clip-path="url(#id3)"><path fill="rgb(10.978699%, 10.5896%, 8.628845%)" d="M 120.523438 68.003906 C 107.355469 53.332031 89.339844 36.773438 66.484375 18.335938 L 123.703125 18.335938 L 123.703125 123.257812 L 18.777344 123.257812 L 18.777344 66.859375 C 24.152344 42.640625 44.453125 32.4375 55.894531 35.089844 C 56.429688 33.992188 57.035156 32.796875 58.570312 31.351562 C 65.03125 19.75 87.011719 31.976562 79.136719 44.691406 C 83.269531 47.109375 86.199219 54.0625 88.496094 63.878906 C 89.898438 64.035156 90.992188 68.871094 90.484375 70.863281 C 95.0625 69.894531 104.761719 68.421875 120.523438 68.003906 " fill-opacity="1" fill-rule="nonzero"/></g><path fill="rgb(10.978699%, 10.5896%, 8.628845%)" d="M 101.132812 46.445312 L 90.074219 71.195312 L 94.113281 71.371094 L 104.644531 48.027344 L 101.132812 46.445312 " fill-opacity="1" fill-rule="evenodd"/><path fill="rgb(100%, 100%, 100%)" d="M 77.964844 43.441406 C 83.875 29.429688 65.105469 23.449219 59.398438 31.507812 C 65.601562 38.308594 71.789062 42.285156 77.964844 43.441406 " fill-opacity="1" fill-rule="evenodd"/><path fill="rgb(100%, 100%, 100%)" d="M 77.628906 44.816406 C 74.210938 44.328125 70.371094 42.585938 64.796875 38.964844 C 64.855469 43.457031 66.285156 47.84375 71.820312 48.027344 C 77.1875 48.203125 76.457031 49.078125 78.15625 50.335938 C 78.289062 49.210938 78.410156 47.234375 77.628906 44.816406 " fill-opacity="1" fill-rule="evenodd"/><path fill="rgb(100%, 100%, 100%)" d="M 73.097656 50.261719 L 71.871094 55.699219 C 71.066406 56.085938 70.328125 55.984375 69.660156 55.402344 L 68.195312 56.867188 L 67.660156 56.328125 L 65.292969 55.789062 C 65.710938 56.648438 66.558594 57.125 67.835938 57.222656 C 67.960938 58.332031 67.015625 59.042969 64.792969 57.554688 C 64.957031 58.023438 65.425781 58.699219 66.234375 59.042969 C 65.617188 62.332031 62.273438 61.84375 58.585938 55.378906 C 57.316406 52.902344 56.820312 49.558594 57.109375 45.34375 C 53.15625 43.941406 60.691406 31.277344 60.207031 41.144531 L 60.960938 42.792969 C 61.414062 42.058594 62.59375 41.523438 63.628906 41.59375 C 64.144531 43.117188 64.558594 45.042969 66.4375 46.679688 L 65.277344 47.3125 L 68.277344 50.074219 L 70.996094 49.8125 L 70.429688 52.257812 L 71.730469 49.8125 L 73.097656 50.261719 " fill-opacity="1" fill-rule="evenodd"/><path fill="rgb(100%, 100%, 100%)" d="M 55.21875 40.476562 L 52.785156 43.148438 C 51.015625 48.089844 51.375 52.148438 53.859375 55.316406 L 56.484375 53.695312 C 55.421875 51.601562 55.683594 49.621094 56.339844 46.46875 C 55.167969 45.492188 54.796875 43.496094 55.21875 40.476562 " fill-opacity="1" fill-rule="evenodd"/><path fill="rgb(100%, 100%, 100%)" d="M 53.578125 36.082031 C 39.582031 36 24.917969 44.773438 28.039062 63.957031 C 27.679688 73.257812 28.132812 79.277344 29.40625 82.015625 C 28.460938 87.601562 29.246094 91.144531 33.136719 92.246094 C 35.988281 84.722656 40.773438 81.101562 47.488281 81.382812 C 48.433594 79.460938 48.054688 77.933594 46.351562 76.800781 C 44.929688 75.699219 41.863281 76.097656 37.140625 78 C 39.46875 75.527344 42.277344 74.351562 45.566406 74.464844 C 44.683594 73.304688 41.648438 73.613281 36.460938 75.398438 C 42.605469 71.691406 45.570312 68.3125 45.359375 65.257812 C 43.519531 67.496094 40.851562 68.832031 37.347656 69.261719 C 41.542969 66.265625 43.515625 63.859375 43.273438 62.035156 C 45.886719 60.515625 46.285156 56.546875 44.472656 50.121094 C 47.125 54.039062 48.324219 60.589844 48.066406 69.78125 C 49.9375 65.257812 49.953125 61.460938 49.882812 59.089844 C 45.773438 46.140625 48.921875 40.320312 53.578125 36.082031 " fill-opacity="1" fill-rule="evenodd"/><path fill="rgb(100%, 100%, 100%)" d="M 76.414062 78.277344 L 68.941406 77.6875 C 66.144531 77.570312 64.421875 81.398438 62.070312 83.003906 C 59.238281 83.613281 54.4375 83.371094 47.675781 82.277344 C 40.484375 83.46875 36.050781 87.089844 34.363281 93.132812 C 39.222656 94.964844 44.980469 94.214844 57.855469 91.097656 C 66.28125 92.683594 70.941406 90.324219 70.941406 90.324219 L 75.5625 90.226562 C 76.328125 90.148438 76.828125 87.96875 75.933594 87.824219 L 71.84375 87.300781 C 71.453125 87.199219 71.5 86.957031 71.84375 86.832031 L 76.101562 86.910156 C 76.992188 86.828125 77.4375 84.773438 76.265625 84.566406 L 71.882812 84.097656 C 71.605469 83.988281 71.589844 83.757812 71.917969 83.664062 L 76.777344 83.953125 C 77.730469 83.65625 78.054688 81.722656 76.648438 81.578125 L 71.628906 81.144531 C 71.238281 81.144531 71.148438 80.675781 71.628906 80.640625 L 76.308594 80.75 C 77.523438 80.644531 77.730469 78.5625 76.414062 78.277344 " fill-opacity="1" fill-rule="evenodd"/><path fill="rgb(100%, 100%, 100%)" d="M 72.820312 73.867188 L 73.050781 76.707031 L 69.84375 76.808594 L 69.699219 74.640625 C 66.449219 73.332031 65.367188 70.796875 67.203125 66.808594 L 69.109375 70.117188 C 70.410156 70.726562 71.78125 69.84375 71.464844 68.085938 L 70.828125 64 C 74.484375 64.855469 76.175781 69.257812 72.820312 73.867188 " fill-opacity="1" fill-rule="evenodd"/><path fill="rgb(100%, 100%, 100%)" d="M 71.503906 102.039062 L 70.851562 92.121094 L 74.378906 92.878906 L 75.15625 102.324219 C 77.523438 104.351562 78.617188 106.515625 78.445312 108.816406 C 75.855469 105.566406 72.808594 104.445312 69.300781 105.449219 C 69.402344 103.566406 70.136719 102.429688 71.503906 102.039062 " fill-opacity="1" fill-rule="evenodd"/><path fill="rgb(100%, 100%, 100%)" d="M 101.253906 89.742188 C 98.707031 89.6875 97.769531 91.066406 98.445312 93.871094 L 104.308594 97.261719 C 105.277344 98.039062 106.140625 99.292969 106.128906 100.570312 L 106.296875 106.351562 C 107.980469 108.828125 109.828125 109.871094 111.828125 109.484375 L 111.414062 99.738281 C 111.328125 97.605469 110.667969 95.058594 108.59375 93.867188 L 101.253906 89.742188 " fill-opacity="1" fill-rule="evenodd"/><path fill="rgb(100%, 100%, 100%)" d="M 93.183594 76.285156 C 93.183594 73.832031 99.785156 71.847656 107.925781 71.847656 C 116.070312 71.847656 122.667969 73.832031 122.667969 76.285156 C 122.667969 78.734375 116.070312 80.722656 107.925781 80.722656 C 99.785156 80.722656 93.183594 78.734375 93.183594 76.285156 " fill-opacity="1" fill-rule="nonzero"/><path fill="rgb(100%, 100%, 100%)" d="M 93.183594 84.253906 C 93.183594 84.054688 93.226562 83.855469 93.3125 83.664062 C 94.277344 85.835938 100.449219 87.511719 107.925781 87.511719 C 115.402344 87.511719 121.578125 85.835938 122.539062 83.664062 C 122.625 83.855469 122.667969 84.054688 122.667969 84.253906 C 122.667969 86.707031 116.070312 88.695312 107.925781 88.695312 C 99.785156 88.695312 93.183594 86.707031 93.183594 84.253906 " fill-opacity="1" fill-rule="nonzero"/><path fill="rgb(100%, 100%, 100%)" d="M 93.183594 81.765625 L 93.183594 77.601562 C 93.183594 80.050781 99.785156 82.035156 107.925781 82.035156 C 116.070312 82.035156 122.667969 80.050781 122.667969 77.601562 L 122.667969 81.765625 C 122.667969 84.214844 116.070312 86.207031 107.925781 86.207031 C 99.785156 86.207031 93.183594 84.214844 93.183594 81.765625 " fill-opacity="1" fill-rule="nonzero"/><path fill="rgb(10.978699%, 10.5896%, 8.628845%)" d="M 93.964844 78.695312 L 94.617188 78.695312 L 94.617188 83.847656 L 93.964844 83.847656 Z M 93.964844 78.695312 " fill-opacity="1" fill-rule="evenodd"/><path fill="rgb(10.978699%, 10.5896%, 8.628845%)" d="M 95.265625 84.488281 L 95.265625 79.335938 L 95.917969 79.335938 L 95.917969 84.488281 L 95.265625 84.488281 " fill-opacity="1" fill-rule="evenodd"/><path fill="rgb(10.978699%, 10.5896%, 8.628845%)" d="M 96.566406 85.214844 L 96.566406 80.058594 L 97.21875 80.058594 L 97.21875 85.214844 L 96.566406 85.214844 " fill-opacity="1" fill-rule="evenodd"/><path fill="rgb(10.978699%, 10.5896%, 8.628845%)" d="M 97.867188 85.652344 L 97.867188 80.5 L 98.519531 80.5 L 98.519531 85.652344 L 97.867188 85.652344 " fill-opacity="1" fill-rule="evenodd"/><path fill="rgb(10.978699%, 10.5896%, 8.628845%)" d="M 99.167969 85.851562 L 99.167969 80.699219 L 99.820312 80.699219 L 99.820312 85.851562 L 99.167969 85.851562 " fill-opacity="1" fill-rule="evenodd"/><path fill="rgb(10.978699%, 10.5896%, 8.628845%)" d="M 100.46875 86.214844 L 100.46875 81.0625 L 101.121094 81.0625 L 101.121094 86.214844 L 100.46875 86.214844 " fill-opacity="1" fill-rule="evenodd"/><path fill="rgb(10.978699%, 10.5896%, 8.628845%)" d="M 101.769531 86.417969 L 101.769531 81.265625 L 102.421875 81.265625 L 102.421875 86.417969 L 101.769531 86.417969 " fill-opacity="1" fill-rule="evenodd"/><path fill="rgb(10.978699%, 10.5896%, 8.628845%)" d="M 103.070312 86.417969 L 103.070312 81.265625 L 103.722656 81.265625 L 103.722656 86.417969 L 103.070312 86.417969 " fill-opacity="1" fill-rule="evenodd"/><path fill="rgb(10.978699%, 10.5896%, 8.628845%)" d="M 104.371094 86.695312 L 104.371094 81.542969 L 105.023438 81.542969 L 105.023438 86.695312 L 104.371094 86.695312 " fill-opacity="1" fill-rule="evenodd"/><path fill="rgb(10.978699%, 10.5896%, 8.628845%)" d="M 105.671875 86.695312 L 105.671875 81.542969 L 106.324219 81.542969 L 106.324219 86.695312 L 105.671875 86.695312 " fill-opacity="1" fill-rule="evenodd"/><path fill="rgb(10.978699%, 10.5896%, 8.628845%)" d="M 106.972656 86.695312 L 106.972656 81.542969 L 107.625 81.542969 L 107.625 86.695312 L 106.972656 86.695312 " fill-opacity="1" fill-rule="evenodd"/><path fill="rgb(10.978699%, 10.5896%, 8.628845%)" d="M 108.273438 86.496094 L 108.273438 81.34375 L 108.925781 81.34375 L 108.925781 86.496094 L 108.273438 86.496094 " fill-opacity="1" fill-rule="evenodd"/><path fill="rgb(10.978699%, 10.5896%, 8.628845%)" d="M 109.574219 86.496094 L 109.574219 81.34375 L 110.226562 81.34375 L 110.226562 86.496094 L 109.574219 86.496094 " fill-opacity="1" fill-rule="evenodd"/><path fill="rgb(10.978699%, 10.5896%, 8.628845%)" d="M 110.875 86.496094 L 110.875 81.34375 L 111.527344 81.34375 L 111.527344 86.496094 L 110.875 86.496094 " fill-opacity="1" fill-rule="evenodd"/><path fill="rgb(10.978699%, 10.5896%, 8.628845%)" d="M 112.175781 86.496094 L 112.175781 81.34375 L 112.828125 81.34375 L 112.828125 86.496094 L 112.175781 86.496094 " fill-opacity="1" fill-rule="evenodd"/><path fill="rgb(10.978699%, 10.5896%, 8.628845%)" d="M 113.476562 86.175781 L 113.476562 81.023438 L 114.128906 81.023438 L 114.128906 86.175781 L 113.476562 86.175781 " fill-opacity="1" fill-rule="evenodd"/><path fill="rgb(10.978699%, 10.5896%, 8.628845%)" d="M 114.777344 86.175781 L 114.777344 81.023438 L 115.429688 81.023438 L 115.429688 86.175781 L 114.777344 86.175781 " fill-opacity="1" fill-rule="evenodd"/><path fill="rgb(10.978699%, 10.5896%, 8.628845%)" d="M 116.078125 85.691406 L 116.078125 80.539062 L 116.730469 80.539062 L 116.730469 85.691406 L 116.078125 85.691406 " fill-opacity="1" fill-rule="evenodd"/><path fill="rgb(10.978699%, 10.5896%, 8.628845%)" d="M 117.378906 85.691406 L 117.378906 80.539062 L 118.03125 80.539062 L 118.03125 85.691406 L 117.378906 85.691406 " fill-opacity="1" fill-rule="evenodd"/><path fill="rgb(10.978699%, 10.5896%, 8.628845%)" d="M 118.679688 85.132812 L 118.679688 79.980469 L 119.332031 79.980469 L 119.332031 85.132812 L 118.679688 85.132812 " fill-opacity="1" fill-rule="evenodd"/><path fill="rgb(10.978699%, 10.5896%, 8.628845%)" d="M 119.980469 84.652344 L 119.980469 79.5 L 120.632812 79.5 L 120.632812 84.652344 L 119.980469 84.652344 " fill-opacity="1" fill-rule="evenodd"/><path fill="rgb(10.978699%, 10.5896%, 8.628845%)" d="M 121.28125 78.695312 L 121.933594 78.695312 L 121.933594 83.847656 L 121.28125 83.847656 Z M 121.28125 78.695312 " fill-opacity="1" fill-rule="evenodd"/><path fill="rgb(100%, 100%, 100%)" d="M 93.183594 76.285156 C 93.183594 73.832031 99.785156 71.847656 107.925781 71.847656 C 116.070312 71.847656 122.667969 73.832031 122.667969 76.285156 C 122.667969 78.734375 116.070312 80.722656 107.925781 80.722656 C 99.785156 80.722656 93.183594 78.734375 93.183594 76.285156 " fill-opacity="1" fill-rule="nonzero"/><path fill="rgb(10.978699%, 10.5896%, 8.628845%)" d="M 95.5 75.683594 C 95.5 75.5 95.5625 75.316406 95.683594 75.140625 C 96.691406 76.617188 101.753906 77.742188 107.84375 77.742188 C 113.933594 77.742188 118.996094 76.617188 120.003906 75.140625 C 120.128906 75.316406 120.1875 75.5 120.1875 75.683594 C 120.1875 77.417969 114.664062 78.824219 107.84375 78.824219 C 101.027344 78.824219 95.5 77.417969 95.5 75.683594 " fill-opacity="1" fill-rule="nonzero"/><path fill="rgb(10.978699%, 10.5896%, 8.628845%)" d="M 102.675781 73.101562 C 102.675781 72.199219 104.980469 71.46875 107.824219 71.46875 C 110.671875 71.46875 112.976562 72.199219 112.976562 73.101562 C 112.976562 74.003906 110.671875 74.734375 107.824219 74.734375 C 104.980469 74.734375 102.675781 74.003906 102.675781 73.101562 " fill-opacity="1" fill-rule="nonzero"/><path fill="rgb(10.978699%, 10.5896%, 8.628845%)" d="M 104.980469 91.355469 C 103.089844 91.804688 101.722656 93.347656 100.878906 95.980469 C 101.160156 92.820312 102.226562 91.167969 104.082031 91.019531 L 104.980469 91.355469 " fill-opacity="1" fill-rule="evenodd"/><path fill="rgb(10.978699%, 10.5896%, 8.628845%)" d="M 104.417969 92.027344 L 103.015625 92.835938 C 106.160156 93.941406 108.144531 95.089844 108.964844 96.277344 C 108.914062 95.011719 107.398438 93.59375 104.417969 92.027344 " fill-opacity="1" fill-rule="evenodd"/><path fill="rgb(10.978699%, 10.5896%, 8.628845%)" d="M 104.699219 102.160156 L 104.8125 102.492188 C 107.882812 101.421875 110.539062 99.796875 112.703125 97.65625 L 112.460938 97.40625 C 110.332031 99.507812 107.71875 101.109375 104.699219 102.160156 " fill-opacity="1" fill-rule="evenodd"/><path fill="rgb(10.978699%, 10.5896%, 8.628845%)" d="M 104.695312 103.039062 L 104.8125 103.367188 C 107.996094 102.226562 110.652344 100.597656 112.707031 98.53125 L 112.457031 98.285156 C 110.4375 100.316406 107.828125 101.914062 104.695312 103.039062 " fill-opacity="1" fill-rule="evenodd"/><path fill="rgb(10.978699%, 10.5896%, 8.628845%)" d="M 104.691406 103.914062 L 104.816406 104.242188 C 108.101562 103.03125 110.757812 101.402344 112.707031 99.40625 L 112.457031 99.160156 C 110.542969 101.121094 107.933594 102.71875 104.691406 103.914062 " fill-opacity="1" fill-rule="evenodd"/><path fill="rgb(10.978699%, 10.5896%, 8.628845%)" d="M 104.691406 104.789062 L 104.816406 105.117188 C 108.214844 103.832031 110.871094 102.207031 112.710938 100.277344 L 112.453125 100.035156 C 110.652344 101.925781 108.042969 103.523438 104.691406 104.789062 " fill-opacity="1" fill-rule="evenodd"/><path fill="rgb(10.978699%, 10.5896%, 8.628845%)" d="M 104.691406 105.664062 L 104.816406 105.992188 C 108.324219 104.636719 110.980469 103.007812 112.710938 101.152344 L 112.453125 100.914062 C 110.757812 102.730469 108.148438 104.328125 104.691406 105.664062 " fill-opacity="1" fill-rule="evenodd"/><path fill="rgb(10.978699%, 10.5896%, 8.628845%)" d="M 104.691406 106.539062 L 104.820312 106.867188 C 108.433594 105.441406 111.089844 103.8125 112.710938 102.023438 L 112.453125 101.789062 C 110.867188 103.535156 108.253906 105.136719 104.691406 106.539062 " fill-opacity="1" fill-rule="evenodd"/><path fill="rgb(10.978699%, 10.5896%, 8.628845%)" d="M 104.691406 107.414062 L 104.820312 107.738281 C 108.542969 106.246094 111.199219 104.617188 112.714844 102.898438 L 112.449219 102.664062 C 110.972656 104.34375 108.363281 105.941406 104.691406 107.414062 " fill-opacity="1" fill-rule="evenodd"/><path fill="rgb(10.978699%, 10.5896%, 8.628845%)" d="M 104.6875 108.289062 L 104.820312 108.617188 C 108.652344 107.046875 111.308594 105.417969 112.714844 103.773438 L 112.449219 103.542969 C 111.078125 105.148438 108.46875 106.746094 104.6875 108.289062 " fill-opacity="1" fill-rule="evenodd"/><path fill="rgb(10.978699%, 10.5896%, 8.628845%)" d="M 104.6875 109.167969 L 104.820312 109.488281 C 108.765625 107.851562 111.421875 106.222656 112.71875 104.644531 L 112.445312 104.421875 C 111.183594 105.953125 108.574219 107.550781 104.6875 109.167969 " fill-opacity="1" fill-rule="evenodd"/><path fill="rgb(10.978699%, 10.5896%, 8.628845%)" d="M 104.6875 110.042969 L 104.820312 110.363281 C 108.875 108.65625 111.53125 107.023438 112.71875 105.515625 L 112.445312 105.296875 C 111.292969 106.761719 108.683594 108.355469 104.6875 110.042969 " fill-opacity="1" fill-rule="evenodd"/><path fill="rgb(10.978699%, 10.5896%, 8.628845%)" d="M 104.683594 110.917969 L 104.824219 111.238281 C 108.984375 109.460938 111.640625 107.828125 112.722656 106.390625 L 112.441406 106.175781 C 111.398438 107.566406 108.789062 109.160156 104.683594 110.917969 " fill-opacity="1" fill-rule="evenodd"/><path fill="rgb(10.978699%, 10.5896%, 8.628845%)" d="M 104.683594 111.792969 L 104.824219 112.113281 C 109.15625 110.234375 111.738281 108.648438 112.726562 107.257812 L 112.4375 107.058594 C 111.503906 108.371094 108.894531 109.96875 104.683594 111.792969 " fill-opacity="1" fill-rule="evenodd"/><path fill="rgb(10.978699%, 10.5896%, 8.628845%)" d="M 103.832031 97.984375 C 106.808594 99.296875 109.863281 99.917969 112.902344 99.832031 L 112.894531 99.480469 C 109.902344 99.566406 106.90625 98.953125 103.972656 97.664062 L 103.832031 97.984375 " fill-opacity="1" fill-rule="evenodd"/><path fill="rgb(10.978699%, 10.5896%, 8.628845%)" d="M 103.832031 98.722656 C 106.808594 100.035156 109.863281 100.660156 112.902344 100.570312 L 112.894531 100.21875 C 109.902344 100.304688 106.90625 99.695312 103.972656 98.402344 L 103.832031 98.722656 " fill-opacity="1" fill-rule="evenodd"/><path fill="rgb(10.978699%, 10.5896%, 8.628845%)" d="M 103.832031 99.464844 C 106.808594 100.777344 109.863281 101.398438 112.902344 101.308594 L 112.894531 100.957031 C 109.902344 101.046875 106.90625 100.433594 103.972656 99.140625 L 103.832031 99.464844 " fill-opacity="1" fill-rule="evenodd"/><path fill="rgb(10.978699%, 10.5896%, 8.628845%)" d="M 103.832031 100.203125 C 106.808594 101.515625 109.863281 102.136719 112.902344 102.050781 L 112.894531 101.699219 C 109.902344 101.785156 106.90625 101.171875 103.972656 99.882812 L 103.832031 100.203125 " fill-opacity="1" fill-rule="evenodd"/><path fill="rgb(10.978699%, 10.5896%, 8.628845%)" d="M 103.832031 100.941406 C 106.808594 102.253906 109.863281 102.878906 112.902344 102.789062 L 112.894531 102.4375 C 109.902344 102.523438 106.90625 101.914062 103.972656 100.621094 L 103.832031 100.941406 " fill-opacity="1" fill-rule="evenodd"/><path fill="rgb(10.978699%, 10.5896%, 8.628845%)" d="M 103.832031 101.683594 C 106.808594 102.992188 109.863281 103.617188 112.902344 103.527344 L 112.894531 103.175781 C 109.902344 103.261719 106.90625 102.652344 103.972656 101.359375 L 103.832031 101.683594 " fill-opacity="1" fill-rule="evenodd"/><path fill="rgb(10.978699%, 10.5896%, 8.628845%)" d="M 103.832031 102.421875 C 106.808594 103.734375 109.863281 104.355469 112.902344 104.269531 L 112.894531 103.917969 C 109.902344 104.003906 106.90625 103.390625 103.972656 102.101562 L 103.832031 102.421875 " fill-opacity="1" fill-rule="evenodd"/><path fill="rgb(10.978699%, 10.5896%, 8.628845%)" d="M 103.832031 103.160156 C 106.808594 104.472656 109.863281 105.097656 112.902344 105.007812 L 112.894531 104.65625 C 109.902344 104.742188 106.90625 104.132812 103.972656 102.839844 L 103.832031 103.160156 " fill-opacity="1" fill-rule="evenodd"/><path fill="rgb(10.978699%, 10.5896%, 8.628845%)" d="M 103.832031 103.902344 C 106.808594 105.214844 109.863281 105.835938 112.902344 105.746094 L 112.894531 105.398438 C 109.902344 105.480469 106.90625 104.871094 103.972656 103.582031 L 103.832031 103.902344 " fill-opacity="1" fill-rule="evenodd"/><path fill="rgb(10.978699%, 10.5896%, 8.628845%)" d="M 103.832031 104.640625 C 106.808594 105.953125 109.863281 106.574219 112.902344 106.488281 L 112.894531 106.136719 C 109.902344 106.222656 106.90625 105.609375 103.972656 104.320312 L 103.832031 104.640625 " fill-opacity="1" fill-rule="evenodd"/><path fill="rgb(10.978699%, 10.5896%, 8.628845%)" d="M 103.832031 105.382812 C 106.808594 106.695312 109.863281 107.3125 112.902344 107.226562 L 112.894531 106.878906 C 109.902344 106.960938 106.90625 106.351562 103.972656 105.058594 L 103.832031 105.382812 " fill-opacity="1" fill-rule="evenodd"/><path fill="rgb(10.978699%, 10.5896%, 8.628845%)" d="M 103.832031 106.121094 C 106.808594 107.433594 109.863281 108.054688 112.902344 107.96875 L 112.894531 107.617188 C 109.902344 107.703125 106.90625 107.089844 103.972656 105.800781 L 103.832031 106.121094 " fill-opacity="1" fill-rule="evenodd"/><path fill="rgb(10.978699%, 10.5896%, 8.628845%)" d="M 103.832031 106.859375 C 106.808594 108.171875 109.863281 108.792969 112.902344 108.707031 L 112.894531 108.355469 C 109.902344 108.441406 106.90625 107.832031 103.972656 106.539062 L 103.832031 106.859375 " fill-opacity="1" fill-rule="evenodd"/><path fill="rgb(10.978699%, 10.5896%, 8.628845%)" d="M 103.832031 107.601562 C 106.808594 108.910156 109.863281 109.53125 112.902344 109.445312 L 112.894531 109.09375 C 109.902344 109.179688 106.90625 108.570312 103.972656 107.277344 L 103.832031 107.601562 " fill-opacity="1" fill-rule="evenodd"/><path fill="rgb(10.978699%, 10.5896%, 8.628845%)" d="M 104.699219 101.183594 L 104.8125 101.515625 C 107.882812 100.445312 110.539062 98.820312 112.703125 96.679688 L 112.460938 96.429688 C 110.332031 98.53125 107.71875 100.132812 104.699219 101.183594 " fill-opacity="1" fill-rule="evenodd"/><path fill="rgb(10.978699%, 10.5896%, 8.628845%)" d="M 104.378906 100.5 L 104.492188 100.832031 C 107.5625 99.761719 110.21875 98.132812 112.386719 95.996094 L 112.140625 95.746094 C 110.011719 97.847656 107.398438 99.449219 104.378906 100.5 " fill-opacity="1" fill-rule="evenodd"/><path fill="rgb(100%, 100%, 100%)" d="M 89.820312 75.191406 C 91.832031 84.566406 91.902344 87.40625 93.949219 90.960938 L 100.019531 97.871094 L 103.699219 103.824219 L 104.050781 107.855469 C 103.988281 109.1875 102.269531 109.222656 102.089844 107.992188 L 101.746094 104.863281 L 99.125 101.703125 C 98.765625 101.296875 98.632812 101.40625 98.742188 101.832031 L 99.785156 106.109375 L 98.976562 110.707031 C 98.664062 112.203125 96.753906 111.847656 96.976562 110.1875 L 97.375 106.605469 L 96.09375 102.496094 C 95.765625 101.921875 95.410156 102.023438 95.488281 102.613281 L 96.8125 106.605469 L 95.75 111.578125 C 95.363281 112.980469 93.054688 113.019531 93.511719 111.320312 L 94.171875 106.941406 L 92.640625 102.9375 C 92.386719 102.414062 92.074219 102.707031 92.085938 103.121094 L 92.570312 107.503906 L 91.453125 112.632812 C 91.011719 114.285156 88.757812 113.957031 89.300781 112.082031 L 89.859375 107.433594 L 88.726562 103.117188 C 88.167969 102.074219 87.347656 101.746094 87.023438 102.789062 C 86.390625 107.546875 83.714844 108.816406 83.125 107.292969 C 83.949219 105.472656 83.96875 103.445312 84.304688 101.796875 C 85.691406 99.199219 85.949219 95.738281 86.140625 92.21875 C 84.878906 87.289062 81.75 86.160156 79.445312 78.234375 C 81.382812 73.90625 85.097656 73.460938 89.820312 75.191406 " fill-opacity="1" fill-rule="evenodd"/><path fill="rgb(100%, 100%, 100%)" d="M 54.09375 38.027344 C 50.203125 43.429688 48.921875 48.09375 52.234375 54.726562 L 50.128906 56.921875 C 48.152344 48.5625 49.476562 42.265625 54.09375 38.027344 " fill-opacity="1" fill-rule="evenodd"/><path fill="rgb(10.978699%, 10.5896%, 8.628845%)" d="M 58.09375 43.53125 C 58.15625 42.570312 58.460938 41.972656 59.015625 41.75 C 59.347656 40.566406 59.300781 39.652344 58.875 39.011719 C 58.535156 38.808594 58.046875 39.195312 57.398438 40.167969 C 58.03125 39.800781 58.382812 39.765625 58.449219 40.058594 L 58.449219 41.144531 L 57.292969 40.863281 L 58.164062 41.984375 L 57.257812 42.089844 L 58.09375 43.53125 " fill-opacity="1" fill-rule="evenodd"/><path fill="rgb(10.978699%, 10.5896%, 8.628845%)" d="M 60.972656 45.960938 C 61.058594 47.546875 61.398438 49 61.988281 50.3125 C 61.027344 51.011719 60.230469 52.097656 59.605469 53.570312 C 59.574219 51.511719 60.113281 50.378906 61.222656 50.171875 C 60.4375 48.933594 60.355469 47.527344 60.972656 45.960938 " fill-opacity="1" fill-rule="evenodd"/><path fill="rgb(10.978699%, 10.5896%, 8.628845%)" d="M 56.550781 47.257812 C 55.605469 47.699219 54.460938 48.960938 53.117188 51.046875 C 54.488281 49.75 55.667969 48.917969 56.65625 48.558594 L 56.550781 47.257812 " fill-opacity="1" fill-rule="evenodd"/><path fill="rgb(10.978699%, 10.5896%, 8.628845%)" d="M 69.964844 55.082031 C 67.296875 54.492188 67.15625 53.195312 69.042969 52.875 C 67.988281 53.65625 68.296875 54.394531 69.964844 55.082031 " fill-opacity="1" fill-rule="evenodd"/><path fill="rgb(10.978699%, 10.5896%, 8.628845%)" d="M 68.101562 52.769531 L 64.5625 53.214844 L 63.050781 54.832031 L 65.1875 53.570312 L 68.101562 52.769531 " fill-opacity="1" fill-rule="evenodd"/><path fill="rgb(10.978699%, 10.5896%, 8.628845%)" d="M 75.542969 43.699219 C 77.949219 47.234375 77.0625 48.605469 72.878906 47.816406 C 75.878906 47.21875 76.21875 45.636719 73.894531 43.066406 L 75.542969 43.699219 " fill-opacity="1" fill-rule="evenodd"/><path fill="rgb(10.978699%, 10.5896%, 8.628845%)" d="M 36.003906 88.375 C 38.40625 89.769531 43.785156 90.039062 52.144531 89.191406 C 42.921875 91.195312 37.324219 91.355469 35.351562 89.671875 L 36.003906 88.375 " fill-opacity="1" fill-rule="evenodd"/><path fill="rgb(10.978699%, 10.5896%, 8.628845%)" d="M 35.738281 79.875 C 30.527344 78.875 27.617188 81.371094 27.003906 87.363281 C 28.609375 82.675781 31.519531 80.179688 35.738281 79.875 " fill-opacity="1" fill-rule="evenodd"/><path fill="rgb(10.978699%, 10.5896%, 8.628845%)" d="M 40.886719 80.1875 C 34.042969 84.578125 31.203125 88.617188 32.359375 92.296875 C 33.136719 87.933594 35.980469 83.894531 40.886719 80.1875 " fill-opacity="1" fill-rule="evenodd"/><path fill="rgb(100%, 100%, 100%)" d="M 66.929688 106.78125 C 74.089844 106.75 78.539062 109.320312 80.28125 114.492188 C 77.464844 111.1875 73.015625 108.621094 66.929688 106.78125 " fill-opacity="1" fill-rule="evenodd"/><path fill="rgb(100%, 100%, 100%)" d="M 87.628906 110.257812 L 84.136719 111.277344 L 83.523438 115.933594 L 87.40625 114.027344 L 87.628906 110.257812 " fill-opacity="1" fill-rule="evenodd"/><path fill="rgb(100%, 100%, 100%)" d="M 77.578125 103.460938 L 80.21875 105.050781 L 81.105469 111.554688 L 81.625 104.589844 L 78.925781 103.074219 L 77.578125 103.460938 " fill-opacity="1" fill-rule="evenodd"/><path fill="rgb(100%, 100%, 100%)" d="M 66.675781 98.066406 L 56.957031 100.820312 L 58.804688 102.40625 L 69.707031 99.191406 L 66.675781 98.066406 " fill-opacity="1" fill-rule="evenodd"/><path fill="rgb(100%, 100%, 100%)" d="M 118.398438 104.648438 L 118.398438 96.605469 L 115.402344 96.777344 L 115.402344 108.011719 L 118.398438 104.648438 " fill-opacity="1" fill-rule="evenodd"/><path fill="rgb(100%, 100%, 100%)" d="M 119.804688 89.488281 C 117.519531 93.179688 113.648438 93.765625 108.191406 91.257812 C 113.007812 92.035156 116.878906 91.449219 119.804688 89.488281 " fill-opacity="1" fill-rule="evenodd"/><path fill="rgb(100%, 100%, 100%)" d="M 88.8125 72.148438 C 86 68.367188 82.488281 68.519531 78.273438 72.613281 C 82.832031 70.449219 86.34375 70.296875 88.8125 72.148438 " fill-opacity="1" fill-rule="evenodd"/><path fill="rgb(100%, 100%, 100%)" d="M 88.335938 69.1875 C 87.390625 64.90625 84.554688 63.867188 79.832031 66.070312 C 84.519531 65.726562 87.355469 66.765625 88.335938 69.1875 " fill-opacity="1" fill-rule="evenodd"/><path fill="rgb(10.978699%, 10.5896%, 8.628845%)" d="M 66.792969 38.90625 C 68.136719 34.898438 66.59375 31.425781 62.164062 28.484375 C 68.085938 29.574219 69.917969 33.277344 67.664062 39.601562 L 66.792969 38.90625 " fill-opacity="1" fill-rule="evenodd"/><g clip-path="url(#id4)"><path fill="rgb(100%, 100%, 100%)" d="M 72.203125 123.257812 C 64.917969 114.28125 45.886719 101.828125 18.777344 98.1875 L 18.777344 93.148438 C 48.664062 97.828125 69.011719 107.863281 79.824219 123.257812 L 72.203125 123.257812 " fill-opacity="1" fill-rule="nonzero"/></g><g clip-path="url(#id5)"><path fill="rgb(100%, 100%, 100%)" d="M 123.703125 108.246094 L 86.109375 121.777344 L 83.019531 121.636719 L 123.703125 106.125 L 123.703125 108.246094 " fill-opacity="1" fill-rule="nonzero"/></g><path fill="rgb(10.978699%, 10.5896%, 8.628845%)" d="M 72.140625 70.390625 C 71.679688 72.816406 70.613281 73.148438 68.949219 71.378906 C 70.285156 72.152344 71.351562 71.824219 72.140625 70.390625 " fill-opacity="1" fill-rule="evenodd"/><path fill="rgb(10.978699%, 10.5896%, 8.628845%)" d="M 72.988281 92.015625 L 73.871094 101.304688 C 73.582031 101.8125 73.195312 101.960938 72.714844 101.746094 C 73.011719 101.628906 73.175781 101.300781 73.210938 100.765625 L 72.316406 92.058594 L 72.988281 92.015625 " fill-opacity="1" fill-rule="evenodd"/><path fill="rgb(10.978699%, 10.5896%, 8.628845%)" d="M 86.410156 73.785156 C 87.925781 76.417969 89.027344 81.0625 89.726562 87.71875 C 88.570312 81.703125 87.050781 76.867188 85.167969 73.207031 L 86.410156 73.785156 " fill-opacity="1" fill-rule="evenodd"/><path fill="rgb(10.978699%, 10.5896%, 8.628845%)" d="M 39.621094 50.132812 C 35.394531 45.050781 31.160156 46.171875 26.921875 53.484375 C 31.09375 48.101562 35.324219 46.988281 39.621094 50.132812 " fill-opacity="1" fill-rule="evenodd"/><path fill="rgb(100%, 100%, 100%)" d="M 60.046875 60.171875 C 57.949219 60.492188 55.675781 59.921875 53.222656 58.457031 L 55.324219 63.992188 L 60.046875 60.171875 " fill-opacity="1" fill-rule="evenodd"/><path fill="rgb(100%, 100%, 100%)" d="M 78.972656 47.839844 C 81.195312 49.222656 83.25 52.410156 85.136719 57.398438 C 83.554688 51.667969 81.527344 47.988281 79.054688 46.359375 L 78.972656 47.839844 " fill-opacity="1" fill-rule="evenodd"/><path fill="rgb(10.978699%, 10.5896%, 8.628845%)" d="M 103.832031 97.984375 C 106.242188 99.046875 108.699219 98.902344 111.070312 98.757812 L 112.882812 98.671875 L 112.871094 98.320312 L 111.050781 98.410156 C 108.613281 98.554688 106.308594 98.691406 103.972656 97.664062 L 103.832031 97.984375 " fill-opacity="1" fill-rule="evenodd"/><path fill="rgb(10.978699%, 10.5896%, 8.628845%)" d="M 110.929688 97.53125 C 108.734375 98.0625 106.246094 98.664062 103.972656 97.664062 L 103.832031 97.984375 C 106.210938 99.035156 108.761719 98.417969 111.011719 97.875 C 111.613281 97.726562 112.183594 97.589844 112.710938 97.496094 L 112.648438 97.152344 C 112.113281 97.246094 111.539062 97.386719 110.929688 97.53125 " fill-opacity="1" fill-rule="evenodd"/><path fill="rgb(10.978699%, 10.5896%, 8.628845%)" d="M 103.304688 100.195312 L 103.378906 100.539062 C 104.835938 100.222656 106.167969 99.589844 107.699219 98.484375 L 107.492188 98.199219 C 106.003906 99.277344 104.710938 99.890625 103.304688 100.195312 " fill-opacity="1" fill-rule="evenodd"/><path fill="rgb(10.978699%, 10.5896%, 8.628845%)" d="M 109.515625 96.847656 C 108.140625 97.636719 105.746094 98.082031 103.734375 97.195312 L 103.59375 97.515625 C 105.714844 98.453125 108.242188 97.984375 109.6875 97.148438 C 110.605469 96.621094 111.15625 95.933594 111.238281 95.207031 L 110.886719 95.167969 C 110.820312 95.78125 110.332031 96.375 109.515625 96.847656 " fill-opacity="1" fill-rule="evenodd"/><path fill="rgb(10.978699%, 10.5896%, 8.628845%)" d="M 72.066406 76.945312 L 71.910156 73.945312 C 73.597656 69.695312 73.125 66.523438 70.484375 64.429688 C 73.988281 66.230469 74.617188 69.386719 72.371094 73.890625 L 72.605469 76.894531 L 72.066406 76.945312 " fill-opacity="1" fill-rule="evenodd"/></svg>