<svg xmlns="http://www.w3.org/2000/svg" xmlns:xlink="http://www.w3.org/1999/xlink" width="1344" zoomAndPan="magnify" viewBox="0 0 1008 1295.99994" height="1728" preserveAspectRatio="xMidYMid meet" version="1.0"><defs><g/><clipPath id="id1"><path d="M 324 444.230469 L 688.148438 444.230469 L 688.148438 663.226562 L 324 663.226562 Z M 324 444.230469 " clip-rule="nonzero"/></clipPath><clipPath id="id2"><path d="M 284.648438 589 L 318 589 L 318 621 L 284.648438 621 Z M 284.648438 589 " clip-rule="nonzero"/></clipPath><clipPath id="id3"><path d="M 539 679 L 583 679 L 583 717.53125 L 539 717.53125 Z M 539 679 " clip-rule="nonzero"/></clipPath><clipPath id="id4"><path d="M 547 692 L 574 692 L 574 717.53125 L 547 717.53125 Z M 547 692 " clip-rule="nonzero"/></clipPath><clipPath id="id5"><path d="M 545 693 L 573 693 L 573 717.53125 L 545 717.53125 Z M 545 693 " clip-rule="nonzero"/></clipPath></defs><rect x="-100.8" width="1209.6" fill="rgb(100%, 100%, 100%)" y="-129.599994" height="1555.199927" fill-opacity="1"/><rect x="-100.8" width="1209.6" fill="rgb(14.118958%, 14.118958%, 14.118958%)" y="-129.599994" height="1555.199927" fill-opacity="1"/><rect x="-100.8" width="1209.6" fill="rgb(100%, 100%, 100%)" y="-129.599994" height="1555.199927" fill-opacity="1"/><rect x="-100.8" width="1209.6" fill="rgb(14.118958%, 14.118958%, 14.118958%)" y="-129.599994" height="1555.199927" fill-opacity="1"/><path fill="rgb(98.039246%, 73.329163%, 52.159119%)" d="M 459.214844 388.414062 C 460.683594 404.984375 458.234375 443.792969 453.335938 457.046875 C 465.585938 477.402344 485.675781 492.074219 506.253906 492.074219 C 526.835938 492.074219 546.921875 477.402344 559.175781 457.046875 C 554.273438 443.792969 551.824219 404.984375 553.292969 388.414062 L 459.214844 388.414062 " fill-opacity="1" fill-rule="nonzero"/><path fill="rgb(81.17981%, 54.508972%, 31.369019%)" d="M 553.324219 416.136719 C 542.351562 436.699219 526.988281 451.003906 506.253906 451.003906 C 485.523438 451.003906 470.160156 436.699219 459.183594 416.136719 C 459.28125 414.4375 459.359375 412.742188 459.425781 411.085938 C 470.171875 431.605469 485.421875 446.035156 506.253906 446.035156 C 527.089844 446.035156 542.328125 431.605469 553.082031 411.085938 C 553.152344 412.742188 553.226562 414.4375 553.324219 416.136719 " fill-opacity="1" fill-rule="nonzero"/><path fill="rgb(11.369324%, 18.429565%, 43.919373%)" d="M 582.921875 321.160156 C 582.597656 322.886719 577.945312 323.765625 573.503906 322.058594 C 570.964844 321.085938 579.425781 305.242188 579.425781 305.242188 L 582.921875 315.105469 L 582.921875 321.160156 " fill-opacity="1" fill-rule="nonzero"/><path fill="rgb(11.369324%, 18.429565%, 43.919373%)" d="M 429.585938 321.160156 C 429.910156 322.886719 434.5625 323.765625 439.007812 322.058594 C 441.546875 321.085938 433.085938 305.242188 433.085938 305.242188 L 429.585938 315.105469 L 429.585938 321.160156 " fill-opacity="1" fill-rule="nonzero"/><path fill="rgb(98.039246%, 73.329163%, 52.159119%)" d="M 572.148438 332.484375 C 578.734375 321.097656 587.652344 323.785156 584.914062 345.949219 C 583.535156 357.121094 572.179688 388.539062 564.675781 372.988281 C 566.824219 354.03125 572.148438 332.484375 572.148438 332.484375 " fill-opacity="1" fill-rule="nonzero"/><path fill="rgb(98.039246%, 73.329163%, 52.159119%)" d="M 440.363281 332.484375 C 433.773438 321.097656 424.859375 323.785156 427.59375 345.949219 C 428.976562 357.121094 440.332031 388.539062 447.832031 372.988281 C 445.683594 354.03125 440.363281 332.484375 440.363281 332.484375 " fill-opacity="1" fill-rule="nonzero"/><path fill="rgb(98.039246%, 73.329163%, 52.159119%)" d="M 506.253906 446.035156 C 550.992188 446.035156 570.019531 379.4375 574.039062 328.988281 C 576.429688 299.015625 557.792969 253.066406 506.253906 253.066406 C 454.71875 253.066406 436.082031 299.015625 438.46875 328.988281 C 442.488281 379.4375 461.519531 446.035156 506.253906 446.035156 " fill-opacity="1" fill-rule="nonzero"/><path fill="rgb(52.938843%, 35.688782%, 20.388794%)" d="M 560.871094 266.992188 C 557.75 276.351562 556.15625 290.925781 559.058594 298.90625 C 561.960938 306.886719 566.765625 309.96875 566.222656 313.503906 C 565.679688 317.039062 562.414062 324.382812 563.230469 331.730469 C 564.046875 339.074219 567.039062 339.890625 567.3125 347.234375 C 567.582031 354.578125 566.496094 358.386719 567.855469 361.648438 C 570.03125 357.839844 569.488281 346.417969 570.304688 341.519531 C 571.121094 336.625 575.746094 331.457031 577.921875 324.382812 C 580.101562 317.3125 581.1875 310.828125 580.914062 297.5 C 580.644531 284.171875 579.070312 268.007812 572.210938 260.464844 C 569.488281 257.472656 563.410156 259.375 560.871094 266.992188 " fill-opacity="1" fill-rule="nonzero"/><path fill="rgb(52.938843%, 35.688782%, 20.388794%)" d="M 451.636719 266.992188 C 454.757812 276.351562 456.355469 290.925781 453.449219 298.90625 C 450.550781 306.886719 445.742188 309.96875 446.289062 313.503906 C 446.828125 317.039062 450.097656 324.382812 449.28125 331.730469 C 448.464844 339.074219 445.46875 339.890625 445.199219 347.234375 C 444.925781 354.578125 446.011719 358.386719 444.65625 361.648438 C 442.476562 357.839844 443.019531 346.417969 442.203125 341.519531 C 441.390625 336.625 436.765625 331.457031 434.585938 324.382812 C 432.410156 317.3125 431.320312 310.828125 431.59375 297.5 C 431.867188 284.171875 433.441406 268.007812 440.300781 260.464844 C 443.019531 257.472656 449.101562 259.375 451.636719 266.992188 " fill-opacity="1" fill-rule="nonzero"/><path fill="rgb(52.938843%, 35.688782%, 20.388794%)" d="M 565.460938 271.34375 C 560.488281 281.472656 529.816406 301.265625 499.886719 301.265625 C 469.957031 301.265625 447.339844 300.660156 433.1875 284.339844 C 438.085938 267.746094 440.867188 250.640625 456.894531 237.34375 C 469.683594 226.734375 488.996094 224.289062 503.96875 224.289062 C 528.457031 224.289062 546.6875 231.628906 557.570312 240.878906 C 568.457031 250.128906 572.808594 256.382812 565.460938 271.34375 " fill-opacity="1" fill-rule="nonzero"/><g clip-path="url(#id1)"><path fill="rgb(22.349548%, 36.079407%, 85.488892%)" d="M 669.203125 479.4375 C 648.496094 473.386719 587.097656 450.109375 556.277344 444.511719 C 549.140625 460.75 529.46875 472.4375 506.253906 472.4375 C 483.042969 472.4375 463.371094 460.75 456.234375 444.511719 C 425.410156 450.109375 364.015625 473.386719 343.304688 479.4375 C 336.851562 478.339844 324.078125 492.753906 324.355469 537.792969 C 324.46875 557.285156 326.5 607.699219 329.300781 637.367188 C 346.585938 643.097656 365.574219 647.980469 385.863281 651.921875 C 386.347656 652.054688 386.84375 652.132812 387.316406 652.222656 C 423.734375 659.175781 463.882812 663.039062 506.253906 663.039062 C 548.625 663.039062 588.777344 659.167969 624.835938 652.285156 C 625.664062 652.132812 626.160156 652.054688 626.636719 651.960938 C 646.9375 647.980469 665.925781 643.097656 683.207031 637.367188 C 686.011719 607.699219 688.039062 557.285156 688.15625 537.792969 C 688.433594 492.753906 675.660156 478.339844 669.203125 479.4375 " fill-opacity="1" fill-rule="nonzero"/></g><path fill="rgb(17.248535%, 27.059937%, 62.748718%)" d="M 556.277344 444.511719 C 549.140625 460.75 529.46875 472.4375 506.253906 472.4375 C 483.042969 472.4375 463.371094 460.75 456.234375 444.511719 C 452.515625 445.1875 448.335938 446.128906 443.851562 447.261719 C 452.285156 468.683594 477.027344 484.203125 506.253906 484.203125 C 535.480469 484.203125 560.222656 468.683594 568.660156 447.261719 C 564.175781 446.128906 559.992188 445.1875 556.277344 444.511719 " fill-opacity="1" fill-rule="nonzero"/><path fill="rgb(17.248535%, 27.059937%, 62.748718%)" d="M 381.988281 556.15625 C 378.972656 541.917969 373.878906 525.632812 367.742188 515.589844 C 369.050781 519.089844 370.261719 522.59375 371.324219 525.984375 C 376.671875 543.054688 384.511719 575.136719 386.160156 612.347656 C 386.378906 617.304688 387.660156 637.027344 387.671875 652.296875 C 389.300781 652.605469 390.941406 652.910156 392.585938 653.207031 C 392.695312 649.585938 392.726562 646.738281 392.679688 645.242188 C 391.511719 609.269531 385.769531 573.980469 381.988281 556.15625 " fill-opacity="1" fill-rule="nonzero"/><path fill="rgb(17.248535%, 27.059937%, 62.748718%)" d="M 619.832031 645.242188 C 619.785156 646.738281 619.816406 649.585938 619.921875 653.207031 C 621.566406 652.910156 623.210938 652.605469 624.839844 652.296875 C 624.847656 637.027344 626.132812 617.304688 626.347656 612.347656 C 628 575.136719 635.839844 543.054688 641.1875 525.984375 C 642.246094 522.59375 643.457031 519.089844 644.769531 515.589844 C 638.628906 525.632812 633.539062 541.917969 630.519531 556.15625 C 626.742188 573.980469 620.996094 609.269531 619.832031 645.242188 " fill-opacity="1" fill-rule="nonzero"/><path fill="rgb(98.039246%, 73.329163%, 52.159119%)" d="M 685.65625 603.785156 C 684.929688 615.964844 684.117188 627.742188 683.207031 637.34375 C 665.902344 643.097656 646.921875 647.988281 626.667969 651.929688 C 626.167969 652.066406 625.671875 652.109375 625.171875 652.246094 C 624.855469 641.644531 625.488281 628.875 625.894531 620.40625 C 644.746094 617.007812 667.667969 611.03125 685.65625 603.785156 " fill-opacity="1" fill-rule="nonzero"/><path fill="rgb(17.248535%, 27.059937%, 62.748718%)" d="M 685.65625 603.785156 C 685.953125 598.992188 686.230469 593.984375 686.480469 589.019531 C 667.042969 595.269531 646.46875 600.839844 626.71875 605.371094 C 626.582031 607.679688 626.445312 609.988281 626.355469 612.34375 C 626.289062 613.851562 626.121094 616.722656 625.925781 620.398438 C 644.769531 617.003906 667.675781 611.023438 685.65625 603.785156 " fill-opacity="1" fill-rule="nonzero"/><path fill="rgb(98.039246%, 73.329163%, 52.159119%)" d="M 326.855469 603.785156 C 327.578125 615.964844 328.394531 627.742188 329.300781 637.34375 C 346.609375 643.097656 365.589844 647.988281 385.84375 651.929688 C 386.34375 652.066406 386.839844 652.109375 387.339844 652.246094 C 387.65625 641.644531 387.019531 628.875 386.613281 620.40625 C 367.765625 617.007812 344.839844 611.03125 326.855469 603.785156 " fill-opacity="1" fill-rule="nonzero"/><path fill="rgb(17.248535%, 27.059937%, 62.748718%)" d="M 326.855469 603.785156 C 326.558594 598.992188 326.28125 593.984375 326.03125 589.019531 C 345.46875 595.269531 366.039062 600.839844 385.792969 605.371094 C 385.929688 607.679688 386.0625 609.988281 386.15625 612.34375 C 386.222656 613.851562 386.390625 616.722656 386.582031 620.398438 C 367.742188 617.003906 344.832031 611.023438 326.855469 603.785156 " fill-opacity="1" fill-rule="nonzero"/><path fill="rgb(39.219666%, 37.649536%, 41.178894%)" d="M 619.921875 653.195312 C 585.171875 659.492188 546.707031 663.023438 506.25 663.023438 C 485.042969 663.023438 464.429688 662.074219 444.585938 660.261719 C 426.554688 658.585938 409.15625 656.1875 392.574219 653.195312 C 392.710938 649.574219 392.710938 646.722656 392.664062 645.226562 C 392.347656 635.53125 391.710938 625.882812 390.851562 616.648438 L 424.753906 563.050781 C 425.992188 561.09375 428.148438 559.90625 430.464844 559.90625 L 582.03125 559.90625 C 584.34375 559.90625 586.5 561.09375 587.742188 563.050781 L 621.640625 616.648438 C 620.785156 625.882812 620.148438 635.53125 619.832031 645.226562 C 619.785156 646.722656 619.832031 649.574219 619.921875 653.195312 " fill-opacity="1" fill-rule="nonzero"/><path fill="rgb(39.219666%, 37.649536%, 41.178894%)" d="M 553.15625 567.726562 L 581.691406 572.03125 L 599.148438 456.457031 C 599.332031 455.226562 598.585938 454.039062 597.402344 453.664062 C 589.324219 451.121094 581.464844 448.777344 574.226562 446.828125 C 572.773438 446.4375 571.328125 447.417969 571.105469 448.902344 L 553.15625 567.726562 " fill-opacity="1" fill-rule="nonzero"/><path fill="rgb(22.749329%, 20.388794%, 23.919678%)" d="M 593.265625 492.058594 L 565.714844 487.902344 C 565.148438 487.816406 564.761719 487.289062 564.847656 486.726562 L 565.496094 482.414062 C 565.582031 481.851562 566.109375 481.460938 566.675781 481.546875 L 594.222656 485.703125 C 594.785156 485.789062 595.175781 486.316406 595.09375 486.882812 L 594.441406 491.191406 C 594.355469 491.753906 593.828125 492.144531 593.265625 492.058594 " fill-opacity="1" fill-rule="nonzero"/><path fill="rgb(22.749329%, 20.388794%, 23.919678%)" d="M 587.519531 517.550781 L 563.675781 513.949219 C 561.890625 513.679688 560.664062 512.019531 560.933594 510.238281 L 563.242188 494.964844 C 563.511719 493.183594 565.171875 491.957031 566.957031 492.226562 L 590.800781 495.824219 C 592.582031 496.089844 593.8125 497.753906 593.542969 499.535156 L 591.234375 514.8125 C 590.964844 516.59375 589.300781 517.820312 587.519531 517.550781 " fill-opacity="1" fill-rule="nonzero"/><path fill="rgb(39.219666%, 37.649536%, 41.178894%)" d="M 459.355469 567.726562 L 430.820312 572.03125 L 413.363281 456.457031 C 413.175781 455.226562 413.925781 454.039062 415.113281 453.664062 C 423.183594 451.121094 431.042969 448.777344 438.285156 446.828125 C 439.738281 446.4375 441.179688 447.417969 441.40625 448.902344 L 459.355469 567.726562 " fill-opacity="1" fill-rule="nonzero"/><path fill="rgb(22.749329%, 20.388794%, 23.919678%)" d="M 419.246094 492.058594 L 446.796875 487.902344 C 447.359375 487.816406 447.75 487.289062 447.664062 486.726562 L 447.011719 482.414062 C 446.925781 481.851562 446.398438 481.460938 445.835938 481.546875 L 418.285156 485.703125 C 417.722656 485.789062 417.332031 486.316406 417.417969 486.882812 L 418.066406 491.191406 C 418.15625 491.753906 418.683594 492.144531 419.246094 492.058594 " fill-opacity="1" fill-rule="nonzero"/><path fill="rgb(22.749329%, 20.388794%, 23.919678%)" d="M 424.988281 517.550781 L 448.835938 513.949219 C 450.617188 513.679688 451.84375 512.019531 451.574219 510.238281 L 449.269531 494.964844 C 449 493.183594 447.335938 491.957031 445.554688 492.226562 L 421.707031 495.824219 C 419.925781 496.089844 418.699219 497.753906 418.96875 499.535156 L 421.273438 514.8125 C 421.542969 516.59375 423.207031 517.820312 424.988281 517.550781 " fill-opacity="1" fill-rule="nonzero"/><path fill="rgb(26.269531%, 23.919678%, 27.839661%)" d="M 413.578125 590.320312 C 412.808594 589.828125 411.738281 590.050781 411.234375 590.847656 L 407.582031 596.621094 C 407.082031 597.414062 407.320312 598.464844 408.113281 598.964844 C 408.394531 599.144531 408.707031 599.230469 409.023438 599.230469 C 409.582031 599.230469 410.136719 598.949219 410.457031 598.4375 L 414.109375 592.664062 C 414.609375 591.871094 414.371094 590.820312 413.578125 590.320312 Z M 396.878906 627.332031 C 397.820312 627.261719 398.523438 626.449219 398.449219 625.511719 C 398.285156 623.238281 398.101562 620.957031 397.902344 618.683594 C 397.820312 617.75 397.089844 617.082031 396.058594 617.136719 C 395.125 617.222656 394.433594 618.046875 394.511719 618.980469 C 394.714844 621.242188 394.894531 623.5 395.0625 625.765625 C 395.128906 626.652344 395.871094 627.335938 396.753906 627.335938 C 396.796875 627.335938 396.839844 627.335938 396.878906 627.332031 Z M 397.671875 643.242188 C 398.679688 643.203125 399.40625 642.410156 399.371094 641.472656 C 399.277344 639.203125 399.167969 636.921875 399.039062 634.628906 C 398.992188 633.695312 398.226562 632.964844 397.253906 633.023438 C 396.3125 633.078125 395.597656 633.878906 395.648438 634.8125 C 395.769531 637.089844 395.878906 639.359375 395.976562 641.613281 C 396.011719 642.527344 396.765625 643.242188 397.671875 643.242188 Z M 422.101562 576.855469 C 421.324219 576.355469 420.261719 576.585938 419.761719 577.382812 L 416.105469 583.152344 C 415.601562 583.949219 415.835938 584.996094 416.632812 585.496094 C 416.910156 585.675781 417.222656 585.761719 417.539062 585.761719 C 418.101562 585.761719 418.648438 585.480469 418.972656 584.96875 L 422.625 579.199219 C 423.128906 578.40625 422.898438 577.359375 422.101562 576.855469 Z M 461.863281 563.34375 L 455.03125 563.34375 C 454.09375 563.34375 453.332031 564.105469 453.332031 565.042969 C 453.332031 565.980469 454.09375 566.742188 455.03125 566.742188 L 461.863281 566.742188 C 462.800781 566.742188 463.5625 565.980469 463.5625 565.042969 C 463.5625 564.105469 462.800781 563.34375 461.863281 563.34375 Z M 509.683594 563.34375 L 502.851562 563.34375 C 501.914062 563.34375 501.152344 564.105469 501.152344 565.042969 C 501.152344 565.980469 501.914062 566.742188 502.851562 566.742188 L 509.683594 566.742188 C 510.617188 566.742188 511.378906 565.980469 511.378906 565.042969 C 511.378906 564.105469 510.617188 563.34375 509.683594 563.34375 Z M 405.0625 603.789062 C 404.289062 603.292969 403.226562 603.523438 402.71875 604.316406 L 399.066406 610.085938 C 398.5625 610.878906 398.792969 611.925781 399.59375 612.429688 C 399.871094 612.609375 400.183594 612.695312 400.5 612.695312 C 401.0625 612.695312 401.609375 612.414062 401.933594 611.902344 L 405.585938 606.132812 C 406.089844 605.34375 405.855469 604.292969 405.0625 603.789062 Z M 477.804688 563.34375 L 470.972656 563.34375 C 470.035156 563.34375 469.273438 564.105469 469.273438 565.042969 C 469.273438 565.980469 470.035156 566.742188 470.972656 566.742188 L 477.804688 566.742188 C 478.742188 566.742188 479.503906 565.980469 479.503906 565.042969 C 479.503906 564.105469 478.742188 563.34375 477.804688 563.34375 Z M 614.679688 648.988281 C 613.746094 648.988281 612.980469 649.742188 612.976562 650.679688 L 612.972656 654.082031 C 614.144531 654.171875 615.261719 653.988281 616.371094 653.796875 L 616.375 650.691406 C 616.378906 649.753906 615.621094 648.988281 614.679688 648.988281 Z M 445.925781 563.34375 L 439.09375 563.34375 C 438.15625 563.34375 437.394531 564.105469 437.394531 565.042969 C 437.394531 565.980469 438.15625 566.742188 439.09375 566.742188 L 445.925781 566.742188 C 446.863281 566.742188 447.625 565.980469 447.625 565.042969 C 447.625 564.105469 446.863281 563.34375 445.925781 563.34375 Z M 397.820312 648.988281 C 396.878906 648.988281 396.117188 649.75 396.117188 650.683594 L 396.117188 653.796875 C 397.226562 653.988281 398.34375 654.175781 399.460938 654.363281 C 399.515625 654.082031 399.515625 650.683594 399.515625 650.683594 C 399.515625 649.75 398.753906 648.988281 397.820312 648.988281 Z M 584.832031 564.886719 C 584.429688 564.246094 583.808594 563.757812 583.078125 563.515625 C 582.203125 563.214844 581.207031 563.679688 580.90625 564.566406 C 580.613281 565.457031 581.066406 566.402344 581.960938 566.699219 L 585.023438 571.539062 C 585.347656 572.050781 585.894531 572.328125 586.457031 572.328125 C 586.769531 572.328125 587.085938 572.242188 587.363281 572.0625 C 588.160156 571.5625 588.394531 570.511719 587.890625 569.71875 Z M 613.449219 610.121094 L 609.796875 604.347656 C 609.296875 603.546875 608.230469 603.316406 607.453125 603.820312 C 606.660156 604.320312 606.421875 605.371094 606.921875 606.160156 L 610.574219 611.9375 C 610.894531 612.449219 611.453125 612.726562 612.011719 612.726562 C 612.328125 612.726562 612.640625 612.640625 612.917969 612.464844 C 613.710938 611.964844 613.949219 610.914062 613.449219 610.121094 Z M 601.273438 590.882812 C 600.769531 590.082031 599.707031 589.851562 598.933594 590.355469 C 598.132812 590.859375 597.902344 591.90625 598.40625 592.699219 L 602.0625 598.472656 C 602.382812 598.980469 602.933594 599.257812 603.496094 599.257812 C 603.808594 599.257812 604.121094 599.175781 604.402344 599 C 605.199219 598.496094 605.433594 597.449219 604.929688 596.65625 Z M 616.4375 617.179688 C 615.449219 617.125 614.675781 617.789062 614.589844 618.722656 C 614.390625 620.996094 614.210938 623.277344 614.042969 625.546875 C 613.972656 626.484375 614.675781 627.300781 615.613281 627.367188 C 616.621094 627.371094 617.363281 626.691406 617.433594 625.800781 C 617.601562 623.539062 617.78125 621.28125 617.980469 619.019531 C 618.058594 618.085938 617.371094 617.261719 616.4375 617.179688 Z M 429.5 563.484375 C 428.746094 563.714844 428.09375 564.214844 427.65625 564.890625 L 424.621094 569.6875 C 424.121094 570.480469 424.359375 571.53125 425.152344 572.03125 C 425.429688 572.210938 425.746094 572.292969 426.058594 572.292969 C 426.621094 572.292969 427.171875 572.015625 427.5 571.5 L 430.515625 566.730469 C 431.394531 566.445312 431.886719 565.511719 431.621094 564.625 C 431.351562 563.722656 430.390625 563.203125 429.5 563.484375 Z M 615.25 633.066406 C 614.242188 633.023438 613.511719 633.730469 613.457031 634.667969 C 613.328125 636.957031 613.21875 639.242188 613.125 641.511719 C 613.089844 642.449219 613.816406 643.242188 614.753906 643.28125 C 615.734375 643.28125 616.484375 642.566406 616.523438 641.652344 C 616.617188 639.398438 616.71875 637.128906 616.847656 634.859375 C 616.898438 633.921875 616.183594 633.121094 615.25 633.066406 Z M 541.5625 563.34375 L 534.730469 563.34375 C 533.789062 563.34375 533.03125 564.105469 533.03125 565.042969 C 533.03125 565.980469 533.789062 566.742188 534.730469 566.742188 L 541.5625 566.742188 C 542.496094 566.742188 543.257812 565.980469 543.257812 565.042969 C 543.257812 564.105469 542.496094 563.34375 541.5625 563.34375 Z M 493.738281 563.34375 L 486.90625 563.34375 C 485.972656 563.34375 485.210938 564.105469 485.210938 565.042969 C 485.210938 565.980469 485.972656 566.742188 486.90625 566.742188 L 493.738281 566.742188 C 494.679688 566.742188 495.441406 565.980469 495.441406 565.042969 C 495.441406 564.105469 494.679688 563.34375 493.738281 563.34375 Z M 592.761719 577.414062 C 592.246094 576.617188 591.1875 576.390625 590.417969 576.890625 C 589.625 577.390625 589.386719 578.441406 589.886719 579.234375 L 593.535156 585.003906 C 593.863281 585.515625 594.410156 585.792969 594.972656 585.792969 C 595.285156 585.792969 595.601562 585.707031 595.878906 585.53125 C 596.671875 585.027344 596.910156 583.976562 596.414062 583.1875 Z M 525.621094 563.34375 L 518.789062 563.34375 C 517.851562 563.34375 517.089844 564.105469 517.089844 565.042969 C 517.089844 565.980469 517.851562 566.742188 518.789062 566.742188 L 525.621094 566.742188 C 526.558594 566.742188 527.320312 565.980469 527.320312 565.042969 C 527.320312 564.105469 526.558594 563.34375 525.621094 563.34375 Z M 557.5 563.34375 L 550.667969 563.34375 C 549.726562 563.34375 548.964844 564.105469 548.964844 565.042969 C 548.964844 565.980469 549.726562 566.742188 550.667969 566.742188 L 557.5 566.742188 C 558.4375 566.742188 559.195312 565.980469 559.195312 565.042969 C 559.195312 564.105469 558.4375 563.34375 557.5 563.34375 Z M 573.4375 563.34375 L 566.609375 563.34375 C 565.667969 563.34375 564.90625 564.105469 564.90625 565.042969 C 564.90625 565.980469 565.667969 566.742188 566.609375 566.742188 L 573.4375 566.742188 C 574.375 566.742188 575.136719 565.980469 575.136719 565.042969 C 575.136719 564.105469 574.375 563.34375 573.4375 563.34375 " fill-opacity="1" fill-rule="nonzero"/><path fill="rgb(64.309692%, 64.309692%, 64.309692%)" d="M 512.082031 644.757812 L 520.195312 632.238281 L 377.742188 539.9375 C 360.984375 529.082031 338.515625 533.875 327.65625 550.628906 L 308.632812 579.96875 L 321.15625 588.082031 L 340.175781 558.742188 C 346.5625 548.894531 359.773438 546.074219 369.628906 552.460938 L 512.082031 644.757812 " fill-opacity="1" fill-rule="nonzero"/><path fill="rgb(85.879517%, 85.879517%, 85.879517%)" d="M 314.375 583.6875 L 311.242188 581.65625 L 330.898438 551.34375 C 340.546875 536.457031 361.183594 531.972656 375.964844 541.546875 L 517.238281 633.082031 L 515.207031 636.214844 L 373.9375 544.675781 C 360.851562 536.203125 342.578125 540.183594 334.023438 553.375 L 314.375 583.6875 " fill-opacity="1" fill-rule="nonzero"/><path fill="rgb(43.139648%, 43.139648%, 43.139648%)" d="M 338.691406 557.035156 L 319.332031 586.898438 L 316.199219 584.871094 L 335.5625 555.007812 C 344.378906 541.40625 358.800781 538.761719 373.203125 548.089844 L 513.433594 638.949219 L 511.40625 642.078125 L 371.171875 551.222656 C 358.515625 543.019531 346.371094 545.191406 338.691406 557.035156 " fill-opacity="1" fill-rule="nonzero"/><path fill="rgb(61.959839%, 61.959839%, 61.959839%)" d="M 308.632812 579.96875 L 295.757812 589.582031 L 317.6875 603.789062 L 321.15625 588.082031 L 308.632812 579.96875 " fill-opacity="1" fill-rule="nonzero"/><g clip-path="url(#id2)"><path fill="rgb(64.309692%, 64.309692%, 64.309692%)" d="M 284.648438 606.707031 L 306.582031 620.921875 L 317.6875 603.789062 L 295.757812 589.582031 L 284.648438 606.707031 " fill-opacity="1" fill-rule="nonzero"/></g><path fill="rgb(43.139648%, 43.139648%, 43.139648%)" d="M 300.109375 614.96875 L 305.863281 618.699219 L 316.167969 602.804688 L 310.410156 599.078125 L 300.109375 614.96875 " fill-opacity="1" fill-rule="nonzero"/><path fill="rgb(85.879517%, 85.879517%, 85.879517%)" d="M 286.96875 606.457031 L 292.726562 610.1875 L 303.03125 594.292969 L 297.273438 590.5625 L 286.96875 606.457031 " fill-opacity="1" fill-rule="nonzero"/><path fill="rgb(43.139648%, 43.139648%, 43.139648%)" d="M 319.332031 586.898438 L 316.167969 602.804688 L 303.03125 594.292969 L 316.199219 584.871094 L 319.332031 586.898438 " fill-opacity="1" fill-rule="nonzero"/><path fill="rgb(85.879517%, 85.879517%, 85.879517%)" d="M 300.453125 592.625 L 314.375 583.6875 L 311.242188 581.65625 L 297.273438 590.5625 L 300.453125 592.625 " fill-opacity="1" fill-rule="nonzero"/><path fill="rgb(26.269531%, 23.919678%, 27.839661%)" d="M 506.25 663.023438 C 524.351562 663.023438 542.027344 662.28125 559.175781 660.9375 L 559.175781 597.558594 L 453.335938 597.558594 L 453.335938 660.957031 C 470.480469 662.292969 488.128906 663.023438 506.25 663.023438 " fill-opacity="1" fill-rule="nonzero"/><path fill="rgb(39.219666%, 37.649536%, 41.178894%)" d="M 549.242188 627.5625 C 548.304688 627.5625 547.542969 628.324219 547.542969 629.257812 L 547.542969 636.050781 C 547.542969 636.992188 548.304688 637.753906 549.242188 637.753906 C 550.179688 637.753906 550.941406 636.992188 550.941406 636.050781 L 550.941406 629.257812 C 550.941406 628.324219 550.179688 627.5625 549.242188 627.5625 Z M 549.242188 643.414062 C 548.304688 643.414062 547.542969 644.175781 547.542969 645.113281 L 547.542969 651.90625 C 547.542969 652.84375 548.304688 653.605469 549.242188 653.605469 C 550.179688 653.605469 550.941406 652.84375 550.941406 651.90625 L 550.941406 645.113281 C 550.941406 644.175781 550.179688 643.414062 549.242188 643.414062 Z M 549.242188 595.855469 C 548.304688 595.855469 547.542969 596.617188 547.542969 597.558594 L 547.542969 604.347656 C 547.542969 605.285156 548.304688 606.046875 549.242188 606.046875 C 550.179688 606.046875 550.941406 605.285156 550.941406 604.347656 L 550.941406 597.558594 C 550.941406 596.617188 550.179688 595.855469 549.242188 595.855469 Z M 549.242188 659.265625 C 548.304688 659.265625 547.542969 660.027344 547.542969 660.964844 L 547.542969 661.753906 C 548.671875 661.6875 549.816406 661.640625 550.941406 661.566406 L 550.941406 660.964844 C 550.941406 660.027344 550.179688 659.265625 549.242188 659.265625 Z M 549.242188 611.707031 C 548.304688 611.707031 547.542969 612.46875 547.542969 613.40625 L 547.542969 620.203125 C 547.542969 621.140625 548.304688 621.902344 549.242188 621.902344 C 550.179688 621.902344 550.941406 621.140625 550.941406 620.203125 L 550.941406 613.40625 C 550.941406 612.46875 550.179688 611.707031 549.242188 611.707031 Z M 463.265625 627.5625 C 462.328125 627.5625 461.566406 628.324219 461.566406 629.257812 L 461.566406 636.050781 C 461.566406 636.992188 462.328125 637.753906 463.265625 637.753906 C 464.203125 637.753906 464.964844 636.992188 464.964844 636.050781 L 464.964844 629.257812 C 464.964844 628.324219 464.203125 627.5625 463.265625 627.5625 Z M 463.265625 611.707031 C 462.328125 611.707031 461.566406 612.46875 461.566406 613.40625 L 461.566406 620.203125 C 461.566406 621.140625 462.328125 621.902344 463.265625 621.902344 C 464.203125 621.902344 464.964844 621.140625 464.964844 620.203125 L 464.964844 613.40625 C 464.964844 612.46875 464.203125 611.707031 463.265625 611.707031 Z M 463.265625 643.414062 C 462.328125 643.414062 461.566406 644.175781 461.566406 645.113281 L 461.566406 651.90625 C 461.566406 652.84375 462.328125 653.605469 463.265625 653.605469 C 464.203125 653.605469 464.964844 652.84375 464.964844 651.90625 L 464.964844 645.113281 C 464.964844 644.175781 464.203125 643.414062 463.265625 643.414062 Z M 463.265625 659.265625 C 462.328125 659.265625 461.566406 660.027344 461.566406 660.964844 L 461.566406 661.570312 C 462.691406 661.640625 463.832031 661.695312 464.964844 661.761719 L 464.964844 660.964844 C 464.964844 660.027344 464.203125 659.265625 463.265625 659.265625 Z M 463.265625 595.855469 C 462.328125 595.855469 461.566406 596.617188 461.566406 597.558594 L 461.566406 604.347656 C 461.566406 605.285156 462.328125 606.046875 463.265625 606.046875 C 464.203125 606.046875 464.964844 605.285156 464.964844 604.347656 L 464.964844 597.558594 C 464.964844 596.617188 464.203125 595.855469 463.265625 595.855469 " fill-opacity="1" fill-rule="nonzero"/><path fill="rgb(22.749329%, 20.388794%, 23.919678%)" d="M 557.75 615.105469 L 454.757812 615.105469 C 450.148438 615.105469 446.414062 611.371094 446.414062 606.765625 L 446.414062 571.703125 L 566.097656 571.703125 L 566.097656 606.765625 C 566.097656 611.371094 562.359375 615.105469 557.75 615.105469 " fill-opacity="1" fill-rule="nonzero"/><path fill="rgb(45.098877%, 29.019165%, 14.509583%)" d="M 436.816406 304.070312 C 434.78125 306.359375 433.164062 308.761719 431.960938 311.253906 C 432.03125 312.019531 432.105469 312.769531 432.199219 313.488281 C 433.378906 311.171875 434.914062 308.933594 436.816406 306.800781 C 438.988281 309.765625 441.945312 312.402344 446.363281 313.859375 C 446.167969 312.742188 446.339844 311.992188 446.648438 311.21875 C 442.070312 309.78125 439.03125 307.101562 436.816406 304.070312 Z M 575.6875 304.066406 C 573.472656 307.101562 570.453125 309.804688 565.871094 311.242188 C 566.171875 312.007812 566.339844 312.75 566.222656 313.503906 C 570.574219 312.433594 573.511719 309.773438 575.6875 306.792969 C 577.589844 308.929688 579.132812 311.167969 580.3125 313.488281 C 580.398438 312.769531 580.476562 312.019531 580.550781 311.253906 C 579.34375 308.761719 577.726562 306.351562 575.6875 304.066406 " fill-opacity="1" fill-rule="nonzero"/><path fill="rgb(81.17981%, 54.508972%, 31.369019%)" d="M 565.871094 311.242188 C 561.519531 312.605469 555.757812 312.828125 547.890625 311.070312 L 542.070312 309.761719 C 525.183594 305.957031 520.085938 304.808594 506.253906 304.808594 C 492.421875 304.808594 487.324219 305.957031 470.433594 309.761719 L 464.613281 311.070312 C 460.695312 311.945312 457.296875 312.332031 454.335938 312.332031 C 451.34375 312.332031 448.832031 311.90625 446.648438 311.21875 C 446.339844 311.992188 446.167969 312.742188 446.285156 313.503906 C 448.609375 314.601562 451.214844 315.058594 454.335938 315.058594 C 457.296875 315.058594 460.695312 314.671875 464.613281 313.796875 L 470.433594 312.488281 C 487.324219 308.683594 492.421875 307.53125 506.253906 307.53125 C 520.085938 307.53125 525.183594 308.683594 542.070312 312.488281 L 547.890625 313.796875 C 555.917969 315.589844 561.761719 315.332031 566.140625 313.894531 C 566.339844 312.75 566.171875 312.007812 565.871094 311.242188 " fill-opacity="1" fill-rule="nonzero"/><path fill="rgb(33.329773%, 45.489502%, 94.898987%)" d="M 506.253906 280.859375 C 476.460938 280.859375 450.699219 289.808594 438.007812 302.859375 C 442.0625 308.511719 448.875 312.929688 464.238281 309.492188 C 485.957031 304.640625 490.738281 303.1875 506.253906 303.1875 C 521.769531 303.1875 526.550781 304.640625 548.273438 309.492188 C 563.636719 312.929688 570.449219 308.511719 574.5 302.859375 C 561.808594 289.808594 536.046875 280.859375 506.253906 280.859375 " fill-opacity="1" fill-rule="nonzero"/><path fill="rgb(45.098877%, 61.569214%, 87.838745%)" d="M 454.335938 312.332031 C 440.316406 312.332031 436.050781 303.660156 432.78125 297.015625 L 432.460938 296.375 L 435.5 294.980469 L 435.816406 295.628906 C 439.671875 303.464844 444.085938 312.332031 463.851562 307.917969 L 469.671875 306.609375 C 486.851562 302.738281 492.035156 301.570312 506.253906 301.570312 C 520.472656 301.570312 525.65625 302.738281 542.835938 306.609375 L 548.65625 307.917969 C 568.445312 312.339844 572.835938 303.464844 576.6875 295.632812 L 577.007812 294.980469 L 580.042969 296.375 L 579.726562 297.015625 C 575.765625 305.0625 570.347656 316.089844 547.890625 311.070312 L 542.070312 309.761719 C 525.183594 305.957031 520.085938 304.808594 506.253906 304.808594 C 492.421875 304.808594 487.324219 305.957031 470.433594 309.761719 L 464.613281 311.070312 C 460.695312 311.945312 457.296875 312.332031 454.335938 312.332031 " fill-opacity="1" fill-rule="nonzero"/><path fill="rgb(22.349548%, 36.079407%, 85.488892%)" d="M 566.277344 243.726562 C 556.191406 232.875 522.394531 219.066406 506.253906 219.558594 C 490.113281 219.066406 456.320312 232.875 446.234375 243.726562 C 436.144531 254.578125 425.554688 300.9375 429.585938 321.160156 C 429.585938 298.902344 463.910156 280.859375 506.253906 280.859375 C 548.597656 280.859375 582.921875 298.902344 582.921875 321.160156 C 586.957031 300.9375 576.363281 254.578125 566.277344 243.726562 " fill-opacity="1" fill-rule="nonzero"/><path fill="rgb(92.158508%, 66.268921%, 44.309998%)" d="M 600.222656 594.675781 C 597.25 595.210938 591.292969 596.851562 585.644531 596.117188 C 585.347656 596.105469 585.023438 596.089844 584.671875 596.074219 C 583.96875 596.039062 583.171875 595.996094 582.324219 595.933594 C 581.902344 595.902344 581.464844 595.867188 581.023438 595.828125 C 579.257812 595.664062 577.394531 595.40625 575.808594 594.996094 C 578.179688 593.339844 580.734375 592.515625 584.144531 591.253906 C 586.945312 590.21875 592.824219 588.457031 596.027344 587.339844 C 599.105469 586.265625 601.867188 586.109375 604.269531 587.589844 C 606.226562 588.792969 608.4375 591.347656 609.632812 592.765625 C 606.265625 593.121094 602.4375 594.277344 600.222656 594.675781 " fill-opacity="1" fill-rule="nonzero"/><g clip-path="url(#id3)"><path fill="rgb(70.199585%, 70.199585%, 70.199585%)" d="M 580.839844 688.730469 C 581.324219 689.773438 581.738281 690.839844 581.882812 691.433594 C 582.613281 694.4375 582.5625 698.105469 580.675781 703.570312 C 580.574219 703.863281 580.207031 704.714844 580.207031 704.714844 C 578.707031 708.394531 576.792969 711.914062 574.328125 715.03125 C 573.59375 715.960938 572.777344 716.800781 571.988281 717.265625 L 572.507812 704.464844 C 572.742188 698.671875 568.210938 693.757812 562.414062 693.523438 L 556.777344 693.296875 C 552.269531 693.117188 548.148438 695.824219 546.527344 700.027344 C 546.113281 701.101562 545.882812 702.238281 545.835938 703.394531 L 545.324219 716.003906 L 543.863281 713.058594 C 542.089844 709.503906 540.789062 705.726562 540.003906 701.828125 L 539.757812 700.621094 C 539.226562 698 539.148438 695.300781 539.523438 692.648438 L 539.609375 692.039062 C 539.792969 690.726562 540.1875 689.464844 540.765625 688.289062 C 541.144531 687.511719 541.625 686.789062 542.171875 686.117188 C 549.761719 680.714844 555.460938 679.390625 561.507812 680.066406 C 568.574219 680.863281 574.171875 683.429688 580.839844 688.730469 " fill-opacity="1" fill-rule="nonzero"/></g><path fill="rgb(85.879517%, 85.879517%, 85.879517%)" d="M 561.507812 680.066406 C 555.460938 679.390625 549.761719 680.714844 542.179688 686.109375 C 541.625 686.789062 541.144531 687.511719 540.765625 688.289062 C 540.1875 689.464844 539.792969 690.726562 539.609375 692.039062 L 539.523438 692.648438 C 539.148438 695.300781 539.226562 698 539.757812 700.621094 L 540.003906 701.828125 C 540.789062 705.726562 542.089844 709.503906 543.863281 713.058594 L 545.324219 716.003906 C 543.621094 712.273438 542.351562 708.484375 541.574219 704.574219 L 541.324219 703.292969 C 540.773438 700.519531 540.703125 697.671875 541.105469 694.863281 L 541.199219 694.21875 C 541.398438 692.828125 541.832031 691.492188 542.429688 690.242188 C 542.855469 689.339844 543.402344 688.519531 543.921875 687.933594 C 548.765625 682.476562 557.929688 680.484375 564.246094 681.464844 C 567.507812 681.976562 570.507812 682.5625 573.410156 683.746094 C 569.605469 681.710938 565.832031 680.554688 561.507812 680.066406 " fill-opacity="1" fill-rule="nonzero"/><g clip-path="url(#id4)"><path fill="rgb(58.039856%, 58.039856%, 58.039856%)" d="M 573.5625 703.804688 C 573.769531 697.949219 569.121094 692.96875 563.195312 692.703125 L 557.441406 692.441406 C 553.183594 692.25 549.285156 694.550781 547.425781 698.242188 C 548.160156 697.066406 549.109375 696.066406 550.214844 695.273438 C 550.636719 694.972656 551.003906 694.738281 551.394531 694.535156 C 551.828125 694.308594 552.226562 694.125 552.640625 693.96875 C 553.054688 693.8125 553.457031 693.691406 553.871094 693.59375 C 554.464844 693.457031 554.867188 693.390625 555.277344 693.347656 C 555.914062 693.296875 556.34375 693.277344 556.777344 693.296875 L 562.414062 693.523438 C 568.210938 693.757812 572.742188 698.671875 572.507812 704.464844 L 571.988281 717.265625 C 572.363281 717.046875 572.742188 716.738281 573.117188 716.378906 L 573.5625 703.804688 " fill-opacity="1" fill-rule="nonzero"/></g><path fill="rgb(70.199585%, 70.199585%, 70.199585%)" d="M 591.253906 553.238281 C 590.773438 552.191406 590.359375 551.128906 590.210938 550.535156 C 589.484375 547.53125 589.53125 543.867188 591.421875 538.398438 C 591.523438 538.105469 591.890625 537.25 591.890625 537.25 C 593.386719 533.574219 595.300781 530.058594 597.769531 526.9375 C 598.5 526.007812 599.316406 525.167969 600.105469 524.703125 L 599.585938 537.503906 C 599.355469 543.300781 603.882812 548.210938 609.683594 548.445312 L 615.316406 548.671875 C 619.824219 548.851562 623.945312 546.148438 625.566406 541.941406 C 625.980469 540.863281 626.214844 539.730469 626.261719 538.574219 L 626.769531 525.964844 L 628.234375 528.910156 C 630.003906 532.46875 631.304688 536.242188 632.09375 540.140625 L 632.339844 541.351562 C 632.871094 543.972656 632.949219 546.664062 632.574219 549.316406 L 632.488281 549.925781 C 632.300781 551.242188 631.90625 552.507812 631.328125 553.679688 C 630.949219 554.460938 630.472656 555.179688 629.921875 555.847656 C 622.335938 561.25 616.632812 562.578125 610.589844 561.898438 C 603.519531 561.101562 597.925781 558.535156 591.253906 553.238281 " fill-opacity="1" fill-rule="nonzero"/><path fill="rgb(64.309692%, 64.309692%, 64.309692%)" d="M 610.589844 561.898438 C 603.519531 561.101562 597.925781 558.535156 591.253906 553.238281 C 591.484375 553.75 591.730469 554.25 591.964844 554.699219 C 592.898438 556.484375 593.597656 558.265625 594.324219 560.28125 C 594.527344 560.839844 594.746094 561.59375 594.972656 562.449219 C 596.230469 567.128906 595.945312 572.097656 594.203125 576.617188 L 560.554688 663.867188 C 559.417969 666.8125 557.933594 669.617188 556.128906 672.210938 L 553.582031 675.882812 C 552.5 677.265625 551.261719 678.519531 549.886719 679.617188 L 544.171875 684.160156 C 543.441406 684.738281 542.769531 685.390625 542.179688 686.109375 C 549.761719 680.714844 555.460938 679.390625 561.507812 680.066406 C 568.574219 680.863281 574.171875 683.429688 580.839844 688.730469 C 580.613281 688.222656 580.363281 687.722656 580.128906 687.273438 C 579.195312 685.484375 578.496094 683.703125 577.773438 681.6875 C 577.570312 681.128906 577.351562 680.375 577.121094 679.519531 C 575.867188 674.839844 576.148438 669.871094 577.894531 665.347656 L 611.539062 578.105469 C 612.675781 575.15625 614.164062 572.351562 615.964844 569.753906 L 618.515625 566.089844 C 619.597656 564.707031 620.835938 563.445312 622.210938 562.351562 L 627.925781 557.804688 C 628.652344 557.230469 629.324219 556.578125 629.914062 555.855469 C 622.335938 561.25 616.632812 562.578125 610.589844 561.898438 " fill-opacity="1" fill-rule="nonzero"/><path fill="rgb(58.039856%, 58.039856%, 58.039856%)" d="M 610.164062 565.609375 C 613.210938 565.953125 616.1875 565.859375 619.285156 565.15625 C 620.175781 564.136719 621.152344 563.195312 622.210938 562.351562 L 627.925781 557.804688 C 628.652344 557.230469 629.324219 556.578125 629.914062 555.855469 C 622.335938 561.25 616.632812 562.578125 610.589844 561.898438 C 603.519531 561.101562 597.925781 558.535156 591.253906 553.238281 C 591.484375 553.75 591.730469 554.25 591.964844 554.699219 C 592.898438 556.484375 593.597656 558.265625 594.324219 560.28125 C 599.433594 563.3125 604.382812 564.957031 610.164062 565.609375 " fill-opacity="1" fill-rule="nonzero"/><path fill="rgb(58.039856%, 58.039856%, 58.039856%)" d="M 561.933594 676.359375 C 558.886719 676.015625 555.910156 676.113281 552.808594 676.8125 C 551.917969 677.832031 550.945312 678.773438 549.886719 679.617188 L 544.171875 684.160156 C 543.441406 684.738281 542.769531 685.390625 542.179688 686.109375 C 549.761719 680.714844 555.460938 679.390625 561.507812 680.066406 C 568.574219 680.863281 574.171875 683.429688 580.839844 688.730469 C 580.613281 688.222656 580.363281 687.722656 580.128906 687.273438 C 579.195312 685.484375 578.496094 683.703125 577.773438 681.6875 C 572.660156 678.65625 567.710938 677.007812 561.933594 676.359375 " fill-opacity="1" fill-rule="nonzero"/><path fill="rgb(70.199585%, 70.199585%, 70.199585%)" d="M 608.234375 575.289062 L 571.808594 669.742188 C 570.960938 671.933594 568.496094 673.027344 566.304688 672.183594 C 564.109375 671.335938 563.011719 668.871094 563.859375 666.675781 L 600.285156 572.226562 C 601.132812 570.03125 603.597656 568.941406 605.792969 569.785156 C 607.988281 570.632812 609.082031 573.097656 608.234375 575.289062 " fill-opacity="1" fill-rule="nonzero"/><path fill="rgb(58.039856%, 58.039856%, 58.039856%)" d="M 580.3125 641.183594 L 583.894531 631.902344 L 580.902344 630.75 L 577.324219 640.03125 Z M 590.820312 605.039062 L 593.804688 606.191406 L 595.363281 602.164062 L 592.371094 601.011719 Z M 585.105469 628.757812 L 588.898438 618.914062 L 585.914062 617.765625 L 582.117188 627.605469 Z M 590.113281 615.769531 L 592.59375 609.339844 L 589.605469 608.1875 L 587.125 614.617188 L 590.113281 615.769531 " fill-opacity="1" fill-rule="nonzero"/><path fill="rgb(58.039856%, 58.039856%, 58.039856%)" d="M 572.117188 663.453125 L 570.546875 667.523438 L 566.285156 665.878906 L 567.851562 661.8125 L 572.117188 663.453125 " fill-opacity="1" fill-rule="nonzero"/><path fill="rgb(58.039856%, 58.039856%, 58.039856%)" d="M 605.8125 576.089844 L 604.246094 580.15625 L 599.980469 578.511719 L 601.546875 574.445312 L 605.8125 576.089844 " fill-opacity="1" fill-rule="nonzero"/><path fill="rgb(85.879517%, 85.879517%, 85.879517%)" d="M 603.582031 569.570312 C 604.039062 569.589844 604.496094 569.664062 604.945312 569.835938 C 607.140625 570.683594 608.234375 573.144531 607.386719 575.339844 L 570.960938 669.789062 C 570.394531 671.253906 569.109375 672.210938 567.660156 672.445312 C 569.4375 672.519531 571.132812 671.488281 571.808594 669.742188 L 608.234375 575.289062 C 609.082031 573.097656 607.988281 570.632812 605.792969 569.785156 C 605.0625 569.503906 604.304688 569.453125 603.582031 569.570312 " fill-opacity="1" fill-rule="nonzero"/><path fill="rgb(43.139648%, 43.139648%, 43.139648%)" d="M 567.746094 671.757812 C 565.554688 670.914062 564.457031 668.449219 565.304688 666.253906 L 601.730469 571.804688 C 602.128906 570.777344 602.886719 570.003906 603.800781 569.542969 C 602.269531 569.714844 600.878906 570.691406 600.285156 572.226562 L 563.859375 666.675781 C 563.011719 668.871094 564.109375 671.335938 566.304688 672.183594 C 567.46875 672.632812 568.703125 672.519531 569.738281 672 C 569.085938 672.074219 568.40625 672.011719 567.746094 671.757812 " fill-opacity="1" fill-rule="nonzero"/><path fill="rgb(85.879517%, 85.879517%, 85.879517%)" d="M 598.683594 558.226562 C 601.589844 559.410156 604.585938 559.996094 607.847656 560.5 C 614.164062 561.484375 623.332031 559.492188 628.175781 554.039062 C 628.695312 553.449219 629.238281 552.625 629.667969 551.726562 C 630.265625 550.476562 630.699219 549.144531 630.898438 547.75 L 630.988281 547.109375 C 631.394531 544.300781 631.320312 541.445312 630.773438 538.671875 L 630.519531 537.390625 C 629.746094 533.484375 628.472656 529.695312 626.765625 526.105469 C 626.769531 525.964844 628.234375 528.910156 628.234375 528.910156 C 630.003906 532.46875 631.304688 536.242188 632.09375 540.140625 L 632.339844 541.351562 C 632.871094 543.972656 632.949219 546.664062 632.574219 549.316406 L 632.488281 549.925781 C 632.300781 551.242188 631.90625 552.507812 631.328125 553.679688 C 630.949219 554.460938 630.472656 555.179688 629.921875 555.847656 C 622.335938 561.25 616.632812 562.578125 610.589844 561.898438 C 606.265625 561.414062 602.492188 560.257812 598.683594 558.226562 " fill-opacity="1" fill-rule="nonzero"/><path fill="rgb(58.039856%, 58.039856%, 58.039856%)" d="M 598.53125 538.167969 C 598.324219 544.019531 602.976562 549 608.902344 549.269531 L 614.65625 549.527344 C 618.910156 549.714844 622.808594 547.414062 624.667969 543.722656 C 623.933594 544.902344 622.984375 545.90625 621.882812 546.695312 C 621.460938 546.992188 621.089844 547.226562 620.703125 547.433594 C 620.269531 547.660156 619.867188 547.84375 619.457031 548 C 619.039062 548.15625 618.636719 548.273438 618.226562 548.375 C 617.628906 548.511719 617.226562 548.578125 616.816406 548.617188 C 616.183594 548.671875 615.753906 548.6875 615.316406 548.671875 L 609.683594 548.445312 C 603.882812 548.210938 599.355469 543.300781 599.585938 537.503906 L 600.105469 524.703125 C 599.730469 524.925781 599.351562 525.230469 598.980469 525.589844 L 598.53125 538.167969 " fill-opacity="1" fill-rule="nonzero"/><g clip-path="url(#id5)"><path fill="rgb(85.879517%, 85.879517%, 85.879517%)" d="M 572.507812 704.464844 L 571.988281 717.265625 L 568.199219 717.109375 L 568.714844 704.316406 C 568.859375 700.601562 565.976562 697.46875 562.253906 697.320312 L 556.625 697.09375 C 552.914062 696.941406 549.78125 699.832031 549.628906 703.542969 L 549.113281 716.34375 L 545.421875 716.191406 C 545.324219 716.003906 545.835938 703.394531 545.835938 703.394531 C 545.882812 702.238281 546.113281 701.101562 546.527344 700.027344 C 548.148438 695.824219 552.269531 693.117188 556.777344 693.296875 L 562.414062 693.523438 C 568.210938 693.757812 572.742188 698.671875 572.507812 704.464844 " fill-opacity="1" fill-rule="nonzero"/></g><path fill="rgb(85.879517%, 85.879517%, 85.879517%)" d="M 599.585938 537.503906 L 600.105469 524.703125 L 603.898438 524.859375 L 603.382812 537.652344 C 603.234375 541.367188 606.121094 544.5 609.839844 544.648438 L 615.46875 544.878906 C 619.183594 545.027344 622.316406 542.136719 622.464844 538.425781 L 622.980469 525.625 L 626.675781 525.773438 C 626.769531 525.964844 626.261719 538.574219 626.261719 538.574219 C 626.214844 539.730469 625.980469 540.863281 625.566406 541.941406 C 623.945312 546.148438 619.824219 548.851562 615.316406 548.671875 L 609.683594 548.445312 C 603.882812 548.210938 599.355469 543.300781 599.585938 537.503906 " fill-opacity="1" fill-rule="nonzero"/><path fill="rgb(81.17981%, 54.508972%, 31.369019%)" d="M 582.625 595.953125 C 583.363281 595.914062 584.089844 595.847656 584.78125 595.726562 C 590.890625 594.65625 596.289062 593.964844 599.210938 593.210938 C 601.175781 592.703125 605.015625 591.875 608.488281 591.445312 C 608.921875 591.933594 609.316406 592.386719 609.632812 592.765625 C 608.855469 592.847656 608.054688 592.980469 607.253906 593.128906 C 607.09375 593.15625 606.9375 593.183594 606.777344 593.21875 C 605.074219 593.550781 603.417969 593.964844 602.019531 594.289062 C 601.355469 594.445312 600.738281 594.582031 600.222656 594.675781 C 597.25 595.210938 591.292969 596.851562 585.644531 596.117188 C 585.3125 596.105469 584.914062 596.085938 584.511719 596.0625 C 583.9375 596.035156 583.296875 595.996094 582.625 595.953125 " fill-opacity="1" fill-rule="nonzero"/><path fill="rgb(98.039246%, 73.329163%, 52.159119%)" d="M 537.515625 622.007812 C 538.878906 621.867188 547.355469 619.480469 548.921875 618.96875 C 552.332031 617.851562 557.40625 615.867188 559.855469 613.691406 C 563.4375 610.515625 564.734375 604.585938 569.199219 600.546875 C 571.777344 598.210938 573.765625 596.425781 575.808594 594.996094 C 577.394531 595.40625 579.257812 595.664062 581.023438 595.828125 C 581.464844 595.867188 581.902344 595.902344 582.324219 595.933594 C 583.171875 595.996094 583.96875 596.039062 584.671875 596.074219 C 585.023438 596.089844 585.347656 596.105469 585.644531 596.117188 C 591.292969 596.851562 597.25 595.210938 600.222656 594.675781 C 603.195312 594.140625 609.074219 592.238281 612.851562 592.742188 C 616.707031 593.296875 620.929688 595.3125 621.988281 599.152344 C 623.046875 602.996094 621.597656 605.382812 618.882812 607.472656 C 621.921875 608.804688 624.011719 611.519531 623.652344 614.945312 C 623.289062 618.375 622 620.753906 620.074219 621.992188 C 621.335938 623.464844 621.96875 625.132812 621.917969 627.457031 C 621.863281 629.777344 620.605469 632.792969 618.34375 634.378906 C 619.058594 635.128906 619.890625 636.253906 619.753906 637.910156 C 619.433594 641.808594 616.335938 646 612.300781 648.941406 C 608.269531 651.882812 604.929688 652.34375 600.386719 653.09375 C 595.84375 653.84375 557.925781 659.535156 551.453125 660.78125 C 548.769531 661.300781 543.929688 662.59375 542.449219 662.789062 L 537.515625 622.007812 " fill-opacity="1" fill-rule="nonzero"/><path fill="rgb(81.17981%, 54.508972%, 31.369019%)" d="M 612.300781 648.941406 C 608.269531 651.882812 604.929688 652.34375 600.386719 653.09375 C 595.84375 653.84375 557.925781 659.535156 551.453125 660.78125 C 548.769531 661.300781 543.929688 662.59375 542.449219 662.789062 L 541.101562 655.257812 C 543.035156 654.777344 549.472656 654.109375 551.265625 653.746094 C 579.996094 647.929688 592.875 651.667969 604.753906 648.875 C 610 647.644531 614.636719 645.238281 619.65625 638.671875 C 619.027344 642.347656 616.074219 646.191406 612.300781 648.941406 " fill-opacity="1" fill-rule="nonzero"/><path fill="rgb(98.039246%, 83.529663%, 70.588684%)" d="M 621.988281 599.152344 C 622.027344 599.296875 622.054688 599.429688 622.085938 599.566406 C 620.449219 597.144531 618.199219 595.511719 614.800781 594.203125 C 611.953125 593.113281 608.875 593.109375 606.1875 593.328125 C 608.515625 592.84375 610.953125 592.488281 612.851562 592.742188 C 616.707031 593.296875 620.929688 595.3125 621.988281 599.152344 " fill-opacity="1" fill-rule="nonzero"/><path fill="rgb(98.039246%, 83.529663%, 70.588684%)" d="M 622.140625 609.882812 C 619.25 608.070312 615.566406 608.320312 613.65625 608.429688 C 614.699219 607.910156 616.773438 607.472656 618.882812 607.472656 C 620.179688 608.042969 621.304688 608.859375 622.140625 609.882812 " fill-opacity="1" fill-rule="nonzero"/><path fill="rgb(81.17981%, 54.508972%, 31.369019%)" d="M 618.882812 607.472656 C 616.773438 607.472656 614.699219 607.910156 613.65625 608.429688 C 615.839844 607.328125 620.140625 604.890625 622.210938 602.800781 C 621.832031 604.679688 620.617188 606.140625 618.882812 607.472656 " fill-opacity="1" fill-rule="nonzero"/><path fill="rgb(81.17981%, 54.508972%, 31.369019%)" d="M 620.074219 621.992188 C 619.113281 623.1875 617.5625 623.84375 616.300781 624.105469 C 619.175781 621.933594 621.546875 619.523438 623.367188 616.695312 C 622.804688 619.195312 621.652344 620.980469 620.074219 621.992188 " fill-opacity="1" fill-rule="nonzero"/><path fill="rgb(98.039246%, 83.529663%, 70.588684%)" d="M 616.300781 624.105469 C 617.5625 623.84375 619.113281 623.1875 620.074219 621.992188 C 620.265625 622.214844 620.441406 622.445312 620.601562 622.675781 C 619.132812 623.644531 617.589844 624.292969 616.300781 624.105469 " fill-opacity="1" fill-rule="nonzero"/><path fill="rgb(81.17981%, 54.508972%, 31.369019%)" d="M 618.34375 634.378906 C 616.878906 635.601562 615.472656 636.03125 613.382812 636.675781 C 615.878906 635.324219 619.917969 631.96875 621.789062 628.652344 C 621.417969 630.734375 620.234375 633.054688 618.34375 634.378906 " fill-opacity="1" fill-rule="nonzero"/><path fill="rgb(98.039246%, 83.529663%, 70.588684%)" d="M 613.382812 636.675781 C 615.472656 636.03125 616.878906 635.601562 618.34375 634.378906 C 618.476562 634.523438 618.613281 634.675781 618.75 634.839844 C 616.773438 636.445312 614.628906 636.804688 613.382812 636.675781 " fill-opacity="1" fill-rule="nonzero"/><path fill="rgb(81.17981%, 54.508972%, 31.369019%)" d="M 563.664062 624.597656 C 574.847656 627.875 586.296875 630.15625 597.882812 631.410156 L 619.054688 633.707031 C 619.285156 633.488281 619.539062 633.300781 619.742188 633.054688 C 619.882812 632.890625 619.988281 632.707031 620.117188 632.53125 C 620.34375 632.214844 620.546875 631.894531 620.730469 631.554688 C 616.707031 631.121094 598.132812 629.105469 598.132812 629.105469 C 586.71875 627.867188 575.339844 625.605469 564.316406 622.375 L 550.65625 618.367188 C 550.050781 618.585938 549.460938 618.789062 548.921875 618.96875 C 548.535156 619.09375 547.726562 619.335938 546.707031 619.628906 L 563.664062 624.597656 " fill-opacity="1" fill-rule="nonzero"/><path fill="rgb(98.039246%, 73.329163%, 52.159119%)" d="M 386.976562 628.035156 L 394.578125 629.167969 C 411.46875 631.679688 428.699219 630.496094 445.082031 625.691406 C 445.082031 625.691406 507.316406 628.34375 542.921875 620.054688 C 548.691406 618.710938 579.96875 649.023438 571.941406 652.613281 C 555.835938 659.820312 529.546875 671.199219 517.089844 674.496094 C 477.546875 684.96875 429.953125 688.464844 393.800781 689.425781 L 357.9375 690.382812 C 344.460938 690.742188 333.0625 680.480469 332.015625 667.039062 L 329.300781 637.367188 L 386.976562 628.035156 " fill-opacity="1" fill-rule="nonzero"/><path fill="rgb(98.039246%, 73.329163%, 52.159119%)" d="M 683.207031 637.375 L 680.507812 667.039062 C 679.445312 680.480469 665.808594 695.28125 642.980469 696.097656 C 633.4375 696.441406 621.84375 696.777344 608.546875 695.414062 C 579.5625 692.441406 560.144531 682.863281 532.6875 672.390625 C 526.472656 670.019531 520.339844 667.40625 514.304688 664.558594 L 506.257812 660.769531 L 448.085938 633.285156 C 441.921875 630.367188 435.050781 628.921875 428.257812 629.304688 C 426.757812 629.359375 425.230469 629.550781 423.730469 629.851562 C 413.882812 630.832031 404.175781 630.613281 394.574219 629.171875 L 386.96875 628.023438 L 388.113281 625.269531 C 390.210938 620.144531 393.074219 615.292969 396.894531 611.285156 C 402.238281 605.722656 408.949219 601.550781 416.476562 599.316406 L 420.730469 598.03125 C 437.613281 592.964844 455.613281 592.90625 472.523438 597.867188 L 506.230469 607.765625 L 563.664062 624.597656 C 574.847656 627.875 586.296875 630.15625 597.882812 631.410156 L 621.265625 633.945312 C 623.097656 634.144531 624.761719 632.871094 625.050781 631.054688 L 625.527344 628.023438 L 683.207031 637.375 " fill-opacity="1" fill-rule="nonzero"/><path fill="rgb(98.039246%, 83.529663%, 70.588684%)" d="M 562.796875 624.34375 L 506.230469 607.765625 L 472.523438 597.867188 C 455.613281 592.90625 437.613281 592.960938 420.730469 598.03125 L 416.476562 599.316406 C 408.949219 601.550781 402.238281 605.722656 396.894531 611.285156 C 393.867188 614.460938 391.460938 618.175781 389.539062 622.128906 C 390.945312 619.730469 392.574219 617.464844 394.453125 615.410156 C 399.652344 609.785156 406.25 605.496094 413.710938 603.089844 L 417.933594 601.710938 C 434.671875 596.261719 452.664062 595.722656 469.703125 600.15625 L 503.660156 609.003906 L 561.519531 624.039062 C 561.945312 624.152344 562.371094 624.234375 562.796875 624.34375 " fill-opacity="1" fill-rule="nonzero"/><path fill="rgb(81.17981%, 54.508972%, 31.369019%)" d="M 514.304688 664.558594 L 506.257812 660.769531 L 448.085938 633.285156 C 441.921875 630.367188 435.050781 628.921875 428.257812 629.304688 C 427.917969 629.316406 427.570312 629.363281 427.230469 629.386719 C 426.300781 629.507812 425.378906 629.636719 424.449219 629.734375 C 438.785156 630.386719 442.121094 633.027344 447.09375 635.382812 L 513.3125 666.65625 C 517.257812 668.515625 521.234375 670.269531 525.238281 671.921875 C 526.292969 671.554688 527.398438 671.152344 528.523438 670.738281 C 523.734375 668.816406 518.988281 666.769531 514.304688 664.558594 " fill-opacity="1" fill-rule="nonzero"/><path fill="rgb(81.17981%, 54.508972%, 31.369019%)" d="M 410.589844 628.613281 C 404.933594 628.214844 400.527344 627.710938 394.917969 626.875 L 387.882812 625.828125 L 386.96875 628.023438 L 394.574219 629.171875 C 404.175781 630.613281 413.882812 630.832031 423.484375 629.878906 C 425.191406 629.558594 426.679688 629.375 428.140625 629.316406 C 422.628906 629.632812 417.828125 629.117188 410.589844 628.613281 " fill-opacity="1" fill-rule="nonzero"/><g fill="rgb(100%, 100%, 100%)" fill-opacity="1"><g transform="translate(327.439083, 841.179418)"><g><path d="M 1.671875 -35.359375 L 1.671875 -43.390625 L 35.90625 -43.390625 L 35.90625 -35.359375 L 24.046875 -35.359375 L 24.046875 0 L 13.46875 0 L 13.46875 -35.359375 Z M 1.671875 -35.359375 "/></g></g></g><g fill="rgb(100%, 100%, 100%)" fill-opacity="1"><g transform="translate(363.467431, 841.179418)"><g><path d="M 25.640625 -10.9375 C 27.171875 -12.425781 27.9375 -14.53125 27.9375 -17.25 C 27.9375 -19.96875 27.171875 -22.054688 25.640625 -23.515625 C 24.117188 -24.984375 22.367188 -25.71875 20.390625 -25.71875 C 18.421875 -25.71875 16.671875 -24.972656 15.140625 -23.484375 C 13.617188 -22.003906 12.859375 -19.90625 12.859375 -17.1875 C 12.859375 -14.46875 13.617188 -12.375 15.140625 -10.90625 C 16.671875 -9.445312 18.421875 -8.71875 20.390625 -8.71875 C 22.367188 -8.71875 24.117188 -9.457031 25.640625 -10.9375 Z M 6.671875 -4.5 C 3.628906 -7.800781 2.109375 -12.023438 2.109375 -17.171875 C 2.109375 -22.328125 3.628906 -26.5625 6.671875 -29.875 C 9.722656 -33.195312 13.441406 -34.859375 17.828125 -34.859375 C 22.222656 -34.859375 25.59375 -33.234375 27.9375 -29.984375 L 27.9375 -34.484375 L 38.515625 -34.484375 L 38.515625 0 L 27.9375 0 L 27.9375 -5 C 25.382812 -1.375 21.960938 0.4375 17.671875 0.4375 C 13.390625 0.4375 9.722656 -1.207031 6.671875 -4.5 Z M 6.671875 -4.5 "/></g></g></g><g fill="rgb(100%, 100%, 100%)" fill-opacity="1"><g transform="translate(405.057644, 841.179418)"><g><path d="M 4.640625 0 L 4.640625 -45.734375 L 15.203125 -45.734375 L 15.203125 0 Z M 4.640625 0 "/></g></g></g><g fill="rgb(100%, 100%, 100%)" fill-opacity="1"><g transform="translate(423.349808, 841.179418)"><g><path d="M 4.640625 0 L 4.640625 -45.734375 L 15.203125 -45.734375 L 15.203125 0 Z M 4.640625 0 "/></g></g></g><g fill="rgb(100%, 100%, 100%)" fill-opacity="1"><g transform="translate(441.641972, 841.179418)"><g><path d="M 19.28125 0.4375 C 14.257812 0.4375 10.140625 -1.175781 6.921875 -4.40625 C 3.710938 -7.644531 2.109375 -11.941406 2.109375 -17.296875 C 2.109375 -22.660156 3.703125 -26.925781 6.890625 -30.09375 C 10.085938 -33.269531 14.21875 -34.859375 19.28125 -34.859375 C 24.351562 -34.859375 28.554688 -33.289062 31.890625 -30.15625 C 35.234375 -27.03125 36.90625 -22.6875 36.90625 -17.125 C 36.90625 -15.925781 36.820312 -14.8125 36.65625 -13.78125 L 12.921875 -13.78125 C 13.128906 -12.257812 13.804688 -11.015625 14.953125 -10.046875 C 16.109375 -9.078125 17.351562 -8.59375 18.6875 -8.59375 C 20.03125 -8.59375 21.03125 -8.722656 21.6875 -8.984375 C 22.351562 -9.253906 22.835938 -9.523438 23.140625 -9.796875 C 23.453125 -10.066406 23.859375 -10.507812 24.359375 -11.125 L 35.796875 -11.125 C 34.804688 -7.664062 32.828125 -4.875 29.859375 -2.75 C 26.890625 -0.625 23.363281 0.4375 19.28125 0.4375 Z M 25.90625 -20.390625 C 25.738281 -22.003906 25.035156 -23.316406 23.796875 -24.328125 C 22.554688 -25.335938 21.09375 -25.84375 19.40625 -25.84375 C 17.71875 -25.84375 16.296875 -25.335938 15.140625 -24.328125 C 13.984375 -23.316406 13.265625 -22.003906 12.984375 -20.390625 Z M 25.90625 -20.390625 "/></g></g></g><g fill="rgb(100%, 100%, 100%)" fill-opacity="1"><g transform="translate(479.153483, 841.179418)"><g><path d="M 15.203125 -34.484375 L 15.203125 -28.0625 C 17.679688 -32.59375 20.976562 -34.859375 25.09375 -34.859375 L 25.09375 -24.109375 L 22.5 -24.109375 C 20.070312 -24.109375 18.25 -23.53125 17.03125 -22.375 C 15.8125 -21.21875 15.203125 -19.195312 15.203125 -16.3125 L 15.203125 0 L 4.640625 0 L 4.640625 -34.484375 Z M 15.203125 -34.484375 "/></g></g></g><g fill="rgb(100%, 100%, 100%)" fill-opacity="1"><g transform="translate(503.81089, 841.179418)"><g/></g></g><g fill="rgb(100%, 100%, 100%)" fill-opacity="1"><g transform="translate(520.805285, 841.179418)"><g><path d="M 15.203125 -16.875 L 15.203125 0 L 4.640625 0 L 4.640625 -43.390625 L 21.765625 -43.390625 C 26.785156 -43.390625 30.695312 -42.09375 33.5 -39.5 C 36.300781 -36.90625 37.703125 -33.773438 37.703125 -30.109375 C 37.703125 -27.585938 36.9375 -25.128906 35.40625 -22.734375 C 33.882812 -20.347656 31.394531 -18.660156 27.9375 -17.671875 L 38.578125 0 L 26.203125 0 L 16.4375 -16.875 Z M 15.203125 -35.359375 L 15.203125 -24.90625 L 21.765625 -24.90625 C 23.367188 -24.90625 24.632812 -25.378906 25.5625 -26.328125 C 26.488281 -27.273438 26.953125 -28.519531 26.953125 -30.0625 C 26.953125 -31.613281 26.476562 -32.882812 25.53125 -33.875 C 24.582031 -34.863281 23.328125 -35.359375 21.765625 -35.359375 Z M 15.203125 -35.359375 "/></g></g></g><g fill="rgb(100%, 100%, 100%)" fill-opacity="1"><g transform="translate(560.541559, 841.179418)"><g><path d="M 25.640625 -10.9375 C 27.171875 -12.425781 27.9375 -14.53125 27.9375 -17.25 C 27.9375 -19.96875 27.171875 -22.054688 25.640625 -23.515625 C 24.117188 -24.984375 22.367188 -25.71875 20.390625 -25.71875 C 18.421875 -25.71875 16.671875 -24.972656 15.140625 -23.484375 C 13.617188 -22.003906 12.859375 -19.90625 12.859375 -17.1875 C 12.859375 -14.46875 13.617188 -12.375 15.140625 -10.90625 C 16.671875 -9.445312 18.421875 -8.71875 20.390625 -8.71875 C 22.367188 -8.71875 24.117188 -9.457031 25.640625 -10.9375 Z M 6.671875 -4.5 C 3.628906 -7.800781 2.109375 -12.023438 2.109375 -17.171875 C 2.109375 -22.328125 3.628906 -26.5625 6.671875 -29.875 C 9.722656 -33.195312 13.441406 -34.859375 17.828125 -34.859375 C 22.222656 -34.859375 25.59375 -33.234375 27.9375 -29.984375 L 27.9375 -34.484375 L 38.515625 -34.484375 L 38.515625 0 L 27.9375 0 L 27.9375 -5 C 25.382812 -1.375 21.960938 0.4375 17.671875 0.4375 C 13.390625 0.4375 9.722656 -1.207031 6.671875 -4.5 Z M 6.671875 -4.5 "/></g></g></g><g fill="rgb(100%, 100%, 100%)" fill-opacity="1"><g transform="translate(602.131781, 841.179418)"><g><path d="M 13.65625 -0.6875 L 0.25 -34.484375 L 12.234375 -34.484375 L 19.90625 -11.9375 L 28.3125 -34.484375 L 39.375 -34.484375 L 17.375 16.4375 L 6.3125 16.4375 Z M 13.65625 -0.6875 "/></g></g></g><g fill="rgb(100%, 100%, 100%)" fill-opacity="1"><g transform="translate(640.19947, 841.179418)"><g><path d="M 25.328125 -10.8125 C 26.734375 -12.300781 27.4375 -14.445312 27.4375 -17.25 C 27.4375 -20.050781 26.71875 -22.179688 25.28125 -23.640625 C 23.84375 -25.109375 22.132812 -25.84375 20.15625 -25.84375 C 18.175781 -25.84375 16.472656 -25.109375 15.046875 -23.640625 C 13.628906 -22.179688 12.921875 -20.050781 12.921875 -17.25 C 12.921875 -14.445312 13.648438 -12.300781 15.109375 -10.8125 C 16.578125 -9.332031 18.296875 -8.59375 20.265625 -8.59375 C 22.242188 -8.59375 23.929688 -9.332031 25.328125 -10.8125 Z M 7.375 -4.4375 C 3.894531 -7.695312 2.15625 -11.984375 2.15625 -17.296875 C 2.15625 -22.617188 3.882812 -26.875 7.34375 -30.0625 C 10.8125 -33.257812 15.097656 -34.859375 20.203125 -34.859375 C 25.316406 -34.859375 29.59375 -33.257812 33.03125 -30.0625 C 36.476562 -26.875 38.203125 -22.617188 38.203125 -17.296875 C 38.203125 -11.984375 36.488281 -7.695312 33.0625 -4.4375 C 29.644531 -1.1875 25.378906 0.4375 20.265625 0.4375 C 15.160156 0.4375 10.863281 -1.1875 7.375 -4.4375 Z M 7.375 -4.4375 "/></g></g></g><g fill="rgb(100%, 100%, 100%)" fill-opacity="1"><g transform="translate(350.24168, 905.505889)"><g><path d="M 53.78125 -43.390625 L 53.78125 0 L 43.203125 0 L 43.203125 -24.484375 L 33.125 0 L 25.28125 0 L 15.203125 -24.484375 L 15.203125 0 L 4.640625 0 L 4.640625 -43.390625 L 16.75 -43.390625 L 29.234375 -13.46875 L 41.65625 -43.390625 Z M 53.78125 -43.390625 "/></g></g></g><g fill="rgb(100%, 100%, 100%)" fill-opacity="1"><g transform="translate(407.096142, 905.505889)"><g><path d="M 25.640625 -10.9375 C 27.171875 -12.425781 27.9375 -14.53125 27.9375 -17.25 C 27.9375 -19.96875 27.171875 -22.054688 25.640625 -23.515625 C 24.117188 -24.984375 22.367188 -25.71875 20.390625 -25.71875 C 18.421875 -25.71875 16.671875 -24.972656 15.140625 -23.484375 C 13.617188 -22.003906 12.859375 -19.90625 12.859375 -17.1875 C 12.859375 -14.46875 13.617188 -12.375 15.140625 -10.90625 C 16.671875 -9.445312 18.421875 -8.71875 20.390625 -8.71875 C 22.367188 -8.71875 24.117188 -9.457031 25.640625 -10.9375 Z M 6.671875 -4.5 C 3.628906 -7.800781 2.109375 -12.023438 2.109375 -17.171875 C 2.109375 -22.328125 3.628906 -26.5625 6.671875 -29.875 C 9.722656 -33.195312 13.441406 -34.859375 17.828125 -34.859375 C 22.222656 -34.859375 25.59375 -33.234375 27.9375 -29.984375 L 27.9375 -34.484375 L 38.515625 -34.484375 L 38.515625 0 L 27.9375 0 L 27.9375 -5 C 25.382812 -1.375 21.960938 0.4375 17.671875 0.4375 C 13.390625 0.4375 9.722656 -1.207031 6.671875 -4.5 Z M 6.671875 -4.5 "/></g></g></g><g fill="rgb(100%, 100%, 100%)" fill-opacity="1"><g transform="translate(448.686355, 905.505889)"><g><path d="M 15.203125 0 L 4.640625 0 L 4.640625 -45.734375 L 15.203125 -45.734375 L 15.203125 -20.09375 L 25.90625 -34.484375 L 40.109375 -34.484375 L 25.34375 -16.875 L 40.109375 0 L 26.078125 0 L 15.203125 -13.78125 Z M 15.203125 0 "/></g></g></g><g fill="rgb(100%, 100%, 100%)" fill-opacity="1"><g transform="translate(487.495636, 905.505889)"><g><path d="M 43.390625 -34.484375 L 53.34375 -34.484375 L 43.015625 0 L 31.640625 0 L 26.828125 -20.390625 L 21.9375 0 L 10.5625 0 L 0.25 -34.484375 L 10.8125 -34.484375 L 16.1875 -10.265625 L 21.515625 -34.484375 L 32.703125 -34.484375 L 38.015625 -10.265625 Z M 43.390625 -34.484375 "/></g></g></g><g fill="rgb(100%, 100%, 100%)" fill-opacity="1"><g transform="translate(539.468007, 905.505889)"><g><path d="M 19.28125 0.4375 C 14.257812 0.4375 10.140625 -1.175781 6.921875 -4.40625 C 3.710938 -7.644531 2.109375 -11.941406 2.109375 -17.296875 C 2.109375 -22.660156 3.703125 -26.925781 6.890625 -30.09375 C 10.085938 -33.269531 14.21875 -34.859375 19.28125 -34.859375 C 24.351562 -34.859375 28.554688 -33.289062 31.890625 -30.15625 C 35.234375 -27.03125 36.90625 -22.6875 36.90625 -17.125 C 36.90625 -15.925781 36.820312 -14.8125 36.65625 -13.78125 L 12.921875 -13.78125 C 13.128906 -12.257812 13.804688 -11.015625 14.953125 -10.046875 C 16.109375 -9.078125 17.351562 -8.59375 18.6875 -8.59375 C 20.03125 -8.59375 21.03125 -8.722656 21.6875 -8.984375 C 22.351562 -9.253906 22.835938 -9.523438 23.140625 -9.796875 C 23.453125 -10.066406 23.859375 -10.507812 24.359375 -11.125 L 35.796875 -11.125 C 34.804688 -7.664062 32.828125 -4.875 29.859375 -2.75 C 26.890625 -0.625 23.363281 0.4375 19.28125 0.4375 Z M 25.90625 -20.390625 C 25.738281 -22.003906 25.035156 -23.316406 23.796875 -24.328125 C 22.554688 -25.335938 21.09375 -25.84375 19.40625 -25.84375 C 17.71875 -25.84375 16.296875 -25.335938 15.140625 -24.328125 C 13.984375 -23.316406 13.265625 -22.003906 12.984375 -20.390625 Z M 25.90625 -20.390625 "/></g></g></g><g fill="rgb(100%, 100%, 100%)" fill-opacity="1"><g transform="translate(576.979507, 905.505889)"><g><path d="M 19.28125 0.4375 C 14.257812 0.4375 10.140625 -1.175781 6.921875 -4.40625 C 3.710938 -7.644531 2.109375 -11.941406 2.109375 -17.296875 C 2.109375 -22.660156 3.703125 -26.925781 6.890625 -30.09375 C 10.085938 -33.269531 14.21875 -34.859375 19.28125 -34.859375 C 24.351562 -34.859375 28.554688 -33.289062 31.890625 -30.15625 C 35.234375 -27.03125 36.90625 -22.6875 36.90625 -17.125 C 36.90625 -15.925781 36.820312 -14.8125 36.65625 -13.78125 L 12.921875 -13.78125 C 13.128906 -12.257812 13.804688 -11.015625 14.953125 -10.046875 C 16.109375 -9.078125 17.351562 -8.59375 18.6875 -8.59375 C 20.03125 -8.59375 21.03125 -8.722656 21.6875 -8.984375 C 22.351562 -9.253906 22.835938 -9.523438 23.140625 -9.796875 C 23.453125 -10.066406 23.859375 -10.507812 24.359375 -11.125 L 35.796875 -11.125 C 34.804688 -7.664062 32.828125 -4.875 29.859375 -2.75 C 26.890625 -0.625 23.363281 0.4375 19.28125 0.4375 Z M 25.90625 -20.390625 C 25.738281 -22.003906 25.035156 -23.316406 23.796875 -24.328125 C 22.554688 -25.335938 21.09375 -25.84375 19.40625 -25.84375 C 17.71875 -25.84375 16.296875 -25.335938 15.140625 -24.328125 C 13.984375 -23.316406 13.265625 -22.003906 12.984375 -20.390625 Z M 25.90625 -20.390625 "/></g></g></g><g fill="rgb(100%, 100%, 100%)" fill-opacity="1"><g transform="translate(614.491028, 905.505889)"><g><path d="M 15.203125 -34.484375 L 15.203125 -29.421875 C 17.390625 -33.046875 20.875 -34.859375 25.65625 -34.859375 C 29.613281 -34.859375 32.816406 -33.539062 35.265625 -30.90625 C 37.710938 -28.269531 38.9375 -24.6875 38.9375 -20.15625 L 38.9375 0 L 28.4375 0 L 28.4375 -18.734375 C 28.4375 -20.953125 27.847656 -22.671875 26.671875 -23.890625 C 25.492188 -25.109375 23.875 -25.71875 21.8125 -25.71875 C 19.757812 -25.71875 18.144531 -25.109375 16.96875 -23.890625 C 15.789062 -22.671875 15.203125 -20.953125 15.203125 -18.734375 L 15.203125 0 L 4.640625 0 L 4.640625 -34.484375 Z M 15.203125 -34.484375 "/></g></g></g><g fill="rgb(100%, 100%, 100%)" fill-opacity="1"><g transform="translate(336.158194, 983.654737)"><g><path d="M 2.0625 -26.59375 L 2.0625 -28.984375 L 20.15625 -28.984375 L 20.15625 -26.59375 L 12.5625 -26.59375 L 12.5625 0 L 9.65625 0 L 9.65625 -26.59375 Z M 2.0625 -26.59375 "/></g></g></g><g fill="rgb(100%, 100%, 100%)" fill-opacity="1"><g transform="translate(359.421388, 983.654737)"><g><path d="M 19.21875 -4.671875 C 20.882812 -6.398438 21.71875 -8.664062 21.71875 -11.46875 C 21.71875 -14.269531 20.882812 -16.53125 19.21875 -18.25 C 17.550781 -19.96875 15.539062 -20.828125 13.1875 -20.828125 C 10.832031 -20.828125 8.828125 -20 7.171875 -18.34375 C 5.523438 -16.695312 4.703125 -14.46875 4.703125 -11.65625 C 4.703125 -8.84375 5.535156 -6.546875 7.203125 -4.765625 C 8.867188 -2.984375 10.867188 -2.09375 13.203125 -2.09375 C 15.546875 -2.09375 17.550781 -2.953125 19.21875 -4.671875 Z M 12.765625 0.421875 C 9.578125 0.421875 6.929688 -0.710938 4.828125 -2.984375 C 2.734375 -5.253906 1.6875 -8.144531 1.6875 -11.65625 C 1.6875 -15.164062 2.726562 -17.992188 4.8125 -20.140625 C 6.894531 -22.285156 9.546875 -23.359375 12.765625 -23.359375 C 14.835938 -23.359375 16.65625 -22.851562 18.21875 -21.84375 C 19.789062 -20.832031 20.957031 -19.53125 21.71875 -17.9375 L 21.71875 -22.9375 L 24.65625 -22.9375 L 24.65625 0 L 21.71875 0 L 21.71875 -5.046875 C 20.957031 -3.441406 19.789062 -2.128906 18.21875 -1.109375 C 16.65625 -0.0859375 14.835938 0.421875 12.765625 0.421875 Z M 12.765625 0.421875 "/></g></g></g><g fill="rgb(100%, 100%, 100%)" fill-opacity="1"><g transform="translate(388.269369, 983.654737)"><g><path d="M 3.15625 0 L 3.15625 -31.078125 L 6.09375 -31.078125 L 6.09375 0 Z M 3.15625 0 "/></g></g></g><g fill="rgb(100%, 100%, 100%)" fill-opacity="1"><g transform="translate(398.557363, 983.654737)"><g><path d="M 3.15625 0 L 3.15625 -31.078125 L 6.09375 -31.078125 L 6.09375 0 Z M 3.15625 0 "/></g></g></g><g fill="rgb(100%, 100%, 100%)" fill-opacity="1"><g transform="translate(408.845358, 983.654737)"><g><path d="M 12.71875 0.421875 C 9.445312 0.421875 6.789062 -0.664062 4.75 -2.84375 C 2.707031 -5.03125 1.6875 -7.910156 1.6875 -11.484375 C 1.6875 -15.054688 2.726562 -17.925781 4.8125 -20.09375 C 6.894531 -22.269531 9.59375 -23.359375 12.90625 -23.359375 C 16.226562 -23.359375 18.867188 -22.332031 20.828125 -20.28125 C 22.785156 -18.238281 23.765625 -15.707031 23.765625 -12.6875 C 23.765625 -11.875 23.710938 -11.117188 23.609375 -10.421875 L 4.703125 -10.421875 C 4.816406 -7.785156 5.613281 -5.710938 7.09375 -4.203125 C 8.582031 -2.691406 10.457031 -1.9375 12.71875 -1.9375 C 14.488281 -1.9375 15.992188 -2.34375 17.234375 -3.15625 C 18.484375 -3.96875 19.347656 -5.03125 19.828125 -6.34375 L 22.96875 -6.34375 C 22.21875 -4.382812 20.988281 -2.765625 19.28125 -1.484375 C 17.570312 -0.210938 15.382812 0.421875 12.71875 0.421875 Z M 20.75 -12.71875 C 20.75 -15.238281 19.984375 -17.25 18.453125 -18.75 C 16.929688 -20.25 15.039062 -21 12.78125 -21 C 10.53125 -21 8.65625 -20.265625 7.15625 -18.796875 C 5.65625 -17.328125 4.835938 -15.300781 4.703125 -12.71875 Z M 20.75 -12.71875 "/></g></g></g><g fill="rgb(100%, 100%, 100%)" fill-opacity="1"><g transform="translate(435.299854, 983.654737)"><g><path d="M 6.09375 -22.9375 L 6.09375 -19.15625 C 7.351562 -21.957031 9.71875 -23.359375 13.1875 -23.359375 L 13.1875 -20.28125 L 12.34375 -20.28125 C 10.332031 -20.28125 8.785156 -19.734375 7.703125 -18.640625 C 6.628906 -17.554688 6.09375 -15.679688 6.09375 -13.015625 L 6.09375 0 L 3.15625 0 L 3.15625 -22.9375 Z M 6.09375 -22.9375 "/></g></g></g><g fill="rgb(100%, 100%, 100%)" fill-opacity="1"><g transform="translate(451.17265, 983.654737)"><g/></g></g><g fill="rgb(100%, 100%, 100%)" fill-opacity="1"><g transform="translate(464.81992, 983.654737)"><g><path d="M 31.84375 -28.984375 L 31.84375 0 L 28.890625 0 L 28.890625 -22.296875 L 18.359375 0 L 16.625 0 L 6.09375 -22.21875 L 6.09375 0 L 3.15625 0 L 3.15625 -28.984375 L 5.875 -28.984375 L 17.515625 -4.234375 L 29.109375 -28.984375 Z M 31.84375 -28.984375 "/></g></g></g><g fill="rgb(100%, 100%, 100%)" fill-opacity="1"><g transform="translate(500.848337, 983.654737)"><g><path d="M 12.71875 0.421875 C 9.445312 0.421875 6.789062 -0.664062 4.75 -2.84375 C 2.707031 -5.03125 1.6875 -7.910156 1.6875 -11.484375 C 1.6875 -15.054688 2.726562 -17.925781 4.8125 -20.09375 C 6.894531 -22.269531 9.59375 -23.359375 12.90625 -23.359375 C 16.226562 -23.359375 18.867188 -22.332031 20.828125 -20.28125 C 22.785156 -18.238281 23.765625 -15.707031 23.765625 -12.6875 C 23.765625 -11.875 23.710938 -11.117188 23.609375 -10.421875 L 4.703125 -10.421875 C 4.816406 -7.785156 5.613281 -5.710938 7.09375 -4.203125 C 8.582031 -2.691406 10.457031 -1.9375 12.71875 -1.9375 C 14.488281 -1.9375 15.992188 -2.34375 17.234375 -3.15625 C 18.484375 -3.96875 19.347656 -5.03125 19.828125 -6.34375 L 22.96875 -6.34375 C 22.21875 -4.382812 20.988281 -2.765625 19.28125 -1.484375 C 17.570312 -0.210938 15.382812 0.421875 12.71875 0.421875 Z M 20.75 -12.71875 C 20.75 -15.238281 19.984375 -17.25 18.453125 -18.75 C 16.929688 -20.25 15.039062 -21 12.78125 -21 C 10.53125 -21 8.65625 -20.265625 7.15625 -18.796875 C 5.65625 -17.328125 4.835938 -15.300781 4.703125 -12.71875 Z M 20.75 -12.71875 "/></g></g></g><g fill="rgb(100%, 100%, 100%)" fill-opacity="1"><g transform="translate(527.302833, 983.654737)"><g><path d="M 4.75 -2.84375 C 2.707031 -5.03125 1.6875 -7.898438 1.6875 -11.453125 C 1.6875 -15.015625 2.707031 -17.890625 4.75 -20.078125 C 6.789062 -22.265625 9.445312 -23.359375 12.71875 -23.359375 C 18.101562 -23.359375 21.519531 -20.945312 22.96875 -16.125 L 19.828125 -16.125 C 19.347656 -17.664062 18.5 -18.863281 17.28125 -19.71875 C 16.0625 -20.570312 14.539062 -21 12.71875 -21 C 10.34375 -21 8.410156 -20.179688 6.921875 -18.546875 C 5.441406 -16.910156 4.703125 -14.554688 4.703125 -11.484375 C 4.703125 -8.421875 5.441406 -6.0625 6.921875 -4.40625 C 8.410156 -2.757812 10.34375 -1.9375 12.71875 -1.9375 C 14.539062 -1.9375 16.0625 -2.363281 17.28125 -3.21875 C 18.5 -4.070312 19.347656 -5.265625 19.828125 -6.796875 L 22.96875 -6.796875 C 22.238281 -4.617188 21.019531 -2.867188 19.3125 -1.546875 C 17.613281 -0.234375 15.414062 0.421875 12.71875 0.421875 C 9.445312 0.421875 6.789062 -0.664062 4.75 -2.84375 Z M 4.75 -2.84375 "/></g></g></g><g fill="rgb(100%, 100%, 100%)" fill-opacity="1"><g transform="translate(553.547377, 983.654737)"><g><path d="M 9.15625 -26.96875 L 17.765625 -32.34375 L 17.765625 -29.40625 L 9.15625 -24.5625 Z M 19.21875 -4.671875 C 20.882812 -6.398438 21.71875 -8.664062 21.71875 -11.46875 C 21.71875 -14.269531 20.882812 -16.53125 19.21875 -18.25 C 17.550781 -19.96875 15.539062 -20.828125 13.1875 -20.828125 C 10.832031 -20.828125 8.828125 -20 7.171875 -18.34375 C 5.523438 -16.695312 4.703125 -14.46875 4.703125 -11.65625 C 4.703125 -8.84375 5.535156 -6.546875 7.203125 -4.765625 C 8.867188 -2.984375 10.867188 -2.09375 13.203125 -2.09375 C 15.546875 -2.09375 17.550781 -2.953125 19.21875 -4.671875 Z M 12.765625 0.421875 C 9.578125 0.421875 6.929688 -0.710938 4.828125 -2.984375 C 2.734375 -5.253906 1.6875 -8.144531 1.6875 -11.65625 C 1.6875 -15.164062 2.726562 -17.992188 4.8125 -20.140625 C 6.894531 -22.285156 9.546875 -23.359375 12.765625 -23.359375 C 14.835938 -23.359375 16.65625 -22.851562 18.21875 -21.84375 C 19.789062 -20.832031 20.957031 -19.53125 21.71875 -17.9375 L 21.71875 -22.9375 L 24.65625 -22.9375 L 24.65625 0 L 21.71875 0 L 21.71875 -5.046875 C 20.957031 -3.441406 19.789062 -2.128906 18.21875 -1.109375 C 16.65625 -0.0859375 14.835938 0.421875 12.765625 0.421875 Z M 12.765625 0.421875 "/></g></g></g><g fill="rgb(100%, 100%, 100%)" fill-opacity="1"><g transform="translate(582.395354, 983.654737)"><g><path d="M 6.09375 -22.9375 L 6.09375 -19.1875 C 7.632812 -21.96875 10.164062 -23.359375 13.6875 -23.359375 C 16.238281 -23.359375 18.367188 -22.523438 20.078125 -20.859375 C 21.785156 -19.191406 22.640625 -16.789062 22.640625 -13.65625 L 22.640625 0 L 19.734375 0 L 19.734375 -13.109375 C 19.734375 -15.628906 19.125 -17.546875 17.90625 -18.859375 C 16.695312 -20.171875 15.035156 -20.828125 12.921875 -20.828125 C 10.804688 -20.828125 9.140625 -20.171875 7.921875 -18.859375 C 6.703125 -17.546875 6.09375 -15.628906 6.09375 -13.109375 L 6.09375 0 L 3.15625 0 L 3.15625 -22.9375 Z M 6.09375 -22.9375 "/></g></g></g><g fill="rgb(100%, 100%, 100%)" fill-opacity="1"><g transform="translate(609.017823, 983.654737)"><g><path d="M 6.796875 -29.421875 C 6.796875 -28.816406 6.59375 -28.304688 6.1875 -27.890625 C 5.789062 -27.472656 5.289062 -27.265625 4.6875 -27.265625 C 4.082031 -27.265625 3.566406 -27.472656 3.140625 -27.890625 C 2.722656 -28.304688 2.515625 -28.816406 2.515625 -29.421875 C 2.515625 -30.023438 2.722656 -30.535156 3.140625 -30.953125 C 3.566406 -31.367188 4.082031 -31.578125 4.6875 -31.578125 C 5.289062 -31.578125 5.789062 -31.367188 6.1875 -30.953125 C 6.59375 -30.535156 6.796875 -30.023438 6.796875 -29.421875 Z M 3.15625 0 L 3.15625 -22.9375 L 6.09375 -22.9375 L 6.09375 0 Z M 3.15625 0 "/></g></g></g><g fill="rgb(100%, 100%, 100%)" fill-opacity="1"><g transform="translate(619.305812, 983.654737)"><g><path d="M 4.75 -2.84375 C 2.707031 -5.03125 1.6875 -7.898438 1.6875 -11.453125 C 1.6875 -15.015625 2.707031 -17.890625 4.75 -20.078125 C 6.789062 -22.265625 9.445312 -23.359375 12.71875 -23.359375 C 18.101562 -23.359375 21.519531 -20.945312 22.96875 -16.125 L 19.828125 -16.125 C 19.347656 -17.664062 18.5 -18.863281 17.28125 -19.71875 C 16.0625 -20.570312 14.539062 -21 12.71875 -21 C 10.34375 -21 8.410156 -20.179688 6.921875 -18.546875 C 5.441406 -16.910156 4.703125 -14.554688 4.703125 -11.484375 C 4.703125 -8.421875 5.441406 -6.0625 6.921875 -4.40625 C 8.410156 -2.757812 10.34375 -1.9375 12.71875 -1.9375 C 14.539062 -1.9375 16.0625 -2.363281 17.28125 -3.21875 C 18.5 -4.070312 19.347656 -5.265625 19.828125 -6.796875 L 22.96875 -6.796875 C 22.238281 -4.617188 21.019531 -2.867188 19.3125 -1.546875 C 17.613281 -0.234375 15.414062 0.421875 12.71875 0.421875 C 9.445312 0.421875 6.789062 -0.664062 4.75 -2.84375 Z M 4.75 -2.84375 "/></g></g></g><g fill="rgb(100%, 100%, 100%)" fill-opacity="1"><g transform="translate(645.550357, 983.654737)"><g><path d="M 12.765625 -1.9375 C 15.148438 -1.9375 17.207031 -2.789062 18.9375 -4.5 C 20.675781 -6.207031 21.546875 -8.535156 21.546875 -11.484375 C 21.546875 -14.441406 20.71875 -16.765625 19.0625 -18.453125 C 17.414062 -20.148438 15.398438 -21 13.015625 -21 C 10.640625 -21 8.648438 -20.15625 7.046875 -18.46875 C 5.453125 -16.789062 4.65625 -14.453125 4.65625 -11.453125 C 4.65625 -8.460938 5.410156 -6.128906 6.921875 -4.453125 C 8.441406 -2.773438 10.390625 -1.9375 12.765625 -1.9375 Z M 12.78125 0.421875 C 9.5 0.421875 6.828125 -0.664062 4.765625 -2.84375 C 2.710938 -5.03125 1.6875 -7.894531 1.6875 -11.4375 C 1.6875 -14.988281 2.773438 -17.863281 4.953125 -20.0625 C 7.140625 -22.257812 9.867188 -23.359375 13.140625 -23.359375 C 16.421875 -23.359375 19.148438 -22.257812 21.328125 -20.0625 C 23.515625 -17.863281 24.609375 -15.003906 24.609375 -11.484375 C 24.609375 -7.972656 23.457031 -5.109375 21.15625 -2.890625 C 18.863281 -0.679688 16.070312 0.421875 12.78125 0.421875 Z M 12.78125 0.421875 "/></g></g></g></svg>